<svg width="1548" height="450" viewBox="0 0 1548 450" fill="none" xmlns="http://www.w3.org/2000/svg">
<mask id="mask0_971_177" style="mask-type:alpha" maskUnits="userSpaceOnUse" x="0" y="0" width="1548" height="450">
<rect x="0.972961" y="0.181641" width="1546.98" height="449.018" fill="white"/>
</mask>
<g mask="url(#mask0_971_177)">
<path d="M49.4177 64.0248C49.4177 66.2008 48.882 68.0755 47.8108 69.6489C46.7563 71.2223 45.2331 72.4274 43.2412 73.2644C41.2661 74.1013 38.906 74.5197 36.1609 74.5197C34.8219 74.5197 33.5414 74.4444 32.3195 74.2938C31.0976 74.1431 29.9427 73.9255 28.8547 73.641C27.7834 73.3397 26.8043 72.9798 25.9171 72.5613V66.8871C27.4068 67.5399 29.0723 68.1341 30.9135 68.6697C32.7547 69.1886 34.6294 69.448 36.5376 69.448C38.0942 69.448 39.3831 69.2472 40.4041 68.8454C41.4419 68.427 42.2118 67.8412 42.714 67.0879C43.2161 66.318 43.4672 65.4225 43.4672 64.4014C43.4672 63.3134 43.1743 62.3928 42.5884 61.6396C42.0026 60.8864 41.1155 60.2001 39.9271 59.5808C38.7554 58.9448 37.2824 58.2669 35.5082 57.5471C34.303 57.0617 33.1481 56.5093 32.0433 55.89C30.9553 55.2707 29.9845 54.5426 29.1309 53.7057C28.2772 52.8688 27.5993 51.8812 27.0972 50.743C26.6118 49.5881 26.3691 48.2323 26.3691 46.6756C26.3691 44.6 26.8628 42.8258 27.8504 41.3528C28.8547 39.8799 30.2607 38.75 32.0684 37.9633C33.8929 37.1766 36.0187 36.7833 38.4457 36.7833C40.3706 36.7833 42.1784 36.9841 43.8689 37.3859C45.5762 37.7876 47.2501 38.3567 48.8904 39.0932L46.9822 43.9389C45.4758 43.3196 44.0112 42.8258 42.5884 42.4575C41.1824 42.0893 39.7429 41.9052 38.27 41.9052C36.9979 41.9052 35.9182 42.0977 35.0311 42.4827C34.144 42.8676 33.4661 43.4116 32.9974 44.1146C32.5455 44.8009 32.3195 45.6211 32.3195 46.5752C32.3195 47.6464 32.579 48.5503 33.0978 49.2868C33.6335 50.0065 34.4536 50.6677 35.5584 51.2703C36.6798 51.8728 38.1193 52.5424 39.8768 53.2788C41.9022 54.1158 43.6179 54.9945 45.0239 55.9151C46.4466 56.8357 47.5346 57.9405 48.2878 59.2293C49.0411 60.5014 49.4177 62.0999 49.4177 64.0248ZM64.8513 69.7493C65.6213 69.7493 66.3829 69.6824 67.1361 69.5485C67.8893 69.3978 68.5756 69.2221 69.1949 69.0212V73.4903C68.5421 73.7749 67.6968 74.0176 66.659 74.2184C65.6213 74.4193 64.5416 74.5197 63.4202 74.5197C61.8468 74.5197 60.4324 74.2603 59.177 73.7414C57.9217 73.2058 56.9257 72.2935 56.1892 71.0047C55.4528 69.7158 55.0845 67.9332 55.0845 65.6568V50.7179H51.2933V48.0816L55.3607 45.9977L57.294 40.0472H61.0099V46.2237H68.9689V50.7179H61.0099V65.5815C61.0099 66.9875 61.3614 68.0336 62.0644 68.7199C62.7674 69.4062 63.6964 69.7493 64.8513 69.7493ZM84.5281 45.6964C87.0054 45.6964 89.1311 46.2069 90.9054 47.228C92.6796 48.249 94.0438 49.6969 94.9979 51.5715C95.952 53.4462 96.429 55.6892 96.429 58.3003V61.4639H77.8746C77.9416 64.1587 78.6613 66.2343 80.0339 67.6905C81.4231 69.1467 83.3648 69.8749 85.8588 69.8749C87.633 69.8749 89.2232 69.7075 90.6292 69.3727C92.0519 69.0212 93.5165 68.5107 95.023 67.8412V72.6367C93.6337 73.2895 92.2193 73.7665 90.7798 74.0678C89.3403 74.3691 87.6163 74.5197 85.6077 74.5197C82.8794 74.5197 80.4774 73.9925 78.4019 72.938C76.3431 71.8667 74.7278 70.2766 73.5561 68.1675C72.4012 66.0585 71.8237 63.439 71.8237 60.3089C71.8237 57.1956 72.351 54.551 73.4055 52.375C74.46 50.199 75.9413 48.5419 77.8495 47.4037C79.7577 46.2655 81.9839 45.6964 84.5281 45.6964ZM84.5281 50.1404C82.6701 50.1404 81.1637 50.743 80.0088 51.9482C78.8705 53.1533 78.201 54.9192 78.0002 57.2458H90.6543C90.6376 55.8565 90.4032 54.6263 89.9513 53.555C89.5161 52.4838 88.8466 51.6469 87.9427 51.0443C87.0556 50.4417 85.9174 50.1404 84.5281 50.1404ZM115.955 45.6964C119.253 45.6964 121.897 46.9016 123.889 49.3119C125.898 51.7222 126.902 55.3042 126.902 60.0579C126.902 63.2046 126.433 65.8577 125.496 68.0169C124.575 70.1594 123.278 71.783 121.604 72.8877C119.947 73.9757 118.014 74.5197 115.804 74.5197C114.398 74.5197 113.177 74.3356 112.139 73.9674C111.101 73.5991 110.214 73.1221 109.477 72.5362C108.741 71.9337 108.122 71.2809 107.619 70.5779H107.268C107.352 71.2474 107.427 71.9922 107.494 72.8124C107.578 73.6159 107.619 74.3523 107.619 75.0219V86.3453H101.694V46.2237H106.515L107.343 50.0651H107.619C108.138 49.2784 108.766 48.5503 109.503 47.8808C110.256 47.2112 111.16 46.684 112.214 46.299C113.285 45.8973 114.532 45.6964 115.955 45.6964ZM114.373 50.517C112.75 50.517 111.444 50.8434 110.457 51.4962C109.486 52.1323 108.774 53.0947 108.322 54.3836C107.887 55.6724 107.653 57.2877 107.619 59.2293V60.0579C107.619 62.1167 107.829 63.8658 108.247 65.3053C108.682 66.7281 109.394 67.816 110.381 68.5693C111.386 69.3058 112.741 69.674 114.449 69.674C115.888 69.674 117.077 69.2806 118.014 68.4939C118.968 67.7072 119.679 66.5858 120.148 65.1296C120.617 63.6733 120.851 61.9576 120.851 59.9825C120.851 56.9864 120.315 54.6598 119.244 53.0027C118.19 51.3456 116.566 50.517 114.373 50.517ZM167.26 74.0176H142.404V69.5736L151.919 59.9323C153.76 58.0576 155.275 56.4424 156.464 55.0866C157.652 53.714 158.531 52.4168 159.1 51.1949C159.686 49.973 159.979 48.6423 159.979 47.2029C159.979 45.4286 159.468 44.0895 158.447 43.1857C157.426 42.2651 156.079 41.8048 154.405 41.8048C152.815 41.8048 151.342 42.1228 149.986 42.7588C148.647 43.3782 147.258 44.2653 145.818 45.4202L142.579 41.5286C143.6 40.6582 144.688 39.8631 145.843 39.1434C147.015 38.4236 148.32 37.8545 149.76 37.4361C151.199 37.0009 152.84 36.7833 154.681 36.7833C157.008 36.7833 159.016 37.2017 160.707 38.0386C162.397 38.8588 163.695 40.0054 164.598 41.4784C165.519 42.9513 165.979 44.667 165.979 46.6254C165.979 48.6005 165.586 50.425 164.799 52.0988C164.013 53.7726 162.891 55.4297 161.435 57.0701C159.979 58.6937 158.246 60.4596 156.238 62.3677L149.886 68.5693V68.8454H167.26V74.0176Z" fill="#8C8C8C"/>
<path d="M419.507 186.487L418.01 177.26C418.01 177.26 417.852 175.701 418.917 174.96C419.98 174.221 422.081 174.24 422.081 174.24L463.632 174.293C463.632 174.293 461.112 179.03 460.238 182.404C459.358 185.805 459.208 191.461 459.208 191.461L459.137 246.379C459.137 246.379 459.273 252.036 460.145 255.439C461.01 258.816 463.518 263.559 463.518 263.559L421.967 263.506C421.967 263.506 419.866 263.519 418.804 262.777C417.742 262.034 417.903 260.475 417.903 260.475L419.424 251.252C419.424 251.252 419.965 247.639 421.537 246.271C423.059 244.948 424.75 244.182 426.171 243.736C427.101 243.444 428.464 243.271 430.098 243.063C434.983 242.443 442.284 241.517 447.637 236.19C451.998 231.851 453.987 228.424 454.015 218.914C454.011 209.404 452.031 205.972 447.681 201.621C442.342 196.28 435.043 195.335 430.16 194.703C428.527 194.491 427.164 194.315 426.235 194.02C424.815 193.571 423.126 192.8 421.608 191.473C420.038 190.101 419.507 186.487 419.507 186.487Z" stroke="#8C8C8C" stroke-width="5.71559"/>
<path d="M459.126 192.924L459.06 244.912C459.06 244.912 459.049 252.999 461.386 258.637C462.741 261.908 465.476 264.343 467.498 265.336C468.69 265.921 469.673 265.623 470.591 265.345C471.081 265.196 471.553 265.053 472.028 265.054L653.945 265.287C653.945 265.287 655.526 265.414 656.608 264.599C658.039 263.521 657.849 261.725 657.849 261.725L657.958 176.62C657.958 176.62 658.153 174.826 656.724 173.743C655.645 172.926 654.063 173.049 654.063 173.049L472.146 172.815C471.671 172.815 471.2 172.671 470.71 172.521C469.793 172.24 468.81 171.939 467.617 172.522C465.592 173.51 462.851 175.938 461.488 179.205C459.137 184.837 459.126 192.924 459.126 192.924Z" stroke="#8C8C8C" stroke-width="5.71559"/>
<path d="M1459.27 231.282C1409.67 232.896 1358.65 231.62 1294.56 228.815L1294.59 208.914C1358.59 212.065 1409.69 213.403 1459.27 211.783L1459.27 231.282Z" stroke="#8C8C8C" stroke-width="5.71559"/>
<path d="M1074.74 238.536C1074.74 240.289 1076.16 241.712 1077.91 241.714L1078.49 241.715C1078.48 246.624 1083.08 250.543 1087.99 250.55C1087.99 250.55 1162.58 251.604 1167.63 250.652C1172.68 249.699 1177.8 248.606 1182.64 246.863C1185.5 245.831 1187.63 244.572 1189.72 243.335C1192.1 241.93 1194.43 240.552 1197.74 239.568C1202.66 238.104 1210.67 237.451 1210.67 237.451L1291.88 237.555C1292.93 237.556 1293.79 236.705 1293.79 235.653L1293.83 202.907C1293.83 201.855 1292.98 201.002 1291.93 201L1211.01 200.896C1211.01 200.896 1202.72 200.404 1197.8 199.021C1194.5 198.092 1192.17 196.796 1189.8 195.475L1189.8 195.475C1187.71 194.311 1185.58 193.127 1182.72 192.154C1178.29 190.648 1172.45 188.574 1167.71 188.57L1088.07 188.468C1083.16 188.462 1079.13 192.371 1079.12 197.279L1077.97 197.278C1076.22 197.276 1074.8 198.695 1074.79 200.448L1074.74 238.536Z" stroke="#8C8C8C" stroke-width="5.71559"/>
<rect x="1210.57" y="226.541" width="13.3197" height="2.99635" rx="1.49817" transform="rotate(-89.9266 1210.57 226.541)" stroke="#8C8C8C" stroke-width="2.99635"/>
<rect x="1221.89" y="226.555" width="13.3197" height="2.99635" rx="1.49817" transform="rotate(-89.9266 1221.89 226.555)" stroke="#8C8C8C" stroke-width="2.99635"/>
<rect x="1233.21" y="226.57" width="13.3197" height="2.99635" rx="1.49817" transform="rotate(-89.9266 1233.21 226.57)" stroke="#8C8C8C" stroke-width="2.99635"/>
<rect x="1244.53" y="226.584" width="13.3197" height="2.99635" rx="1.49817" transform="rotate(-89.9266 1244.53 226.584)" stroke="#8C8C8C" stroke-width="2.99635"/>
<rect x="1255.85" y="226.596" width="13.3197" height="2.99635" rx="1.49817" transform="rotate(-89.9266 1255.85 226.596)" stroke="#8C8C8C" stroke-width="2.99635"/>
<rect x="1267.17" y="226.613" width="13.3197" height="2.99635" rx="1.49817" transform="rotate(-89.9266 1267.17 226.613)" stroke="#8C8C8C" stroke-width="2.99635"/>
<rect x="1278.49" y="226.625" width="13.3197" height="2.99635" rx="1.49817" transform="rotate(-89.9266 1278.49 226.625)" stroke="#8C8C8C" stroke-width="2.99635"/>
<path d="M376.791 203.493L388.706 189.746C388.706 189.746 384.925 203.18 384.811 218.666C384.697 234.152 388.652 247.539 388.652 247.539L376.751 234.872C376.751 234.872 373.038 227.936 373.144 218.973C373.25 210.01 376.791 203.493 376.791 203.493Z" stroke="#8C8C8C" stroke-width="5.71559"/>
<path d="M388.71 189.754C388.71 189.754 391.728 185.838 394.413 184.788C397.276 183.669 397.318 185.416 398.6 185.631C401.763 186.159 404.396 186.466 404.396 186.466C404.396 186.466 399.785 200.866 399.761 219.258C399.737 237.65 403.818 251.838 403.818 251.838C403.818 251.838 401.982 251.436 399.719 251.832C397.77 252.174 399.035 254.272 393.85 252.655C391.129 251.807 388.636 247.546 388.636 247.546C388.636 247.546 384.74 233.716 384.759 219.238C384.779 203.322 388.71 189.754 388.71 189.754Z" stroke="#8C8C8C" stroke-width="5.71559"/>
<path d="M373.629 234.894C373.629 234.894 371.501 232.449 370.667 231.854C369.294 230.873 368.26 230.376 366.895 230.374L329.236 230.326C327.274 230.323 325.739 231.216 324.848 232.059C324.247 232.627 324.292 233.124 323.375 234.076C322.465 234.93 321.825 234.851 321.499 234.851C321.499 234.851 314.474 235.172 314.495 218.851C314.517 201.729 321.745 203.363 321.745 203.363C321.745 203.363 322.257 203.415 323.117 204.205C323.732 204.77 324.352 206.073 324.937 206.555C326.395 207.752 329.265 207.819 329.265 207.819L366.923 207.867C368.324 207.869 369.561 207.117 370.975 206.137C372.181 205.3 373.65 203.494 373.65 203.494C373.65 203.494 369.959 207.871 369.944 219.351C369.931 229.77 373.629 234.894 373.629 234.894Z" stroke="#8C8C8C" stroke-width="5.71559"/>
<path d="M376.789 203.493L373.639 203.489C373.639 203.489 369.862 207.486 369.847 219.179C369.832 230.872 373.599 234.879 373.599 234.879L376.748 234.883C376.748 234.883 373.146 228.024 373.157 219.183C373.168 210.342 376.789 203.493 376.789 203.493Z" stroke="#8C8C8C" stroke-width="5.71559"/>
<path d="M142.595 206.64C142.595 206.64 140.125 212.111 140.116 218.365C140.108 224.619 142.067 231.508 142.067 231.508C143.165 234.111 145.81 235.579 148.223 235.582C148.223 235.582 317.392 236.551 319.522 236.553C321.985 236.694 324.452 234.446 324.606 232.278C322.902 234.994 322.185 234.992 320.802 234.749C318.039 234.263 314.536 229.332 314.548 219.346C314.564 207.416 318.692 203.735 320.643 203.397C322.027 203.157 322.942 203.619 324.639 206.339C324.491 204.171 322.029 201.917 319.566 202.05C317.436 202.048 148.265 202.582 148.265 202.582C145.852 202.579 143.7 204.04 142.595 206.64Z" stroke="#8C8C8C" stroke-width="5.71559"/>
<path d="M112.567 211.623L142.608 206.639C142.608 206.639 140.232 211.676 140.157 218.148C140.081 224.619 142.072 231.509 142.072 231.509L110.909 225.392C110.013 224.418 108.441 222.093 108.499 219.099C108.45 215.349 110.884 212.834 112.567 211.623Z" stroke="#8C8C8C" stroke-width="5.71559"/>
<path d="M112.583 211.623L89.7655 215.302C88.8344 215.526 86.6753 216.532 86.7815 218.597C86.8876 220.662 88.1334 221.508 89.7964 221.936L110.968 225.405C110.968 225.405 108.508 223.189 108.514 218.877C108.52 214.219 112.583 211.623 112.583 211.623Z" stroke="#8C8C8C" stroke-width="5.71559"/>
<path d="M444.836 218.902C444.83 223.641 440.984 227.476 436.248 227.47C431.511 227.464 427.675 223.619 427.682 218.88C427.688 214.141 431.533 210.306 436.27 210.312C441.006 210.318 444.842 214.163 444.836 218.902Z" stroke="#8C8C8C" stroke-width="5.71559"/>
<path d="M435.569 213.907C435.837 213.177 436.871 213.177 437.139 213.907L438.11 216.548C438.194 216.779 438.376 216.96 438.606 217.045L441.247 218.015C441.978 218.284 441.978 219.317 441.247 219.586L438.606 220.556C438.376 220.641 438.194 220.822 438.11 221.053L437.139 223.693C436.871 224.424 435.837 224.424 435.569 223.693L434.599 221.053C434.514 220.822 434.332 220.641 434.102 220.556L431.461 219.586C430.73 219.317 430.73 218.284 431.461 218.015L434.102 217.045C434.332 216.96 434.514 216.779 434.599 216.548L435.569 213.907Z" fill="#8C8C8C"/>
<path d="M418.379 178.438L411.071 178.428C406.502 178.423 403.96 189.057 402.192 195.829C399.815 204.935 399.789 217.008 399.798 218.674C399.785 220.356 399.862 233.622 401.452 241.252C402.932 248.353 406.398 259.277 410.967 259.283L418.203 259.293C418.371 258.57 418.539 257.675 418.661 256.523C419.46 252.797 419.534 247.825 422.35 245.82C424.087 244.583 427.563 243.72 430.734 243.258C435.769 242.525 441.733 241.642 447.017 236.936C451.854 232.517 454.3 229.007 454.252 218.712C454.264 209.004 451.788 205.036 446.993 200.675C441.721 196.002 435.667 195.356 430.634 194.617C427.464 194.152 424.118 193.112 422.385 191.883C420.162 190.307 419.454 184.399 418.868 181.394C418.665 180.353 418.463 179.136 418.379 178.438Z" stroke="#8C8C8C" stroke-width="5.71559"/>
<path d="M1074.28 239.495C1073.97 245.708 1073.19 250.252 1071.77 255.261C1070.36 260.27 1068.37 262.6 1064.54 262.595L659.769 262.076C659.769 262.076 658.925 262.075 658.372 261.406C657.858 260.784 657.859 260.214 657.859 260.214L657.964 178.131C657.964 178.131 657.965 177.561 658.48 176.94C659.035 176.273 659.879 176.274 659.879 176.274L1064.65 176.793C1068.48 176.798 1070.46 179.133 1071.87 184.146C1073.27 189.158 1074.04 193.704 1074.33 199.917C1074.46 206.504 1074.83 213.122 1074.76 219.707C1074.81 226.292 1074.42 232.91 1074.28 239.495Z" stroke="#8C8C8C" stroke-width="5.71559"/>
<path d="M689.115 219.213C689.107 225.693 683.848 230.938 677.371 230.929C670.894 230.921 665.649 225.662 665.657 219.183C665.665 212.703 670.924 207.458 677.401 207.466C683.878 207.475 689.123 212.733 689.115 219.213Z" stroke="#8C8C8C" stroke-width="5.71559"/>
<rect x="956.643" y="213.609" width="2.70826" height="11.8959" transform="rotate(0.0734624 956.643 213.609)" fill="#8C8C8C"/>
<path d="M703.428 213.285L700.72 213.281L700.714 217.875L696.122 217.869L696.118 220.578L700.711 220.584L700.705 225.177L703.413 225.181L703.419 220.587L708.012 220.593L708.016 217.884L703.423 217.878L703.428 213.285Z" fill="#8C8C8C"/>
<rect x="715.527" y="192.219" width="233.665" height="54.0582" rx="27.0291" transform="rotate(0.0734624 715.527 192.219)" stroke="#8C8C8C" stroke-width="5.71559"/>
<rect x="761.514" y="203.078" width="121.591" height="32.4562" transform="rotate(0.0734624 761.514 203.078)" stroke="#8C8C8C" stroke-width="5.71559"/>
<path d="M988.523 219.597C988.517 224.336 984.671 228.172 979.935 228.165C975.198 228.159 971.362 224.314 971.368 219.575C971.374 214.837 975.22 211.001 979.957 211.007C984.693 211.013 988.529 214.859 988.523 219.597Z" stroke="#8C8C8C" stroke-width="5.71559"/>
<path d="M979.16 214.693C979.429 213.962 980.462 213.962 980.731 214.693L981.701 217.333C981.786 217.564 981.967 217.745 982.198 217.83L984.838 218.8C985.569 219.069 985.569 220.102 984.838 220.371L982.198 221.341C981.967 221.426 981.786 221.607 981.701 221.838L980.731 224.479C980.462 225.209 979.429 225.209 979.16 224.479L978.19 221.838C978.105 221.607 977.923 221.426 977.693 221.341L975.052 220.371C974.322 220.102 974.322 219.069 975.052 218.8L977.693 217.83C977.923 217.745 978.105 217.564 978.19 217.333L979.16 214.693Z" fill="#8C8C8C"/>
<path d="M931.313 219.525C931.305 226.005 926.046 231.25 919.569 231.242C913.092 231.234 907.847 225.975 907.855 219.495C907.864 213.016 913.122 207.771 919.599 207.779C926.077 207.787 931.322 213.046 931.313 219.525Z" stroke="#8C8C8C" stroke-width="5.71559"/>
<g filter="url(#filter0_d_971_177)">
<path d="M919.584 222.049L903.085 193.471H936.084L919.584 222.049ZM919.584 149.739V146.882H922.442V149.739H919.584ZM824.151 149.739V152.597H821.293V149.739H824.151ZM916.727 196.329V149.739H922.442V196.329H916.727ZM919.584 152.597H824.151V146.882H919.584V152.597ZM821.293 149.739V134.779H827.008V149.739H821.293Z" fill="#8C8C8C"/>
</g>
<path d="M654.831 112.559L644.261 81.9024H644.035C644.085 82.5887 644.144 83.526 644.211 84.7145C644.278 85.9029 644.336 87.175 644.387 88.5308C644.437 89.8866 644.462 91.1838 644.462 92.4224V112.559H638.989V75.8515H647.45L657.618 105.152H657.769L668.289 75.8515H676.725V112.559H670.975V92.1212C670.975 90.9997 670.992 89.7862 671.026 88.4806C671.076 87.175 671.126 85.9364 671.176 84.7647C671.243 83.593 671.293 82.6557 671.327 81.9526H671.126L660.154 112.559H654.831ZM690.301 84.7647V112.559H684.4V84.7647H690.301ZM687.388 74.1191C688.292 74.1191 689.07 74.3618 689.723 74.8472C690.393 75.3327 690.727 76.1696 690.727 77.358C690.727 78.5297 690.393 79.3666 689.723 79.8687C689.07 80.3541 688.292 80.5968 687.388 80.5968C686.451 80.5968 685.656 80.3541 685.003 79.8687C684.367 79.3666 684.049 78.5297 684.049 77.358C684.049 76.1696 684.367 75.3327 685.003 74.8472C685.656 74.3618 686.451 74.1191 687.388 74.1191ZM711.861 84.2374C714.991 84.2374 717.426 85.0492 719.167 86.6728C720.924 88.2797 721.803 90.8658 721.803 94.431V112.559H715.903V95.5358C715.903 93.3765 715.459 91.7613 714.572 90.69C713.685 89.602 712.312 89.058 710.454 89.058C707.76 89.058 705.885 89.8866 704.83 91.5437C703.793 93.2008 703.274 95.6027 703.274 98.7495V112.559H697.374V84.7647H701.968L702.797 88.5308H703.123C703.726 87.56 704.471 86.7649 705.358 86.1456C706.262 85.5095 707.266 85.0325 708.371 84.7145C709.492 84.3964 710.655 84.2374 711.861 84.2374ZM752.904 84.7647V112.559H748.259L747.455 108.818H747.129C746.543 109.772 745.798 110.567 744.894 111.203C743.991 111.822 742.986 112.282 741.882 112.584C740.777 112.902 739.614 113.061 738.392 113.061C736.299 113.061 734.508 112.709 733.019 112.006C731.546 111.286 730.416 110.182 729.629 108.692C728.842 107.202 728.449 105.277 728.449 102.917V84.7647H734.374V101.813C734.374 103.972 734.81 105.587 735.68 106.658C736.567 107.73 737.94 108.265 739.798 108.265C741.589 108.265 743.011 107.897 744.066 107.16C745.12 106.424 745.865 105.336 746.3 103.897C746.752 102.457 746.978 100.691 746.978 98.5989V84.7647H752.904ZM778.656 104.625C778.656 106.449 778.213 107.989 777.326 109.244C776.439 110.5 775.141 111.454 773.434 112.107C771.744 112.743 769.668 113.061 767.208 113.061C765.266 113.061 763.592 112.918 762.186 112.634C760.797 112.366 759.483 111.948 758.244 111.379V106.282C759.566 106.901 761.048 107.437 762.688 107.889C764.345 108.341 765.91 108.567 767.383 108.567C769.325 108.567 770.723 108.265 771.576 107.663C772.43 107.043 772.857 106.223 772.857 105.202C772.857 104.6 772.681 104.064 772.329 103.595C771.995 103.11 771.359 102.616 770.421 102.114C769.501 101.595 768.145 100.976 766.354 100.256C764.596 99.5529 763.115 98.8499 761.91 98.1469C760.705 97.4439 759.792 96.5986 759.173 95.6111C758.554 94.6068 758.244 93.3263 758.244 91.7696C758.244 89.3091 759.215 87.4428 761.157 86.1707C763.115 84.8818 765.701 84.2374 768.915 84.2374C770.622 84.2374 772.229 84.4132 773.735 84.7647C775.259 85.0994 776.748 85.5932 778.205 86.246L776.347 90.69C775.091 90.1377 773.827 89.6857 772.555 89.3342C771.3 88.966 770.02 88.7819 768.714 88.7819C767.191 88.7819 766.027 89.0162 765.224 89.4849C764.437 89.9535 764.044 90.6231 764.044 91.4935C764.044 92.1463 764.236 92.6986 764.621 93.1506C765.006 93.6025 765.668 94.0544 766.605 94.5064C767.559 94.9583 768.881 95.519 770.572 96.1886C772.229 96.8246 773.66 97.4941 774.865 98.1971C776.087 98.8834 777.025 99.7287 777.677 100.733C778.33 101.737 778.656 103.035 778.656 104.625ZM801.514 73.4914V82.9067C801.514 83.9947 801.481 85.066 801.414 86.1205C801.364 87.1583 801.314 87.9701 801.263 88.5559H801.514C802.268 87.3507 803.314 86.3381 804.653 85.5179C806.009 84.681 807.741 84.2625 809.85 84.2625C813.148 84.2625 815.801 85.4761 817.809 87.9031C819.818 90.3134 820.822 93.887 820.822 98.624C820.822 101.771 820.362 104.415 819.441 106.558C818.521 108.7 817.223 110.324 815.55 111.429C813.892 112.517 811.942 113.061 809.7 113.061C807.59 113.061 805.883 112.676 804.578 111.906C803.289 111.119 802.276 110.207 801.54 109.169H801.113L800.033 112.559H795.614V73.4914H801.514ZM808.293 89.058C806.62 89.058 805.289 89.3928 804.301 90.0623C803.331 90.7319 802.628 91.7362 802.192 93.0752C801.757 94.3976 801.531 96.0798 801.514 98.1218V98.6491C801.514 101.746 802 104.114 802.971 105.754C803.958 107.395 805.749 108.215 808.344 108.215C810.403 108.215 811.984 107.386 813.089 105.729C814.194 104.056 814.746 101.662 814.746 98.5487C814.746 95.4019 814.194 93.0334 813.089 91.4433C812.001 89.8531 810.403 89.058 808.293 89.058ZM850.492 84.7647V112.559H845.847L845.043 108.818H844.717C844.131 109.772 843.386 110.567 842.482 111.203C841.578 111.822 840.574 112.282 839.469 112.584C838.365 112.902 837.201 113.061 835.98 113.061C833.887 113.061 832.096 112.709 830.607 112.006C829.134 111.286 828.004 110.182 827.217 108.692C826.43 107.202 826.037 105.277 826.037 102.917V84.7647H831.962V101.813C831.962 103.972 832.398 105.587 833.268 106.658C834.155 107.73 835.528 108.265 837.386 108.265C839.177 108.265 840.599 107.897 841.654 107.16C842.708 106.424 843.453 105.336 843.888 103.897C844.34 102.457 844.566 100.691 844.566 98.5989V84.7647H850.492ZM867.909 108.29C868.679 108.29 869.44 108.223 870.194 108.089C870.947 107.939 871.633 107.763 872.252 107.562V112.031C871.6 112.316 870.754 112.559 869.716 112.759C868.679 112.96 867.599 113.061 866.478 113.061C864.904 113.061 863.49 112.801 862.234 112.282C860.979 111.747 859.983 110.835 859.247 109.546C858.51 108.257 858.142 106.474 858.142 104.198V89.2589H854.351V86.6226L858.418 84.5387L860.351 78.5883H864.067V84.7647H872.026V89.2589H864.067V104.123C864.067 105.529 864.419 106.575 865.122 107.261C865.825 107.947 866.754 108.29 867.909 108.29ZM886.857 108.29C887.627 108.29 888.389 108.223 889.142 108.089C889.895 107.939 890.582 107.763 891.201 107.562V112.031C890.548 112.316 889.703 112.559 888.665 112.759C887.627 112.96 886.548 113.061 885.426 113.061C883.853 113.061 882.439 112.801 881.183 112.282C879.928 111.747 878.932 110.835 878.195 109.546C877.459 108.257 877.091 106.474 877.091 104.198V89.2589H873.299V86.6226L877.367 84.5387L879.3 78.5883H883.016V84.7647H890.975V89.2589H883.016V104.123C883.016 105.529 883.367 106.575 884.071 107.261C884.774 107.947 885.702 108.29 886.857 108.29ZM920.067 98.5989C920.067 100.909 919.766 102.959 919.163 104.75C918.561 106.541 917.682 108.056 916.527 109.295C915.372 110.517 913.983 111.454 912.359 112.107C910.736 112.743 908.903 113.061 906.861 113.061C904.952 113.061 903.203 112.743 901.613 112.107C900.023 111.454 898.642 110.517 897.47 109.295C896.315 108.056 895.42 106.541 894.784 104.75C894.148 102.959 893.83 100.909 893.83 98.5989C893.83 95.5358 894.357 92.9413 895.412 90.8156C896.483 88.6731 898.006 87.0411 899.981 85.9196C901.956 84.7982 904.308 84.2374 907.036 84.2374C909.597 84.2374 911.857 84.7982 913.815 85.9196C915.774 87.0411 917.305 88.6731 918.41 90.8156C919.515 92.9581 920.067 95.5525 920.067 98.5989ZM899.906 98.5989C899.906 100.624 900.149 102.357 900.634 103.796C901.136 105.236 901.906 106.34 902.944 107.11C903.982 107.864 905.321 108.24 906.961 108.24C908.601 108.24 909.94 107.864 910.978 107.11C912.016 106.34 912.778 105.236 913.263 103.796C913.748 102.357 913.991 100.624 913.991 98.5989C913.991 96.5735 913.748 94.8579 913.263 93.4518C912.778 92.0291 912.016 90.9495 910.978 90.213C909.94 89.4598 908.593 89.0832 906.936 89.0832C904.492 89.0832 902.709 89.9033 901.588 91.5437C900.467 93.184 899.906 95.5358 899.906 98.5989ZM939.945 84.2374C943.075 84.2374 945.51 85.0492 947.251 86.6728C949.009 88.2797 949.887 90.8658 949.887 94.431V112.559H943.987V95.5358C943.987 93.3765 943.543 91.7613 942.656 90.69C941.769 89.602 940.397 89.058 938.539 89.058C935.844 89.058 933.969 89.8866 932.915 91.5437C931.877 93.2008 931.358 95.6027 931.358 98.7495V112.559H925.458V84.7647H930.052L930.881 88.5308H931.207C931.81 87.56 932.555 86.7649 933.442 86.1456C934.346 85.5095 935.35 85.0325 936.455 84.7145C937.576 84.3964 938.74 84.2374 939.945 84.2374ZM966.569 98.4733C966.569 95.6613 966.837 92.9162 967.372 90.2381C967.925 87.56 968.762 85.0074 969.883 82.5803C971.004 80.1533 972.419 77.9104 974.126 75.8515H979.273C976.88 79.0486 975.072 82.5887 973.85 86.472C972.645 90.3553 972.042 94.339 972.042 98.4231C972.042 101.085 972.31 103.721 972.846 106.332C973.381 108.943 974.185 111.454 975.256 113.864C976.327 116.291 977.65 118.568 979.223 120.693H974.126C972.419 118.685 971.004 116.492 969.883 114.115C968.762 111.738 967.925 109.228 967.372 106.583C966.837 103.938 966.569 101.235 966.569 98.4733ZM981.249 101.26V96.2639H994.205V101.26H981.249ZM1008.86 98.4482C1008.86 101.227 1008.59 103.938 1008.06 106.583C1007.52 109.228 1006.69 111.738 1005.57 114.115C1004.47 116.492 1003.04 118.685 1001.3 120.693H996.231C997.804 118.568 999.127 116.291 1000.2 113.864C1001.27 111.437 1002.07 108.918 1002.61 106.307C1003.14 103.696 1003.41 101.059 1003.41 98.398C1003.41 95.6864 1003.14 93.0083 1002.58 90.3636C1002.05 87.719 1001.24 85.1748 1000.17 82.731C999.102 80.2705 997.771 77.9773 996.181 75.8515H1001.3C1003.04 77.9104 1004.47 80.1533 1005.57 82.5803C1006.69 85.0074 1007.52 87.56 1008.06 90.2381C1008.59 92.8995 1008.86 95.6362 1008.86 98.4482Z" fill="#8C8C8C"/>
<path d="M155.529 315.557C153.504 315.557 151.679 315.909 150.056 316.612C148.449 317.298 147.076 318.302 145.938 319.625C144.817 320.93 143.955 322.512 143.352 324.37C142.749 326.228 142.448 328.32 142.448 330.647C142.448 333.727 142.925 336.405 143.879 338.681C144.85 340.941 146.29 342.69 148.198 343.929C150.123 345.167 152.525 345.787 155.404 345.787C157.044 345.787 158.584 345.653 160.023 345.385C161.48 345.1 162.894 344.749 164.267 344.33V348.046C162.927 348.548 161.521 348.917 160.049 349.151C158.576 349.402 156.826 349.528 154.801 349.528C151.068 349.528 147.947 348.758 145.436 347.218C142.942 345.661 141.067 343.468 139.812 340.64C138.573 337.811 137.954 334.471 137.954 330.622C137.954 327.843 138.339 325.307 139.109 323.014C139.896 320.704 141.034 318.712 142.524 317.039C144.03 315.365 145.871 314.076 148.047 313.172C150.24 312.251 152.751 311.791 155.579 311.791C157.437 311.791 159.228 311.975 160.952 312.343C162.676 312.712 164.233 313.239 165.622 313.925L163.915 317.541C162.743 317.005 161.455 316.545 160.049 316.16C158.659 315.758 157.153 315.557 155.529 315.557ZM193.936 335.216C193.936 337.476 193.643 339.493 193.057 341.267C192.471 343.041 191.626 344.54 190.521 345.761C189.417 346.983 188.078 347.921 186.504 348.573C184.948 349.21 183.182 349.528 181.207 349.528C179.365 349.528 177.675 349.21 176.135 348.573C174.612 347.921 173.289 346.983 172.168 345.761C171.063 344.54 170.201 343.041 169.582 341.267C168.979 339.493 168.678 337.476 168.678 335.216C168.678 332.203 169.189 329.642 170.21 327.533C171.231 325.408 172.687 323.792 174.578 322.688C176.486 321.566 178.754 321.006 181.382 321.006C183.893 321.006 186.086 321.566 187.961 322.688C189.852 323.809 191.317 325.433 192.354 327.559C193.409 329.668 193.936 332.22 193.936 335.216ZM172.997 335.216C172.997 337.426 173.289 339.342 173.875 340.966C174.461 342.59 175.365 343.845 176.587 344.732C177.809 345.619 179.382 346.063 181.307 346.063C183.215 346.063 184.78 345.619 186.002 344.732C187.241 343.845 188.153 342.59 188.739 340.966C189.325 339.342 189.618 337.426 189.618 335.216C189.618 333.024 189.325 331.132 188.739 329.542C188.153 327.935 187.249 326.697 186.027 325.826C184.805 324.956 183.224 324.521 181.282 324.521C178.42 324.521 176.319 325.466 174.98 327.358C173.658 329.249 172.997 331.869 172.997 335.216ZM212.784 321.006C216.048 321.006 218.517 321.809 220.191 323.416C221.865 325.006 222.702 327.567 222.702 331.099V349.025H218.584V331.375C218.584 329.082 218.057 327.366 217.002 326.228C215.965 325.09 214.366 324.521 212.207 324.521C209.16 324.521 207.018 325.383 205.779 327.107C204.541 328.831 203.921 331.333 203.921 334.614V349.025H199.754V321.508H203.118L203.746 325.475H203.972C204.557 324.504 205.302 323.692 206.206 323.039C207.11 322.37 208.123 321.868 209.244 321.533C210.366 321.181 211.546 321.006 212.784 321.006ZM242.931 321.006C246.195 321.006 248.664 321.809 250.338 323.416C252.011 325.006 252.848 327.567 252.848 331.099V349.025H248.731V331.375C248.731 329.082 248.203 327.366 247.149 326.228C246.111 325.09 244.513 324.521 242.353 324.521C239.307 324.521 237.165 325.383 235.926 327.107C234.687 328.831 234.068 331.333 234.068 334.614V349.025H229.9V321.508H233.265L233.892 325.475H234.118C234.704 324.504 235.449 323.692 236.353 323.039C237.257 322.37 238.269 321.868 239.391 321.533C240.512 321.181 241.692 321.006 242.931 321.006ZM270.642 321.006C272.985 321.006 274.994 321.524 276.668 322.562C278.342 323.6 279.622 325.056 280.509 326.931C281.396 328.789 281.84 330.965 281.84 333.459V336.045H262.834C262.884 339.275 263.687 341.736 265.244 343.426C266.801 345.117 268.993 345.962 271.822 345.962C273.563 345.962 275.103 345.803 276.442 345.485C277.781 345.167 279.17 344.699 280.61 344.079V347.745C279.22 348.364 277.84 348.816 276.467 349.101C275.111 349.385 273.504 349.528 271.646 349.528C269.002 349.528 266.692 348.992 264.717 347.921C262.758 346.833 261.235 345.243 260.147 343.15C259.059 341.058 258.515 338.497 258.515 335.467C258.515 332.505 259.009 329.944 259.997 327.785C261.001 325.609 262.407 323.935 264.215 322.763C266.039 321.591 268.182 321.006 270.642 321.006ZM270.592 324.42C268.366 324.42 266.591 325.148 265.269 326.604C263.947 328.061 263.16 330.094 262.909 332.706H277.471C277.455 331.065 277.195 329.626 276.693 328.387C276.208 327.132 275.463 326.161 274.458 325.475C273.454 324.772 272.165 324.42 270.592 324.42ZM298.554 349.528C296.077 349.528 293.892 349.017 292.001 347.996C290.11 346.975 288.637 345.418 287.582 343.326C286.528 341.234 286 338.597 286 335.417C286 332.086 286.553 329.366 287.657 327.257C288.779 325.131 290.319 323.558 292.277 322.537C294.236 321.516 296.462 321.006 298.956 321.006C300.328 321.006 301.651 321.148 302.923 321.432C304.212 321.7 305.266 322.043 306.086 322.462L304.831 325.952C303.994 325.617 303.023 325.316 301.918 325.048C300.83 324.78 299.809 324.646 298.855 324.646C296.947 324.646 295.357 325.056 294.085 325.876C292.83 326.697 291.884 327.902 291.248 329.492C290.629 331.082 290.319 333.04 290.319 335.367C290.319 337.593 290.62 339.493 291.223 341.066C291.842 342.64 292.754 343.845 293.959 344.682C295.181 345.502 296.704 345.912 298.529 345.912C299.985 345.912 301.299 345.761 302.471 345.46C303.643 345.142 304.705 344.774 305.659 344.355V348.071C304.739 348.54 303.709 348.9 302.571 349.151C301.45 349.402 300.111 349.528 298.554 349.528ZM319.687 346.113C320.373 346.113 321.076 346.054 321.796 345.937C322.516 345.82 323.102 345.678 323.554 345.51V348.749C323.068 348.967 322.39 349.151 321.52 349.302C320.666 349.452 319.829 349.528 319.009 349.528C317.553 349.528 316.231 349.276 315.042 348.774C313.854 348.255 312.9 347.385 312.18 346.163C311.477 344.941 311.125 343.251 311.125 341.091V324.772H307.209V322.738L311.151 321.106L312.808 315.13H315.318V321.508H323.378V324.772H315.318V340.966C315.318 342.69 315.712 343.979 316.498 344.832C317.302 345.686 318.365 346.113 319.687 346.113ZM350.73 349.528C348.253 349.528 346.069 349.017 344.177 347.996C342.286 346.975 340.813 345.418 339.758 343.326C338.704 341.234 338.176 338.597 338.176 335.417C338.176 332.086 338.729 329.366 339.834 327.257C340.955 325.131 342.495 323.558 344.453 322.537C346.412 321.516 348.638 321.006 351.132 321.006C352.504 321.006 353.827 321.148 355.099 321.432C356.388 321.7 357.442 322.043 358.262 322.462L357.007 325.952C356.17 325.617 355.199 325.316 354.095 325.048C353.007 324.78 351.986 324.646 351.031 324.646C349.123 324.646 347.533 325.056 346.261 325.876C345.006 326.697 344.06 327.902 343.424 329.492C342.805 331.082 342.495 333.04 342.495 335.367C342.495 337.593 342.796 339.493 343.399 341.066C344.018 342.64 344.93 343.845 346.135 344.682C347.357 345.502 348.881 345.912 350.705 345.912C352.161 345.912 353.475 345.761 354.647 345.46C355.819 345.142 356.881 344.774 357.836 344.355V348.071C356.915 348.54 355.886 348.9 354.747 349.151C353.626 349.402 352.287 349.528 350.73 349.528ZM373.269 321.056C376.55 321.056 378.985 321.792 380.575 323.265C382.166 324.738 382.961 327.09 382.961 330.32V349.025H379.923L379.119 344.958H378.918C378.148 345.962 377.345 346.808 376.508 347.494C375.671 348.163 374.7 348.674 373.596 349.025C372.508 349.36 371.169 349.528 369.578 349.528C367.905 349.528 366.415 349.235 365.109 348.649C363.82 348.063 362.799 347.176 362.046 345.987C361.31 344.799 360.941 343.293 360.941 341.468C360.941 338.723 362.029 336.614 364.205 335.141C366.381 333.668 369.696 332.865 374.148 332.731L378.893 332.53V330.848C378.893 328.471 378.383 326.805 377.362 325.851C376.341 324.897 374.901 324.42 373.043 324.42C371.604 324.42 370.231 324.629 368.926 325.048C367.62 325.466 366.381 325.96 365.21 326.529L363.929 323.366C365.168 322.73 366.591 322.186 368.197 321.734C369.804 321.282 371.495 321.056 373.269 321.056ZM378.843 335.467L374.65 335.643C371.219 335.777 368.8 336.338 367.394 337.325C365.988 338.313 365.285 339.711 365.285 341.518C365.285 343.092 365.762 344.255 366.716 345.008C367.67 345.761 368.934 346.138 370.507 346.138C372.951 346.138 374.951 345.46 376.508 344.104C378.065 342.749 378.843 340.715 378.843 338.003V335.467ZM394.327 309.958V319.725C394.327 320.846 394.293 321.934 394.226 322.989C394.176 324.044 394.134 324.864 394.101 325.45H394.327C395.08 324.211 396.168 323.165 397.591 322.311C399.014 321.457 400.83 321.031 403.039 321.031C406.487 321.031 409.232 322.227 411.274 324.621C413.333 326.998 414.363 330.538 414.363 335.241C414.363 338.338 413.894 340.949 412.957 343.075C412.019 345.201 410.697 346.808 408.99 347.896C407.282 348.984 405.265 349.528 402.939 349.528C400.763 349.528 398.972 349.126 397.566 348.322C396.176 347.502 395.105 346.506 394.352 345.335H394.026L393.172 349.025H390.159V309.958H394.327ZM402.361 324.521C400.369 324.521 398.788 324.914 397.616 325.701C396.444 326.471 395.599 327.642 395.08 329.216C394.578 330.772 394.327 332.747 394.327 335.141V335.367C394.327 338.832 394.904 341.485 396.059 343.326C397.214 345.15 399.315 346.063 402.361 346.063C404.922 346.063 406.839 345.125 408.111 343.251C409.4 341.376 410.044 338.698 410.044 335.216C410.044 331.668 409.408 328.998 408.136 327.207C406.881 325.416 404.956 324.521 402.361 324.521ZM424.448 349.025H420.255V309.958H424.448V349.025ZM442.468 321.006C444.811 321.006 446.82 321.524 448.494 322.562C450.168 323.6 451.448 325.056 452.335 326.931C453.222 328.789 453.666 330.965 453.666 333.459V336.045H434.66C434.71 339.275 435.513 341.736 437.07 343.426C438.627 345.117 440.819 345.962 443.648 345.962C445.389 345.962 446.929 345.803 448.268 345.485C449.607 345.167 450.996 344.699 452.436 344.079V347.745C451.046 348.364 449.665 348.816 448.293 349.101C446.937 349.385 445.33 349.528 443.472 349.528C440.828 349.528 438.518 348.992 436.543 347.921C434.584 346.833 433.061 345.243 431.973 343.15C430.885 341.058 430.341 338.497 430.341 335.467C430.341 332.505 430.835 329.944 431.822 327.785C432.827 325.609 434.233 323.935 436.041 322.763C437.865 321.591 440.007 321.006 442.468 321.006ZM442.418 324.42C440.192 324.42 438.417 325.148 437.095 326.604C435.773 328.061 434.986 330.094 434.735 332.706H449.297C449.28 331.065 449.021 329.626 448.519 328.387C448.033 327.132 447.289 326.161 446.284 325.475C445.28 324.772 443.991 324.42 442.418 324.42ZM493.723 348.975L488.827 332.957C488.609 332.27 488.4 331.601 488.199 330.948C488.015 330.279 487.839 329.642 487.672 329.04C487.521 328.421 487.379 327.851 487.245 327.333C487.128 326.797 487.027 326.337 486.944 325.952H486.768C486.701 326.337 486.609 326.797 486.492 327.333C486.374 327.851 486.232 328.421 486.065 329.04C485.914 329.659 485.747 330.312 485.563 330.998C485.378 331.668 485.169 332.346 484.935 333.032L479.813 348.975H475.118L467.535 321.457H471.854L475.821 336.647C476.089 337.652 476.34 338.648 476.574 339.635C476.825 340.606 477.034 341.527 477.202 342.397C477.386 343.251 477.52 343.996 477.604 344.632H477.804C477.905 344.213 478.014 343.711 478.131 343.125C478.265 342.539 478.407 341.92 478.558 341.267C478.725 340.598 478.901 339.937 479.085 339.284C479.269 338.614 479.453 337.986 479.637 337.401L484.709 321.457H489.203L494.099 337.376C494.35 338.179 494.593 339.016 494.827 339.886C495.078 340.757 495.304 341.602 495.505 342.422C495.706 343.226 495.848 343.945 495.932 344.581H496.133C496.2 344.012 496.325 343.309 496.509 342.472C496.694 341.635 496.903 340.715 497.137 339.711C497.388 338.706 497.648 337.685 497.915 336.647L501.933 321.457H506.176L498.568 348.975H493.723ZM513.977 309.958V321.633C513.977 322.303 513.96 322.981 513.927 323.667C513.893 324.336 513.834 324.956 513.751 325.525H514.027C514.596 324.554 515.316 323.742 516.186 323.089C517.073 322.42 518.078 321.918 519.199 321.583C520.321 321.231 521.509 321.056 522.764 321.056C524.974 321.056 526.815 321.407 528.288 322.11C529.778 322.813 530.891 323.901 531.627 325.374C532.381 326.847 532.757 328.755 532.757 331.099V349.025H528.639V331.375C528.639 329.082 528.112 327.366 527.058 326.228C526.02 325.09 524.421 324.521 522.262 324.521C520.22 324.521 518.588 324.914 517.366 325.701C516.161 326.471 515.291 327.609 514.755 329.115C514.236 330.622 513.977 332.463 513.977 334.639V349.025H509.809V309.958H513.977ZM544.123 321.508V349.025H539.956V321.508H544.123ZM542.09 311.214C542.776 311.214 543.362 311.44 543.847 311.892C544.349 312.327 544.6 313.013 544.6 313.95C544.6 314.871 544.349 315.557 543.847 316.009C543.362 316.461 542.776 316.687 542.09 316.687C541.37 316.687 540.767 316.461 540.282 316.009C539.813 315.557 539.579 314.871 539.579 313.95C539.579 313.013 539.813 312.327 540.282 311.892C540.767 311.44 541.37 311.214 542.09 311.214ZM555.766 349.025H551.573V309.958H555.766V349.025ZM573.785 321.006C576.129 321.006 578.137 321.524 579.811 322.562C581.485 323.6 582.766 325.056 583.653 326.931C584.54 328.789 584.983 330.965 584.983 333.459V336.045H565.977C566.027 339.275 566.831 341.736 568.387 343.426C569.944 345.117 572.137 345.962 574.966 345.962C576.706 345.962 578.246 345.803 579.585 345.485C580.924 345.167 582.314 344.699 583.753 344.079V347.745C582.364 348.364 580.983 348.816 579.61 349.101C578.255 349.385 576.648 349.528 574.79 349.528C572.145 349.528 569.835 348.992 567.86 347.921C565.902 346.833 564.379 345.243 563.291 343.15C562.203 341.058 561.659 338.497 561.659 335.467C561.659 332.505 562.152 329.944 563.14 327.785C564.144 325.609 565.55 323.935 567.358 322.763C569.182 321.591 571.325 321.006 573.785 321.006ZM573.735 324.42C571.509 324.42 569.735 325.148 568.412 326.604C567.09 328.061 566.303 330.094 566.052 332.706H580.615C580.598 331.065 580.338 329.626 579.836 328.387C579.351 327.132 578.606 326.161 577.602 325.475C576.597 324.772 575.309 324.42 573.735 324.42ZM620.445 341.493C620.445 343.251 620.002 344.732 619.115 345.937C618.244 347.126 616.989 348.021 615.348 348.624C613.725 349.226 611.783 349.528 609.524 349.528C607.599 349.528 605.933 349.377 604.527 349.076C603.121 348.774 601.891 348.347 600.836 347.795V343.954C601.958 344.506 603.297 345.008 604.854 345.46C606.41 345.912 608 346.138 609.624 346.138C612.001 346.138 613.725 345.753 614.796 344.983C615.867 344.213 616.403 343.167 616.403 341.845C616.403 341.091 616.185 340.43 615.75 339.861C615.332 339.275 614.62 338.715 613.616 338.179C612.612 337.627 611.222 337.024 609.448 336.371C607.691 335.702 606.168 335.041 604.879 334.388C603.607 333.718 602.619 332.906 601.916 331.952C601.23 330.998 600.887 329.76 600.887 328.236C600.887 325.91 601.824 324.127 603.699 322.889C605.59 321.633 608.067 321.006 611.13 321.006C612.788 321.006 614.336 321.173 615.775 321.508C617.232 321.826 618.587 322.261 619.843 322.813L618.437 326.153C617.298 325.667 616.085 325.257 614.796 324.922C613.507 324.588 612.193 324.42 610.854 324.42C608.929 324.42 607.448 324.738 606.41 325.374C605.389 326.01 604.879 326.881 604.879 327.985C604.879 328.839 605.113 329.542 605.582 330.094C606.067 330.647 606.837 331.166 607.892 331.651C608.946 332.136 610.335 332.706 612.059 333.358C613.783 333.994 615.273 334.656 616.529 335.342C617.784 336.011 618.746 336.832 619.416 337.802C620.102 338.756 620.445 339.987 620.445 341.493ZM634.649 346.113C635.335 346.113 636.038 346.054 636.758 345.937C637.477 345.82 638.063 345.678 638.515 345.51V348.749C638.03 348.967 637.352 349.151 636.482 349.302C635.628 349.452 634.791 349.528 633.971 349.528C632.515 349.528 631.192 349.276 630.004 348.774C628.815 348.255 627.861 347.385 627.142 346.163C626.439 344.941 626.087 343.251 626.087 341.091V324.772H622.17V322.738L626.112 321.106L627.769 315.13H630.28V321.508H638.339V324.772H630.28V340.966C630.28 342.69 630.673 343.979 631.46 344.832C632.264 345.686 633.326 346.113 634.649 346.113ZM646.869 321.508V349.025H642.701V321.508H646.869ZM644.835 311.214C645.521 311.214 646.107 311.44 646.592 311.892C647.095 312.327 647.346 313.013 647.346 313.95C647.346 314.871 647.095 315.557 646.592 316.009C646.107 316.461 645.521 316.687 644.835 316.687C644.115 316.687 643.513 316.461 643.027 316.009C642.558 315.557 642.324 314.871 642.324 313.95C642.324 313.013 642.558 312.327 643.027 311.892C643.513 311.44 644.115 311.214 644.835 311.214ZM658.511 349.025H654.318V309.958H658.511V349.025ZM670.128 349.025H665.935V309.958H670.128V349.025ZM693.689 309.958V321.633C693.689 322.303 693.673 322.981 693.639 323.667C693.606 324.336 693.547 324.956 693.463 325.525H693.739C694.309 324.554 695.028 323.742 695.899 323.089C696.786 322.42 697.79 321.918 698.912 321.583C700.033 321.231 701.221 321.056 702.477 321.056C704.686 321.056 706.528 321.407 708 322.11C709.49 322.813 710.603 323.901 711.34 325.374C712.093 326.847 712.47 328.755 712.47 331.099V349.025H708.352V331.375C708.352 329.082 707.825 327.366 706.77 326.228C705.732 325.09 704.134 324.521 701.975 324.521C699.933 324.521 698.301 324.914 697.079 325.701C695.874 326.471 695.003 327.609 694.468 329.115C693.949 330.622 693.689 332.463 693.689 334.639V349.025H689.521V309.958H693.689ZM743.395 335.216C743.395 337.476 743.102 339.493 742.516 341.267C741.93 343.041 741.085 344.54 739.98 345.761C738.875 346.983 737.536 347.921 735.963 348.573C734.406 349.21 732.64 349.528 730.665 349.528C728.824 349.528 727.133 349.21 725.593 348.573C724.07 347.921 722.748 346.983 721.626 345.761C720.522 344.54 719.66 343.041 719.04 341.267C718.438 339.493 718.136 337.476 718.136 335.216C718.136 332.203 718.647 329.642 719.668 327.533C720.689 325.408 722.145 323.792 724.037 322.688C725.945 321.566 728.213 321.006 730.841 321.006C733.352 321.006 735.544 321.566 737.419 322.688C739.31 323.809 740.775 325.433 741.813 327.559C742.867 329.668 743.395 332.22 743.395 335.216ZM722.455 335.216C722.455 337.426 722.748 339.342 723.334 340.966C723.92 342.59 724.823 343.845 726.045 344.732C727.267 345.619 728.841 346.063 730.766 346.063C732.674 346.063 734.239 345.619 735.461 344.732C736.699 343.845 737.611 342.59 738.197 340.966C738.783 339.342 739.076 337.426 739.076 335.216C739.076 333.024 738.783 331.132 738.197 329.542C737.611 327.935 736.708 326.697 735.486 325.826C734.264 324.956 732.682 324.521 730.74 324.521C727.878 324.521 725.778 325.466 724.438 327.358C723.116 329.249 722.455 331.869 722.455 335.216ZM753.405 349.025H749.212V309.958H753.405V349.025ZM770.621 349.528C767.14 349.528 764.378 348.339 762.336 345.962C760.31 343.585 759.298 340.054 759.298 335.367C759.298 330.63 760.336 327.056 762.411 324.646C764.487 322.219 767.248 321.006 770.697 321.006C772.153 321.006 773.425 321.198 774.513 321.583C775.601 321.968 776.538 322.487 777.325 323.14C778.112 323.776 778.773 324.504 779.308 325.324H779.61C779.543 324.805 779.476 324.094 779.409 323.19C779.342 322.286 779.308 321.55 779.308 320.98V309.958H783.476V349.025H780.112L779.484 345.109H779.308C778.79 345.929 778.128 346.674 777.325 347.343C776.538 348.013 775.593 348.548 774.488 348.95C773.4 349.335 772.111 349.528 770.621 349.528ZM771.274 346.063C774.22 346.063 776.304 345.226 777.526 343.552C778.748 341.878 779.359 339.393 779.359 336.095V335.342C779.359 331.844 778.773 329.157 777.601 327.282C776.446 325.408 774.337 324.47 771.274 324.47C768.713 324.47 766.797 325.458 765.524 327.433C764.252 329.391 763.616 332.07 763.616 335.467C763.616 338.849 764.244 341.46 765.499 343.301C766.771 345.142 768.696 346.063 771.274 346.063ZM795.093 321.508V349.025H790.926V321.508H795.093ZM793.06 311.214C793.746 311.214 794.332 311.44 794.817 311.892C795.319 312.327 795.571 313.013 795.571 313.95C795.571 314.871 795.319 315.557 794.817 316.009C794.332 316.461 793.746 316.687 793.06 316.687C792.34 316.687 791.737 316.461 791.252 316.009C790.783 315.557 790.549 314.871 790.549 313.95C790.549 313.013 790.783 312.327 791.252 311.892C791.737 311.44 792.34 311.214 793.06 311.214ZM815.574 321.006C818.838 321.006 821.307 321.809 822.98 323.416C824.654 325.006 825.491 327.567 825.491 331.099V349.025H821.374V331.375C821.374 329.082 820.846 327.366 819.792 326.228C818.754 325.09 817.155 324.521 814.996 324.521C811.95 324.521 809.807 325.383 808.569 327.107C807.33 328.831 806.711 331.333 806.711 334.614V349.025H802.543V321.508H805.907L806.535 325.475H806.761C807.347 324.504 808.092 323.692 808.996 323.039C809.899 322.37 810.912 321.868 812.034 321.533C813.155 321.181 814.335 321.006 815.574 321.006ZM840.372 361.378C836.757 361.378 833.97 360.7 832.012 359.345C830.053 358.005 829.074 356.122 829.074 353.695C829.074 351.971 829.618 350.498 830.706 349.276C831.811 348.055 833.334 347.243 835.276 346.841C834.556 346.506 833.937 346.004 833.418 345.335C832.916 344.665 832.664 343.895 832.664 343.025C832.664 342.02 832.941 341.142 833.493 340.388C834.062 339.618 834.924 338.882 836.079 338.179C834.64 337.593 833.468 336.606 832.564 335.216C831.677 333.81 831.233 332.178 831.233 330.32C831.233 328.345 831.643 326.663 832.464 325.274C833.284 323.868 834.472 322.797 836.029 322.06C837.586 321.324 839.469 320.955 841.678 320.955C842.163 320.955 842.649 320.98 843.134 321.031C843.636 321.064 844.113 321.123 844.565 321.206C845.017 321.273 845.411 321.357 845.745 321.457H855.186V324.144L850.114 324.772C850.616 325.424 851.035 326.211 851.369 327.132C851.704 328.052 851.872 329.073 851.872 330.195C851.872 332.94 850.943 335.124 849.085 336.748C847.227 338.355 844.674 339.158 841.427 339.158C840.657 339.158 839.87 339.091 839.067 338.957C838.247 339.409 837.619 339.911 837.184 340.464C836.765 341.016 836.556 341.652 836.556 342.372C836.556 342.908 836.715 343.334 837.033 343.652C837.368 343.97 837.845 344.205 838.464 344.355C839.084 344.489 839.828 344.556 840.699 344.556H845.545C848.541 344.556 850.834 345.184 852.424 346.439C854.031 347.695 854.834 349.528 854.834 351.938C854.834 354.984 853.596 357.319 851.118 358.943C848.641 360.566 845.059 361.378 840.372 361.378ZM840.498 358.114C842.774 358.114 844.657 357.88 846.147 357.411C847.654 356.959 848.775 356.298 849.512 355.428C850.265 354.574 850.641 353.553 850.641 352.365C850.641 351.26 850.39 350.423 849.888 349.854C849.386 349.302 848.65 348.933 847.679 348.749C846.708 348.548 845.519 348.448 844.113 348.448H839.343C838.104 348.448 837.025 348.64 836.104 349.025C835.184 349.41 834.472 349.979 833.97 350.733C833.485 351.486 833.242 352.423 833.242 353.545C833.242 355.034 833.87 356.164 835.125 356.934C836.38 357.721 838.171 358.114 840.498 358.114ZM841.578 336.12C843.569 336.12 845.068 335.618 846.072 334.614C847.076 333.609 847.578 332.145 847.578 330.22C847.578 328.161 847.068 326.621 846.047 325.6C845.026 324.562 843.519 324.044 841.527 324.044C839.619 324.044 838.146 324.579 837.108 325.65C836.087 326.705 835.577 328.253 835.577 330.295C835.577 332.17 836.096 333.609 837.134 334.614C838.171 335.618 839.653 336.12 841.578 336.12ZM880.981 349.528C877.5 349.528 874.738 348.339 872.696 345.962C870.671 343.585 869.658 340.054 869.658 335.367C869.658 330.63 870.696 327.056 872.771 324.646C874.847 322.219 877.609 321.006 881.057 321.006C882.513 321.006 883.785 321.198 884.873 321.583C885.961 321.968 886.898 322.487 887.685 323.14C888.472 323.776 889.133 324.504 889.669 325.324H889.97C889.903 324.805 889.836 324.094 889.769 323.19C889.702 322.286 889.669 321.55 889.669 320.98V309.958H893.836V349.025H890.472L889.844 345.109H889.669C889.15 345.929 888.489 346.674 887.685 347.343C886.898 348.013 885.953 348.548 884.848 348.95C883.76 349.335 882.471 349.528 880.981 349.528ZM881.634 346.063C884.58 346.063 886.664 345.226 887.886 343.552C889.108 341.878 889.719 339.393 889.719 336.095V335.342C889.719 331.844 889.133 329.157 887.961 327.282C886.806 325.408 884.697 324.47 881.634 324.47C879.073 324.47 877.157 325.458 875.885 327.433C874.612 329.391 873.976 332.07 873.976 335.467C873.976 338.849 874.604 341.46 875.859 343.301C877.132 345.142 879.057 346.063 881.634 346.063ZM925.012 335.216C925.012 337.476 924.719 339.493 924.134 341.267C923.548 343.041 922.702 344.54 921.598 345.761C920.493 346.983 919.154 347.921 917.581 348.573C916.024 349.21 914.258 349.528 912.283 349.528C910.442 349.528 908.751 349.21 907.211 348.573C905.688 347.921 904.366 346.983 903.244 345.761C902.139 344.54 901.277 343.041 900.658 341.267C900.056 339.493 899.754 337.476 899.754 335.216C899.754 332.203 900.265 329.642 901.286 327.533C902.307 325.408 903.763 323.792 905.655 322.688C907.563 321.566 909.831 321.006 912.459 321.006C914.969 321.006 917.162 321.566 919.037 322.688C920.928 323.809 922.393 325.433 923.431 327.559C924.485 329.668 925.012 332.22 925.012 335.216ZM904.073 335.216C904.073 337.426 904.366 339.342 904.952 340.966C905.537 342.59 906.441 343.845 907.663 344.732C908.885 345.619 910.458 346.063 912.383 346.063C914.291 346.063 915.857 345.619 917.078 344.732C918.317 343.845 919.229 342.59 919.815 340.966C920.401 339.342 920.694 337.426 920.694 335.216C920.694 333.024 920.401 331.132 919.815 329.542C919.229 327.935 918.325 326.697 917.104 325.826C915.882 324.956 914.3 324.521 912.358 324.521C909.496 324.521 907.395 325.466 906.056 327.358C904.734 329.249 904.073 331.869 904.073 335.216ZM953.226 348.975L948.33 332.957C948.112 332.27 947.903 331.601 947.702 330.948C947.518 330.279 947.342 329.642 947.175 329.04C947.024 328.421 946.882 327.851 946.748 327.333C946.631 326.797 946.53 326.337 946.447 325.952H946.271C946.204 326.337 946.112 326.797 945.995 327.333C945.878 327.851 945.735 328.421 945.568 329.04C945.417 329.659 945.25 330.312 945.066 330.998C944.882 331.668 944.672 332.346 944.438 333.032L939.316 348.975H934.621L927.039 321.457H931.357L935.324 336.647C935.592 337.652 935.843 338.648 936.077 339.635C936.328 340.606 936.538 341.527 936.705 342.397C936.889 343.251 937.023 343.996 937.107 344.632H937.308C937.408 344.213 937.517 343.711 937.634 343.125C937.768 342.539 937.91 341.92 938.061 341.267C938.228 340.598 938.404 339.937 938.588 339.284C938.772 338.614 938.956 337.986 939.14 337.401L944.212 321.457H948.706L953.602 337.376C953.853 338.179 954.096 339.016 954.33 339.886C954.581 340.757 954.807 341.602 955.008 342.422C955.209 343.226 955.351 343.945 955.435 344.581H955.636C955.703 344.012 955.828 343.309 956.013 342.472C956.197 341.635 956.406 340.715 956.64 339.711C956.891 338.706 957.151 337.685 957.419 336.647L961.436 321.457H965.679L958.071 348.975H953.226ZM982.343 321.006C985.607 321.006 988.076 321.809 989.75 323.416C991.423 325.006 992.26 327.567 992.26 331.099V349.025H988.143V331.375C988.143 329.082 987.615 327.366 986.561 326.228C985.523 325.09 983.925 324.521 981.765 324.521C978.719 324.521 976.577 325.383 975.338 327.107C974.099 328.831 973.48 331.333 973.48 334.614V349.025H969.312V321.508H972.677L973.304 325.475H973.53C974.116 324.504 974.861 323.692 975.765 323.039C976.669 322.37 977.681 321.868 978.803 321.533C979.924 321.181 981.104 321.006 982.343 321.006ZM1020.32 346.113C1021 346.113 1021.7 346.054 1022.42 345.937C1023.14 345.82 1023.73 345.678 1024.18 345.51V348.749C1023.7 348.967 1023.02 349.151 1022.15 349.302C1021.29 349.452 1020.46 349.528 1019.64 349.528C1018.18 349.528 1016.86 349.276 1015.67 348.774C1014.48 348.255 1013.53 347.385 1012.81 346.163C1012.11 344.941 1011.75 343.251 1011.75 341.091V324.772H1007.84V322.738L1011.78 321.106L1013.44 315.13H1015.95V321.508H1024.01V324.772H1015.95V340.966C1015.95 342.69 1016.34 343.979 1017.13 344.832C1017.93 345.686 1018.99 346.113 1020.32 346.113ZM1032.54 309.958V321.633C1032.54 322.303 1032.52 322.981 1032.49 323.667C1032.45 324.336 1032.39 324.956 1032.31 325.525H1032.59C1033.15 324.554 1033.87 323.742 1034.74 323.089C1035.63 322.42 1036.64 321.918 1037.76 321.583C1038.88 321.231 1040.07 321.056 1041.32 321.056C1043.53 321.056 1045.37 321.407 1046.85 322.11C1048.34 322.813 1049.45 323.901 1050.19 325.374C1050.94 326.847 1051.32 328.755 1051.32 331.099V349.025H1047.2V331.375C1047.2 329.082 1046.67 327.366 1045.62 326.228C1044.58 325.09 1042.98 324.521 1040.82 324.521C1038.78 324.521 1037.15 324.914 1035.92 325.701C1034.72 326.471 1033.85 327.609 1033.31 329.115C1032.79 330.622 1032.54 332.463 1032.54 334.639V349.025H1028.37V309.958H1032.54ZM1069.11 321.006C1071.45 321.006 1073.46 321.524 1075.14 322.562C1076.81 323.6 1078.09 325.056 1078.98 326.931C1079.86 328.789 1080.31 330.965 1080.31 333.459V336.045H1061.3C1061.35 339.275 1062.15 341.736 1063.71 343.426C1065.27 345.117 1067.46 345.962 1070.29 345.962C1072.03 345.962 1073.57 345.803 1074.91 345.485C1076.25 345.167 1077.64 344.699 1079.08 344.079V347.745C1077.69 348.364 1076.31 348.816 1074.93 349.101C1073.58 349.385 1071.97 349.528 1070.11 349.528C1067.47 349.528 1065.16 348.992 1063.18 347.921C1061.23 346.833 1059.7 345.243 1058.61 343.15C1057.53 341.058 1056.98 338.497 1056.98 335.467C1056.98 332.505 1057.48 329.944 1058.46 327.785C1059.47 325.609 1060.87 323.935 1062.68 322.763C1064.51 321.591 1066.65 321.006 1069.11 321.006ZM1069.06 324.42C1066.83 324.42 1065.06 325.148 1063.74 326.604C1062.41 328.061 1061.63 330.094 1061.38 332.706H1075.94C1075.92 331.065 1075.66 329.626 1075.16 328.387C1074.68 327.132 1073.93 326.161 1072.93 325.475C1071.92 324.772 1070.63 324.42 1069.06 324.42ZM1127.85 321.006C1130.88 321.006 1133.16 321.801 1134.7 323.391C1136.24 324.964 1137.01 327.5 1137.01 330.998V349.025H1132.89V331.199C1132.89 328.973 1132.41 327.307 1131.44 326.203C1130.48 325.081 1129.06 324.521 1127.17 324.521C1124.51 324.521 1122.57 325.291 1121.37 326.83C1120.16 328.37 1119.56 330.638 1119.56 333.635V349.025H1115.42V331.199C1115.42 329.709 1115.2 328.471 1114.76 327.483C1114.35 326.496 1113.71 325.759 1112.86 325.274C1112.02 324.772 1110.96 324.521 1109.67 324.521C1107.84 324.521 1106.38 324.897 1105.27 325.65C1104.17 326.404 1103.37 327.525 1102.86 329.015C1102.38 330.488 1102.14 332.304 1102.14 334.463V349.025H1097.97V321.508H1101.33L1101.96 325.399H1102.19C1102.74 324.445 1103.43 323.642 1104.27 322.989C1105.11 322.336 1106.04 321.842 1107.08 321.508C1108.12 321.173 1109.22 321.006 1110.4 321.006C1112.49 321.006 1114.24 321.399 1115.64 322.186C1117.07 322.956 1118.1 324.136 1118.73 325.726H1118.96C1119.86 324.136 1121.1 322.956 1122.67 322.186C1124.25 321.399 1125.97 321.006 1127.85 321.006ZM1148.35 321.508V349.025H1144.18V321.508H1148.35ZM1146.32 311.214C1147 311.214 1147.59 311.44 1148.08 311.892C1148.58 312.327 1148.83 313.013 1148.83 313.95C1148.83 314.871 1148.58 315.557 1148.08 316.009C1147.59 316.461 1147 316.687 1146.32 316.687C1145.6 316.687 1145 316.461 1144.51 316.009C1144.04 315.557 1143.81 314.871 1143.81 313.95C1143.81 313.013 1144.04 312.327 1144.51 311.892C1145 311.44 1145.6 311.214 1146.32 311.214ZM1168.83 321.006C1172.1 321.006 1174.56 321.809 1176.24 323.416C1177.91 325.006 1178.75 327.567 1178.75 331.099V349.025H1174.63V331.375C1174.63 329.082 1174.1 327.366 1173.05 326.228C1172.01 325.09 1170.41 324.521 1168.25 324.521C1165.21 324.521 1163.07 325.383 1161.83 327.107C1160.59 328.831 1159.97 331.333 1159.97 334.614V349.025H1155.8V321.508H1159.17L1159.79 325.475H1160.02C1160.6 324.504 1161.35 323.692 1162.25 323.039C1163.16 322.37 1164.17 321.868 1165.29 321.533C1166.41 321.181 1167.59 321.006 1168.83 321.006ZM1208.67 321.508V349.025H1205.25L1204.65 345.159H1204.43C1203.86 346.113 1203.12 346.916 1202.22 347.569C1201.31 348.222 1200.29 348.707 1199.15 349.025C1198.03 349.36 1196.84 349.528 1195.56 349.528C1193.39 349.528 1191.56 349.176 1190.09 348.473C1188.62 347.77 1187.5 346.682 1186.75 345.209C1186.01 343.736 1185.65 341.845 1185.65 339.535V321.508H1189.86V339.233C1189.86 341.527 1190.38 343.242 1191.42 344.381C1192.46 345.502 1194.04 346.063 1196.17 346.063C1198.21 346.063 1199.83 345.678 1201.04 344.908C1202.26 344.138 1203.14 343.008 1203.67 341.518C1204.21 340.012 1204.48 338.171 1204.48 335.995V321.508H1208.67ZM1233.9 341.493C1233.9 343.251 1233.45 344.732 1232.56 345.937C1231.69 347.126 1230.44 348.021 1228.8 348.624C1227.17 349.226 1225.23 349.528 1222.97 349.528C1221.05 349.528 1219.38 349.377 1217.98 349.076C1216.57 348.774 1215.34 348.347 1214.29 347.795V343.954C1215.41 344.506 1216.75 345.008 1218.3 345.46C1219.86 345.912 1221.45 346.138 1223.07 346.138C1225.45 346.138 1227.17 345.753 1228.25 344.983C1229.32 344.213 1229.85 343.167 1229.85 341.845C1229.85 341.091 1229.64 340.43 1229.2 339.861C1228.78 339.275 1228.07 338.715 1227.07 338.179C1226.06 337.627 1224.67 337.024 1222.9 336.371C1221.14 335.702 1219.62 335.041 1218.33 334.388C1217.06 333.718 1216.07 332.906 1215.37 331.952C1214.68 330.998 1214.34 329.76 1214.34 328.236C1214.34 325.91 1215.27 324.127 1217.15 322.889C1219.04 321.633 1221.52 321.006 1224.58 321.006C1226.24 321.006 1227.79 321.173 1229.23 321.508C1230.68 321.826 1232.04 322.261 1233.29 322.813L1231.89 326.153C1230.75 325.667 1229.53 325.257 1228.25 324.922C1226.96 324.588 1225.64 324.42 1224.3 324.42C1222.38 324.42 1220.9 324.738 1219.86 325.374C1218.84 326.01 1218.33 326.881 1218.33 327.985C1218.33 328.839 1218.56 329.542 1219.03 330.094C1219.52 330.647 1220.29 331.166 1221.34 331.651C1222.4 332.136 1223.79 332.706 1225.51 333.358C1227.23 333.994 1228.72 334.656 1229.98 335.342C1231.23 336.011 1232.2 336.832 1232.87 337.802C1233.55 338.756 1233.9 339.987 1233.9 341.493ZM1255.35 309.958V319.725C1255.35 320.846 1255.31 321.934 1255.25 322.989C1255.2 324.044 1255.15 324.864 1255.12 325.45H1255.35C1256.1 324.211 1257.19 323.165 1258.61 322.311C1260.03 321.457 1261.85 321.031 1264.06 321.031C1267.51 321.031 1270.25 322.227 1272.29 324.621C1274.35 326.998 1275.38 330.538 1275.38 335.241C1275.38 338.338 1274.91 340.949 1273.98 343.075C1273.04 345.201 1271.72 346.808 1270.01 347.896C1268.3 348.984 1266.29 349.528 1263.96 349.528C1261.78 349.528 1259.99 349.126 1258.59 348.322C1257.2 347.502 1256.13 346.506 1255.37 345.335H1255.05L1254.19 349.025H1251.18V309.958H1255.35ZM1263.38 324.521C1261.39 324.521 1259.81 324.914 1258.64 325.701C1257.46 326.471 1256.62 327.642 1256.1 329.216C1255.6 330.772 1255.35 332.747 1255.35 335.141V335.367C1255.35 338.832 1255.92 341.485 1257.08 343.326C1258.23 345.15 1260.34 346.063 1263.38 346.063C1265.94 346.063 1267.86 345.125 1269.13 343.251C1270.42 341.376 1271.06 338.698 1271.06 335.216C1271.06 331.668 1270.43 328.998 1269.16 327.207C1267.9 325.416 1265.98 324.521 1263.38 324.521ZM1304 321.508V349.025H1300.58L1299.98 345.159H1299.75C1299.19 346.113 1298.45 346.916 1297.55 347.569C1296.64 348.222 1295.62 348.707 1294.48 349.025C1293.36 349.36 1292.16 349.528 1290.89 349.528C1288.72 349.528 1286.89 349.176 1285.42 348.473C1283.95 347.77 1282.83 346.682 1282.08 345.209C1281.34 343.736 1280.97 341.845 1280.97 339.535V321.508H1285.19V339.233C1285.19 341.527 1285.71 343.242 1286.75 344.381C1287.79 345.502 1289.37 346.063 1291.49 346.063C1293.54 346.063 1295.16 345.678 1296.37 344.908C1297.59 344.138 1298.47 343.008 1299 341.518C1299.54 340.012 1299.8 338.171 1299.8 335.995V321.508H1304ZM1320.31 346.113C1321 346.113 1321.7 346.054 1322.42 345.937C1323.14 345.82 1323.72 345.678 1324.18 345.51V348.749C1323.69 348.967 1323.01 349.151 1322.14 349.302C1321.29 349.452 1320.45 349.528 1319.63 349.528C1318.18 349.528 1316.85 349.276 1315.67 348.774C1314.48 348.255 1313.52 347.385 1312.8 346.163C1312.1 344.941 1311.75 343.251 1311.75 341.091V324.772H1307.83V322.738L1311.77 321.106L1313.43 315.13H1315.94V321.508H1324V324.772H1315.94V340.966C1315.94 342.69 1316.33 343.979 1317.12 344.832C1317.93 345.686 1318.99 346.113 1320.31 346.113ZM1337.25 346.113C1337.94 346.113 1338.64 346.054 1339.36 345.937C1340.08 345.82 1340.67 345.678 1341.12 345.51V348.749C1340.63 348.967 1339.95 349.151 1339.08 349.302C1338.23 349.452 1337.39 349.528 1336.57 349.528C1335.12 349.528 1333.79 349.276 1332.61 348.774C1331.42 348.255 1330.46 347.385 1329.74 346.163C1329.04 344.941 1328.69 343.251 1328.69 341.091V324.772H1324.77V322.738L1328.71 321.106L1330.37 315.13H1332.88V321.508H1340.94V324.772H1332.88V340.966C1332.88 342.69 1333.28 343.979 1334.06 344.832C1334.87 345.686 1335.93 346.113 1337.25 346.113ZM1369.03 335.216C1369.03 337.476 1368.74 339.493 1368.15 341.267C1367.56 343.041 1366.72 344.54 1365.61 345.761C1364.51 346.983 1363.17 347.921 1361.6 348.573C1360.04 349.21 1358.27 349.528 1356.3 349.528C1354.46 349.528 1352.77 349.21 1351.23 348.573C1349.7 347.921 1348.38 346.983 1347.26 345.761C1346.16 344.54 1345.29 343.041 1344.67 341.267C1344.07 339.493 1343.77 337.476 1343.77 335.216C1343.77 332.203 1344.28 329.642 1345.3 327.533C1346.32 325.408 1347.78 323.792 1349.67 322.688C1351.58 321.566 1353.85 321.006 1356.48 321.006C1358.99 321.006 1361.18 321.566 1363.05 322.688C1364.94 323.809 1366.41 325.433 1367.45 327.559C1368.5 329.668 1369.03 332.22 1369.03 335.216ZM1348.09 335.216C1348.09 337.426 1348.38 339.342 1348.97 340.966C1349.55 342.59 1350.46 343.845 1351.68 344.732C1352.9 345.619 1354.47 346.063 1356.4 346.063C1358.31 346.063 1359.87 345.619 1361.09 344.732C1362.33 343.845 1363.25 342.59 1363.83 340.966C1364.42 339.342 1364.71 337.426 1364.71 335.216C1364.71 333.024 1364.42 331.132 1363.83 329.542C1363.25 327.935 1362.34 326.697 1361.12 325.826C1359.9 324.956 1358.32 324.521 1356.37 324.521C1353.51 324.521 1351.41 325.466 1350.07 327.358C1348.75 329.249 1348.09 331.869 1348.09 335.216ZM1387.88 321.006C1391.14 321.006 1393.61 321.809 1395.28 323.416C1396.96 325.006 1397.79 327.567 1397.79 331.099V349.025H1393.68V331.375C1393.68 329.082 1393.15 327.366 1392.1 326.228C1391.06 325.09 1389.46 324.521 1387.3 324.521C1384.25 324.521 1382.11 325.383 1380.87 327.107C1379.63 328.831 1379.01 331.333 1379.01 334.614V349.025H1374.85V321.508H1378.21L1378.84 325.475H1379.06C1379.65 324.504 1380.39 323.692 1381.3 323.039C1382.2 322.37 1383.22 321.868 1384.34 321.533C1385.46 321.181 1386.64 321.006 1387.88 321.006ZM1404.37 346.414C1404.37 345.243 1404.65 344.414 1405.22 343.929C1405.79 343.426 1406.48 343.175 1407.3 343.175C1408.16 343.175 1408.88 343.426 1409.46 343.929C1410.05 344.414 1410.34 345.243 1410.34 346.414C1410.34 347.569 1410.05 348.414 1409.46 348.95C1408.88 349.469 1408.16 349.728 1407.3 349.728C1406.48 349.728 1405.79 349.469 1405.22 348.95C1404.65 348.414 1404.37 347.569 1404.37 346.414Z" fill="#8C8C8C"/>
</g>
<defs>
<filter id="filter0_d_971_177" x="793.35" y="108.107" width="170.677" height="143.155" filterUnits="userSpaceOnUse" color-interpolation-filters="sRGB">
<feFlood flood-opacity="0" result="BackgroundImageFix"/>
<feColorMatrix in="SourceAlpha" type="matrix" values="0 0 0 0 0 0 0 0 0 0 0 0 0 0 0 0 0 0 127 0" result="hardAlpha"/>
<feOffset dy="1.27013"/>
<feGaussianBlur stdDeviation="13.9714"/>
<feComposite in2="hardAlpha" operator="out"/>
<feColorMatrix type="matrix" values="0 0 0 0 0 0 0 0 0 0 0 0 0 0 0 0 0 0 1 0"/>
<feBlend mode="normal" in2="BackgroundImageFix" result="effect1_dropShadow_971_177"/>
<feBlend mode="normal" in="SourceGraphic" in2="effect1_dropShadow_971_177" result="shape"/>
</filter>
</defs>
</svg>
