<svg width="1548" height="450" viewBox="0 0 1548 450" fill="none" xmlns="http://www.w3.org/2000/svg">
<mask id="mask0_971_176" style="mask-type:alpha" maskUnits="userSpaceOnUse" x="0" y="0" width="1548" height="450">
<rect x="0.972961" y="0.837891" width="1546.98" height="449.018" fill="white"/>
</mask>
<g mask="url(#mask0_971_176)">
<path d="M48.4182 65.351C48.4182 67.527 47.8825 69.4017 46.8113 70.9751C45.7568 72.5485 44.2336 73.7536 42.2417 74.5905C40.2666 75.4274 37.9065 75.8459 35.1614 75.8459C33.8224 75.8459 32.5419 75.7706 31.32 75.6199C30.0981 75.4693 28.9432 75.2517 27.8552 74.9671C26.7839 74.6658 25.8047 74.306 24.9176 73.8875V68.2132C26.4073 68.866 28.0728 69.4602 29.914 69.9959C31.7552 70.5148 33.6299 70.7742 35.538 70.7742C37.0947 70.7742 38.3836 70.5733 39.4046 70.1716C40.4424 69.7532 41.2123 69.1673 41.7145 68.4141C42.2166 67.6441 42.4677 66.7486 42.4677 65.7276C42.4677 64.6396 42.1748 63.719 41.5889 62.9658C41.0031 62.2126 40.116 61.5263 38.9276 60.907C37.7559 60.2709 36.2829 59.593 34.5086 58.8733C33.3035 58.3879 32.1485 57.8355 31.0438 57.2162C29.9558 56.5969 28.985 55.8688 28.1314 55.0318C27.2777 54.1949 26.5998 53.2074 26.0977 52.0692C25.6122 50.9142 25.3695 49.5584 25.3695 48.0018C25.3695 45.9262 25.8633 44.152 26.8509 42.679C27.8552 41.206 29.2612 40.0762 31.0689 39.2895C32.8934 38.5028 35.0192 38.1094 37.4462 38.1094C39.3711 38.1094 41.1788 38.3103 42.8694 38.712C44.5767 39.1137 46.2505 39.6828 47.8909 40.4193L45.9827 45.2651C44.4763 44.6457 43.0117 44.152 41.5889 43.7837C40.1829 43.4155 38.7434 43.2314 37.2705 43.2314C35.9984 43.2314 34.9187 43.4238 34.0316 43.8088C33.1445 44.1938 32.4666 44.7378 31.9979 45.4408C31.546 46.1271 31.32 46.9473 31.32 47.9013C31.32 48.9726 31.5794 49.8765 32.0983 50.6129C32.634 51.3327 33.4541 51.9938 34.5589 52.5964C35.6803 53.199 37.1198 53.8685 38.8773 54.605C40.9027 55.4419 42.6183 56.3207 44.0244 57.2413C45.4471 58.1619 46.5351 59.2666 47.2883 60.5555C48.0415 61.8276 48.4182 63.4261 48.4182 65.351ZM63.8518 71.0755C64.6217 71.0755 65.3833 71.0085 66.1366 70.8746C66.8898 70.724 67.5761 70.5482 68.1954 70.3474V74.8165C67.5426 75.101 66.6973 75.3438 65.6595 75.5446C64.6217 75.7455 63.5421 75.8459 62.4207 75.8459C60.8473 75.8459 59.4329 75.5865 58.1775 75.0676C56.9221 74.5319 55.9262 73.6197 55.1897 72.3309C54.4532 71.042 54.085 69.2594 54.085 66.983V52.0441H50.2938V49.4078L54.3612 47.3239L56.2945 41.3734H60.0104V47.5498H67.9694V52.0441H60.0104V66.9077C60.0104 68.3137 60.3619 69.3598 61.0649 70.0461C61.7679 70.7324 62.6968 71.0755 63.8518 71.0755ZM83.5286 47.0226C86.0058 47.0226 88.1316 47.5331 89.9059 48.5541C91.6801 49.5752 93.0443 51.023 93.9984 52.8977C94.9525 54.7724 95.4295 57.0153 95.4295 59.6265V62.79H76.8751C76.9421 65.4849 77.6618 67.5604 79.0343 69.0167C80.4236 70.4729 82.3653 71.201 84.8593 71.201C86.6335 71.201 88.2237 71.0336 89.6297 70.6989C91.0524 70.3474 92.517 69.8369 94.0235 69.1673V73.9628C92.6342 74.6156 91.2198 75.0927 89.7803 75.394C88.3408 75.6953 86.6168 75.8459 84.6082 75.8459C81.8799 75.8459 79.4779 75.3186 77.4024 74.2641C75.3436 73.1929 73.7283 71.6027 72.5566 69.4937C71.4017 67.3847 70.8242 64.7652 70.8242 61.6351C70.8242 58.5218 71.3515 55.8771 72.406 53.7012C73.4605 51.5252 74.9418 49.8681 76.85 48.7299C78.7582 47.5917 80.9844 47.0226 83.5286 47.0226ZM83.5286 51.4666C81.6706 51.4666 80.1642 52.0692 79.0092 53.2743C77.871 54.4795 77.2015 56.2454 77.0006 58.572H89.6548C89.638 57.1827 89.4037 55.9525 88.9518 54.8812C88.5166 53.81 87.8471 52.973 86.9432 52.3705C86.0561 51.7679 84.9179 51.4666 83.5286 51.4666ZM114.956 47.0226C118.253 47.0226 120.898 48.2277 122.89 50.638C124.898 53.0484 125.902 56.6304 125.902 61.384C125.902 64.5308 125.434 67.1838 124.496 69.3431C123.576 71.4856 122.279 73.1092 120.605 74.2139C118.948 75.3019 117.014 75.8459 114.805 75.8459C113.399 75.8459 112.177 75.6618 111.139 75.2935C110.102 74.9253 109.214 74.4483 108.478 73.8624C107.741 73.2598 107.122 72.607 106.62 71.904H106.268C106.352 72.5736 106.427 73.3184 106.494 74.1386C106.578 74.942 106.62 75.6785 106.62 76.348V87.6715H100.695V47.5498H105.515L106.344 51.3913H106.62C107.139 50.6046 107.767 49.8765 108.503 49.2069C109.256 48.5374 110.16 48.0101 111.215 47.6252C112.286 47.2234 113.533 47.0226 114.956 47.0226ZM113.374 51.8432C111.75 51.8432 110.445 52.1696 109.457 52.8224C108.486 53.4584 107.775 54.4209 107.323 55.7097C106.888 56.9986 106.653 58.6138 106.62 60.5555V61.384C106.62 63.4428 106.829 65.192 107.248 66.6315C107.683 68.0542 108.394 69.1422 109.382 69.8954C110.386 70.6319 111.742 71.0002 113.449 71.0002C114.889 71.0002 116.077 70.6068 117.014 69.8201C117.969 69.0334 118.68 67.912 119.149 66.4557C119.617 64.9995 119.852 63.2838 119.852 61.3087C119.852 58.3125 119.316 55.9859 118.245 54.3288C117.19 52.6717 115.567 51.8432 113.374 51.8432ZM158.753 75.3438H152.828V51.7177C152.828 50.931 152.836 50.1443 152.853 49.3576C152.87 48.5709 152.886 47.8009 152.903 47.0477C152.937 46.2945 152.979 45.5747 153.029 44.8884C152.677 45.2734 152.242 45.6919 151.723 46.1438C151.221 46.5958 150.685 47.0644 150.116 47.5498L145.898 50.9142L142.936 47.1732L153.832 38.6367H158.753V75.3438Z" fill="#8C8C8C"/>
<path d="M613.171 185.022L611.673 175.794C611.673 175.794 611.515 174.234 612.58 173.494C613.644 172.754 615.745 172.773 615.745 172.773L657.302 172.826C657.302 172.826 654.781 177.564 653.907 180.939C653.027 184.34 652.877 189.997 652.877 189.997L652.806 244.923C652.806 244.923 652.942 250.581 653.814 253.984C654.679 257.362 657.187 262.106 657.187 262.106L615.63 262.052C615.63 262.052 613.529 262.066 612.467 261.323C611.405 260.58 611.566 259.021 611.566 259.021L613.088 249.797C613.088 249.797 613.628 246.183 615.201 244.815C616.723 243.492 618.414 242.726 619.835 242.279C620.765 241.987 622.129 241.814 623.763 241.607C628.648 240.987 635.95 240.06 641.305 234.732C645.666 230.393 647.655 226.965 647.683 217.454C647.68 207.942 645.699 204.51 641.349 200.159C636.008 194.817 628.709 193.872 623.825 193.239C622.191 193.028 620.828 192.851 619.899 192.557C618.479 192.107 616.79 191.336 615.271 190.009C613.702 188.637 613.171 185.022 613.171 185.022Z" stroke="#8C8C8C" stroke-width="5.71645"/>
<path d="M652.796 191.462L652.729 243.458C652.729 243.458 652.719 251.546 655.056 257.185C656.411 260.456 659.146 262.892 661.168 263.885C662.361 264.471 663.344 264.172 664.262 263.894C664.753 263.746 665.224 263.603 665.699 263.603L847.644 263.836C847.644 263.836 849.225 263.963 850.307 263.148C851.739 262.069 851.548 260.274 851.548 260.274L851.657 175.156C851.657 175.156 851.853 173.361 850.423 172.279C849.344 171.461 847.762 171.584 847.762 171.584L665.817 171.351C665.343 171.35 664.871 171.206 664.381 171.056C663.464 170.775 662.481 170.475 661.287 171.057C659.263 172.045 656.521 174.474 655.157 177.741C652.806 183.374 652.796 191.462 652.796 191.462Z" stroke="#8C8C8C" stroke-width="5.71645"/>
<path d="M570.448 202.034L582.365 188.286C582.365 188.286 578.583 201.721 578.469 217.209C578.355 232.698 582.311 246.087 582.311 246.087L570.408 233.418C570.408 233.418 566.695 226.481 566.801 217.517C566.907 208.552 570.448 202.034 570.448 202.034Z" stroke="#8C8C8C" stroke-width="5.71645"/>
<path d="M582.369 188.29C582.369 188.29 585.387 184.373 588.073 183.323C590.936 182.204 590.978 183.952 592.26 184.166C595.424 184.695 598.057 185.001 598.057 185.001C598.057 185.001 593.445 199.403 593.421 217.798C593.398 236.193 597.479 250.383 597.479 250.383C597.479 250.383 595.643 249.981 593.38 250.378C591.43 250.719 592.696 252.818 587.51 251.201C584.788 250.352 582.295 246.091 582.295 246.091C582.295 246.091 578.398 232.259 578.417 217.779C578.437 201.86 582.369 188.29 582.369 188.29Z" stroke="#8C8C8C" stroke-width="5.71645"/>
<path d="M567.285 233.436C567.285 233.436 565.157 230.991 564.323 230.395C562.95 229.414 561.916 228.917 560.55 228.915L522.886 228.867C520.924 228.864 519.389 229.757 518.497 230.6C517.896 231.168 517.941 231.665 517.024 232.617C516.114 233.472 515.474 233.393 515.148 233.393C515.148 233.393 508.121 233.714 508.142 217.39C508.165 200.266 515.394 201.9 515.394 201.9C515.394 201.9 515.906 201.952 516.766 202.742C517.381 203.308 518.001 204.611 518.587 205.092C520.044 206.29 522.914 206.357 522.914 206.357L560.579 206.405C561.98 206.407 563.217 205.655 564.631 204.674C565.838 203.837 567.306 202.031 567.306 202.031C567.306 202.031 563.615 206.409 563.6 217.891C563.586 228.311 567.285 233.436 567.285 233.436Z" stroke="#8C8C8C" stroke-width="5.71645"/>
<path d="M570.445 202.034L567.295 202.03C567.295 202.03 563.518 206.028 563.503 217.722C563.488 229.417 567.255 233.424 567.255 233.424L570.405 233.428C570.405 233.428 566.802 226.569 566.813 217.727C566.825 208.884 570.445 202.034 570.445 202.034Z" stroke="#8C8C8C" stroke-width="5.71645"/>
<path d="M336.217 205.179C336.217 205.179 333.746 210.651 333.738 216.906C333.73 223.161 335.689 230.052 335.689 230.052C336.787 232.654 339.432 234.123 341.846 234.127C341.846 234.127 511.04 235.095 513.17 235.098C515.634 235.238 518.102 232.99 518.255 230.821C516.551 233.538 515.835 233.536 514.451 233.293C511.687 232.807 508.183 227.875 508.196 217.888C508.212 205.956 512.34 202.274 514.292 201.936C515.676 201.696 516.592 202.158 518.289 204.879C518.141 202.71 515.678 200.456 513.215 200.59C511.085 200.587 341.888 201.121 341.888 201.121C339.475 201.118 337.322 202.58 336.217 205.179Z" stroke="#8C8C8C" stroke-width="5.71645"/>
<path d="M306.184 210.162L336.23 205.178C336.23 205.178 333.854 210.216 333.778 216.688C333.703 223.161 335.694 230.052 335.694 230.052L304.526 223.934C303.63 222.96 302.058 220.634 302.116 217.64C302.067 213.889 304.502 211.374 306.184 210.162Z" stroke="#8C8C8C" stroke-width="5.71645"/>
<path d="M306.2 210.164L283.38 213.843C282.449 214.068 280.289 215.074 280.395 217.139C280.502 219.205 281.748 220.051 283.411 220.479L304.585 223.948C304.585 223.948 302.125 221.732 302.131 217.419C302.137 212.761 306.2 210.164 306.2 210.164Z" stroke="#8C8C8C" stroke-width="5.71645"/>
<path d="M638.271 217.138C638.265 221.877 634.419 225.714 629.682 225.708C624.944 225.701 621.108 221.855 621.114 217.116C621.12 212.377 624.966 208.541 629.704 208.547C634.441 208.553 638.277 212.399 638.271 217.138Z" stroke="#8C8C8C" stroke-width="5.71645"/>
<path d="M628.907 212.234C629.175 211.503 630.209 211.503 630.478 212.234L631.448 214.874C631.533 215.105 631.714 215.286 631.945 215.371L634.585 216.341C635.316 216.61 635.316 217.643 634.585 217.912L631.945 218.882C631.714 218.967 631.533 219.148 631.448 219.379L630.478 222.02C630.209 222.75 629.175 222.75 628.907 222.02L627.937 219.379C627.852 219.148 627.67 218.967 627.44 218.882L624.799 217.912C624.069 217.643 624.069 216.61 624.799 216.341L627.44 215.371C627.67 215.286 627.852 215.105 627.937 214.874L628.907 212.234Z" fill="#8C8C8C"/>
<path d="M612.042 176.975L604.733 176.966C600.163 176.96 597.621 187.596 595.853 194.369C593.475 203.477 593.45 215.551 593.458 217.217C593.445 218.9 593.522 232.167 595.113 239.799C596.593 246.9 600.059 257.827 604.629 257.833L611.866 257.842C612.034 257.12 612.203 256.224 612.324 255.072C613.124 251.345 613.197 246.372 616.014 244.367C617.751 243.13 621.228 242.267 624.4 241.805C629.435 241.072 635.4 240.188 640.685 235.482C645.522 231.062 647.968 227.551 647.92 217.256C647.933 207.545 645.456 203.577 640.66 199.215C635.387 194.542 629.333 193.895 624.299 193.157C621.129 192.691 617.782 191.651 616.049 190.422C613.825 188.846 613.117 182.937 612.531 179.932C612.328 178.89 612.126 177.674 612.042 176.975Z" stroke="#8C8C8C" stroke-width="5.71645"/>
<path d="M1268.04 238.042C1267.74 244.256 1266.95 248.8 1265.54 253.81C1264.12 258.82 1262.13 261.15 1258.3 261.145L853.469 260.626C853.469 260.626 852.625 260.625 852.072 259.956C851.558 259.334 851.558 258.764 851.558 258.764L851.664 176.668C851.664 176.668 851.664 176.098 852.18 175.478C852.735 174.81 853.579 174.811 853.579 174.811L1258.41 175.33C1262.24 175.335 1264.23 177.67 1265.63 182.684C1267.03 187.697 1267.8 192.244 1268.09 198.458C1268.22 205.045 1268.59 211.664 1268.53 218.251C1268.57 224.837 1268.18 231.455 1268.04 238.042Z" stroke="#8C8C8C" stroke-width="5.71645"/>
<path d="M882.819 217.756C882.81 224.237 877.551 229.483 871.073 229.474C864.595 229.466 859.349 224.207 859.357 217.726C859.366 211.245 864.625 205.999 871.103 206.008C877.581 206.016 882.827 211.276 882.819 217.756Z" stroke="#8C8C8C" stroke-width="5.71645"/>
<rect x="1150.39" y="212.15" width="2.70866" height="11.8976" transform="rotate(0.0734624 1150.39 212.15)" fill="white"/>
<path fill-rule="evenodd" clip-rule="evenodd" d="M897.135 211.826L894.426 211.822L894.42 216.417L889.827 216.411L889.823 219.12L894.417 219.126L894.411 223.72L897.119 223.723L897.125 219.129L901.719 219.135L901.723 216.426L897.129 216.42L897.135 211.826Z" fill="white"/>
<rect x="909.235" y="190.756" width="233.7" height="54.0663" rx="27.0332" transform="rotate(0.0734624 909.235 190.756)" stroke="#8C8C8C" stroke-width="5.71645"/>
<rect x="955.229" y="201.62" width="121.609" height="32.4611" transform="rotate(0.0734624 955.229 201.62)" stroke="#8C8C8C" stroke-width="5.71645"/>
<path d="M1182.27 218.138C1182.27 222.877 1178.42 226.714 1173.68 226.708C1168.94 226.701 1165.11 222.855 1165.11 218.116C1165.12 213.377 1168.97 209.541 1173.7 209.547C1178.44 209.553 1182.28 213.399 1182.27 218.138Z" stroke="#8C8C8C" stroke-width="5.71645"/>
<path d="M1172.91 213.234C1173.18 212.503 1174.21 212.503 1174.48 213.234L1175.45 215.874C1175.53 216.105 1175.71 216.286 1175.94 216.371L1178.59 217.341C1179.32 217.61 1179.32 218.643 1178.59 218.912L1175.94 219.882C1175.71 219.967 1175.53 220.148 1175.45 220.379L1174.48 223.02C1174.21 223.75 1173.18 223.75 1172.91 223.02L1171.94 220.379C1171.85 220.148 1171.67 219.967 1171.44 219.882L1168.8 218.912C1168.07 218.643 1168.07 217.61 1168.8 217.341L1171.44 216.371C1171.67 216.286 1171.85 216.105 1171.94 215.874L1172.91 213.234Z" fill="#8C8C8C"/>
<path d="M1125.05 218.067C1125.05 224.547 1119.79 229.793 1113.31 229.785C1106.83 229.777 1101.58 224.517 1101.59 218.037C1101.6 211.556 1106.86 206.31 1113.34 206.318C1119.82 206.327 1125.06 211.586 1125.05 218.067Z" stroke="#8C8C8C" stroke-width="5.71645"/>
<g filter="url(#filter0_d_971_176)">
<path d="M1113.42 219.582L1096.92 191H1129.92L1113.42 219.582ZM1113.42 147.262V144.403H1116.28V147.262H1113.42ZM1017.97 147.262V150.12H1015.11V147.262H1017.97ZM1110.56 193.858V147.262H1116.28V193.858H1110.56ZM1113.42 150.12H1017.97V144.403H1113.42V150.12ZM1015.11 147.262V132.299H1020.83V147.262H1015.11Z" fill="#8C8C8C"/>
</g>
<path d="M850.484 110.344L839.914 79.6876H839.688C839.738 80.3739 839.797 81.3112 839.864 82.4996C839.931 83.688 839.989 84.9601 840.04 86.3159C840.09 87.6717 840.115 88.969 840.115 90.2076V110.344H834.641V73.6367H843.103L853.271 102.937H853.422L863.942 73.6367H872.378V110.344H866.628V89.9063C866.628 88.7848 866.645 87.5713 866.679 86.2657C866.729 84.9601 866.779 83.7215 866.829 82.5498C866.896 81.3782 866.946 80.4408 866.98 79.7378H866.779L855.807 110.344H850.484ZM885.954 82.5498V110.344H880.053V82.5498H885.954ZM883.041 71.9043C883.945 71.9043 884.723 72.147 885.376 72.6324C886.046 73.1178 886.38 73.9547 886.38 75.1431C886.38 76.3148 886.046 77.1517 885.376 77.6539C884.723 78.1393 883.945 78.382 883.041 78.382C882.104 78.382 881.309 78.1393 880.656 77.6539C880.02 77.1517 879.702 76.3148 879.702 75.1431C879.702 73.9547 880.02 73.1178 880.656 72.6324C881.309 72.147 882.104 71.9043 883.041 71.9043ZM907.513 82.0226C910.644 82.0226 913.079 82.8344 914.82 84.458C916.577 86.0649 917.456 88.6509 917.456 92.2162V110.344H911.556V93.3209C911.556 91.1617 911.112 89.5464 910.225 88.4752C909.338 87.3872 907.965 86.8432 906.107 86.8432C903.413 86.8432 901.538 87.6717 900.483 89.3288C899.446 90.9859 898.927 93.3879 898.927 96.5347V110.344H893.026V82.5498H897.621L898.45 86.3159H898.776C899.379 85.3451 900.124 84.5501 901.011 83.9307C901.915 83.2947 902.919 82.8176 904.024 82.4996C905.145 82.1816 906.308 82.0226 907.513 82.0226ZM948.557 82.5498V110.344H943.912L943.108 106.603H942.782C942.196 107.557 941.451 108.352 940.547 108.988C939.644 109.607 938.639 110.068 937.535 110.369C936.43 110.687 935.266 110.846 934.045 110.846C931.952 110.846 930.161 110.494 928.672 109.791C927.199 109.072 926.069 107.967 925.282 106.477C924.495 104.988 924.102 103.063 924.102 100.703V82.5498H930.027V99.5978C930.027 101.757 930.463 103.372 931.333 104.444C932.22 105.515 933.593 106.05 935.451 106.05C937.242 106.05 938.664 105.682 939.719 104.946C940.773 104.209 941.518 103.121 941.953 101.682C942.405 100.242 942.631 98.4763 942.631 96.384V82.5498H948.557ZM974.309 102.41C974.309 104.234 973.866 105.774 972.979 107.03C972.092 108.285 970.794 109.239 969.087 109.892C967.397 110.528 965.321 110.846 962.86 110.846C960.919 110.846 959.245 110.704 957.839 110.419C956.45 110.151 955.136 109.733 953.897 109.164V104.067C955.219 104.686 956.701 105.222 958.341 105.674C959.998 106.126 961.563 106.352 963.036 106.352C964.978 106.352 966.375 106.05 967.229 105.448C968.083 104.828 968.51 104.008 968.51 102.987C968.51 102.385 968.334 101.849 967.982 101.38C967.648 100.895 967.012 100.401 966.074 99.8991C965.154 99.3802 963.798 98.7609 962.007 98.0411C960.249 97.3381 958.768 96.6351 957.563 95.9321C956.358 95.2291 955.445 94.3838 954.826 93.3962C954.207 92.3919 953.897 91.1115 953.897 89.5548C953.897 87.0943 954.868 85.228 956.81 83.9559C958.768 82.667 961.354 82.0226 964.568 82.0226C966.275 82.0226 967.882 82.1983 969.388 82.5498C970.912 82.8846 972.401 83.3784 973.858 84.0312L972 88.4752C970.744 87.9228 969.48 87.4709 968.208 87.1194C966.953 86.7511 965.672 86.567 964.367 86.567C962.844 86.567 961.68 86.8014 960.877 87.27C960.09 87.7387 959.697 88.4082 959.697 89.2786C959.697 89.9314 959.889 90.4838 960.274 90.9357C960.659 91.3876 961.321 91.8396 962.258 92.2915C963.212 92.7434 964.534 93.3042 966.225 93.9737C967.882 94.6098 969.313 95.2793 970.518 95.9823C971.74 96.6686 972.677 97.5139 973.33 98.5182C973.983 99.5225 974.309 100.82 974.309 102.41ZM997.167 71.2766V80.6919C997.167 81.7799 997.134 82.8511 997.067 83.9056C997.017 84.9434 996.967 85.7552 996.916 86.3411H997.167C997.921 85.1359 998.967 84.1232 1000.31 83.3031C1001.66 82.4661 1003.39 82.0477 1005.5 82.0477C1008.8 82.0477 1011.45 83.2612 1013.46 85.6883C1015.47 88.0986 1016.48 91.6722 1016.48 96.4091C1016.48 99.5559 1016.01 102.201 1015.09 104.343C1014.17 106.486 1012.88 108.109 1011.2 109.214C1009.55 110.302 1007.6 110.846 1005.35 110.846C1003.24 110.846 1001.54 110.461 1000.23 109.691C998.942 108.904 997.929 107.992 997.193 106.954H996.766L995.686 110.344H991.267V71.2766H997.167ZM1003.95 86.8432C1002.27 86.8432 1000.94 87.178 999.954 87.8475C998.984 88.517 998.281 89.5213 997.845 90.8604C997.41 92.1827 997.184 93.8649 997.167 95.907V96.4342C997.167 99.5308 997.653 101.899 998.624 103.54C999.611 105.18 1001.4 106 1004 106C1006.06 106 1007.64 105.172 1008.74 103.515C1009.85 101.841 1010.4 99.4471 1010.4 96.3338C1010.4 93.187 1009.85 90.8185 1008.74 89.2284C1007.65 87.6383 1006.06 86.8432 1003.95 86.8432ZM1046.14 82.5498V110.344H1041.5L1040.7 106.603H1040.37C1039.78 107.557 1039.04 108.352 1038.14 108.988C1037.23 109.607 1036.23 110.068 1035.12 110.369C1034.02 110.687 1032.85 110.846 1031.63 110.846C1029.54 110.846 1027.75 110.494 1026.26 109.791C1024.79 109.072 1023.66 107.967 1022.87 106.477C1022.08 104.988 1021.69 103.063 1021.69 100.703V82.5498H1027.62V99.5978C1027.62 101.757 1028.05 103.372 1028.92 104.444C1029.81 105.515 1031.18 106.05 1033.04 106.05C1034.83 106.05 1036.25 105.682 1037.31 104.946C1038.36 104.209 1039.11 103.121 1039.54 101.682C1039.99 100.242 1040.22 98.4763 1040.22 96.384V82.5498H1046.14ZM1063.56 106.075C1064.33 106.075 1065.09 106.009 1065.85 105.875C1066.6 105.724 1067.29 105.548 1067.91 105.347V109.816C1067.25 110.101 1066.41 110.344 1065.37 110.545C1064.33 110.745 1063.25 110.846 1062.13 110.846C1060.56 110.846 1059.14 110.586 1057.89 110.068C1056.63 109.532 1055.64 108.62 1054.9 107.331C1054.16 106.042 1053.79 104.259 1053.79 101.983V87.0441H1050V84.4078L1054.07 82.3239L1056 76.3734H1059.72V82.5498H1067.68V87.0441H1059.72V101.908C1059.72 103.314 1060.07 104.36 1060.77 105.046C1061.48 105.732 1062.41 106.075 1063.56 106.075ZM1082.51 106.075C1083.28 106.075 1084.04 106.009 1084.8 105.875C1085.55 105.724 1086.23 105.548 1086.85 105.347V109.816C1086.2 110.101 1085.36 110.344 1084.32 110.545C1083.28 110.745 1082.2 110.846 1081.08 110.846C1079.51 110.846 1078.09 110.586 1076.84 110.068C1075.58 109.532 1074.58 108.62 1073.85 107.331C1073.11 106.042 1072.74 104.259 1072.74 101.983V87.0441H1068.95V84.4078L1073.02 82.3239L1074.95 76.3734H1078.67V82.5498H1086.63V87.0441H1078.67V101.908C1078.67 103.314 1079.02 104.36 1079.72 105.046C1080.43 105.732 1081.36 106.075 1082.51 106.075ZM1115.72 96.384C1115.72 98.6939 1115.42 100.744 1114.82 102.535C1114.21 104.326 1113.33 105.841 1112.18 107.08C1111.02 108.302 1109.64 109.239 1108.01 109.892C1106.39 110.528 1104.56 110.846 1102.51 110.846C1100.61 110.846 1098.86 110.528 1097.27 109.892C1095.68 109.239 1094.3 108.302 1093.12 107.08C1091.97 105.841 1091.07 104.326 1090.44 102.535C1089.8 100.744 1089.48 98.6939 1089.48 96.384C1089.48 93.3209 1090.01 90.7265 1091.06 88.6007C1092.14 86.4582 1093.66 84.8262 1095.63 83.7048C1097.61 82.5833 1099.96 82.0226 1102.69 82.0226C1105.25 82.0226 1107.51 82.5833 1109.47 83.7048C1111.43 84.8262 1112.96 86.4582 1114.06 88.6007C1115.17 90.7432 1115.72 93.3377 1115.72 96.384ZM1095.56 96.384C1095.56 98.4094 1095.8 100.142 1096.29 101.581C1096.79 103.021 1097.56 104.125 1098.6 104.895C1099.63 105.649 1100.97 106.025 1102.61 106.025C1104.25 106.025 1105.59 105.649 1106.63 104.895C1107.67 104.125 1108.43 103.021 1108.92 101.581C1109.4 100.142 1109.64 98.4094 1109.64 96.384C1109.64 94.3587 1109.4 92.643 1108.92 91.237C1108.43 89.8142 1107.67 88.7346 1106.63 87.9981C1105.59 87.2449 1104.25 86.8683 1102.59 86.8683C1100.15 86.8683 1098.36 87.6885 1097.24 89.3288C1096.12 90.9692 1095.56 93.3209 1095.56 96.384ZM1135.6 82.0226C1138.73 82.0226 1141.16 82.8344 1142.9 84.458C1144.66 86.0649 1145.54 88.6509 1145.54 92.2162V110.344H1139.64V93.3209C1139.64 91.1617 1139.2 89.5464 1138.31 88.4752C1137.42 87.3872 1136.05 86.8432 1134.19 86.8432C1131.5 86.8432 1129.62 87.6717 1128.57 89.3288C1127.53 90.9859 1127.01 93.3879 1127.01 96.5347V110.344H1121.11V82.5498H1125.71L1126.53 86.3159H1126.86C1127.46 85.3451 1128.21 84.5501 1129.09 83.9307C1130 83.2947 1131 82.8176 1132.11 82.4996C1133.23 82.1816 1134.39 82.0226 1135.6 82.0226ZM1162.22 96.2585C1162.22 93.4465 1162.49 90.7014 1163.03 88.0233C1163.58 85.3451 1164.41 82.7925 1165.54 80.3655C1166.66 77.9384 1168.07 75.6955 1169.78 73.6367H1174.93C1172.53 76.8337 1170.72 80.3739 1169.5 84.2571C1168.3 88.1404 1167.7 92.1241 1167.7 96.2083C1167.7 98.8697 1167.96 101.506 1168.5 104.117C1169.03 106.728 1169.84 109.239 1170.91 111.649C1171.98 114.076 1173.3 116.353 1174.88 118.479H1169.78C1168.07 116.47 1166.66 114.277 1165.54 111.9C1164.41 109.524 1163.58 107.013 1163.03 104.368C1162.49 101.724 1162.22 99.0203 1162.22 96.2585ZM1176.9 99.0454V94.049H1189.86V99.0454H1176.9ZM1204.51 96.2334C1204.51 99.0119 1204.25 101.724 1203.71 104.368C1203.17 107.013 1202.35 109.524 1201.22 111.9C1200.12 114.277 1198.7 116.47 1196.96 118.479H1191.88C1193.46 116.353 1194.78 114.076 1195.85 111.649C1196.92 109.222 1197.73 106.703 1198.26 104.092C1198.8 101.481 1199.06 98.8446 1199.06 96.1832C1199.06 93.4716 1198.79 90.7934 1198.24 88.1488C1197.7 85.5041 1196.9 82.9599 1195.83 80.5161C1194.75 78.0556 1193.42 75.7625 1191.83 73.6367H1196.96C1198.7 75.6955 1200.12 77.9384 1201.22 80.3655C1202.35 82.7925 1203.17 85.3451 1203.71 88.0233C1204.25 90.6846 1204.51 93.4213 1204.51 96.2334Z" fill="#8C8C8C"/>
<path d="M68.5705 345.352H64.3023V328.053H45.0198V345.352H40.7515V308.645H45.0198V324.286H64.3023V308.645H68.5705V345.352ZM100.374 331.542C100.374 333.802 100.081 335.819 99.4955 337.593C98.9096 339.368 98.0643 340.866 96.9596 342.088C95.8549 343.309 94.5158 344.247 92.9424 344.9C91.3858 345.536 89.6199 345.854 87.6448 345.854C85.8035 345.854 84.113 345.536 82.5731 344.9C81.0499 344.247 79.7275 343.309 78.6061 342.088C77.5014 340.866 76.6393 339.368 76.02 337.593C75.4174 335.819 75.1162 333.802 75.1162 331.542C75.1162 328.53 75.6267 325.969 76.6477 323.86C77.6687 321.734 79.125 320.119 81.0164 319.014C82.9246 317.892 85.1926 317.332 87.8205 317.332C90.3312 317.332 92.524 317.892 94.3987 319.014C96.2901 320.135 97.7547 321.759 98.7925 323.885C99.847 325.994 100.374 328.546 100.374 331.542ZM79.4346 331.542C79.4346 333.752 79.7275 335.668 80.3134 337.292C80.8992 338.916 81.8031 340.171 83.025 341.058C84.2469 341.945 85.8203 342.389 87.7452 342.389C89.6533 342.389 91.2184 341.945 92.4403 341.058C93.6789 340.171 94.5911 338.916 95.177 337.292C95.7628 335.668 96.0557 333.752 96.0557 331.542C96.0557 329.35 95.7628 327.458 95.177 325.868C94.5911 324.261 93.6873 323.023 92.4654 322.152C91.2435 321.282 89.6617 320.847 87.7201 320.847C84.8578 320.847 82.7572 321.792 81.4181 323.684C80.0958 325.575 79.4346 328.195 79.4346 331.542ZM110.385 345.352H106.192V306.284H110.385V345.352ZM127.601 345.854C124.119 345.854 121.358 344.665 119.315 342.288C117.29 339.912 116.277 336.38 116.277 331.693C116.277 326.956 117.315 323.383 119.391 320.972C121.466 318.545 124.228 317.332 127.676 317.332C129.132 317.332 130.405 317.524 131.493 317.909C132.581 318.294 133.518 318.813 134.305 319.466C135.091 320.102 135.752 320.83 136.288 321.65H136.589C136.522 321.131 136.455 320.42 136.389 319.516C136.322 318.612 136.288 317.876 136.288 317.307V306.284H140.456V345.352H137.092L136.464 341.435H136.288C135.769 342.255 135.108 343 134.305 343.669C133.518 344.339 132.572 344.875 131.467 345.276C130.379 345.661 129.091 345.854 127.601 345.854ZM128.254 342.389C131.2 342.389 133.284 341.552 134.505 339.878C135.727 338.204 136.338 335.719 136.338 332.421V331.668C136.338 328.17 135.752 325.483 134.581 323.609C133.426 321.734 131.317 320.797 128.254 320.797C125.693 320.797 123.776 321.784 122.504 323.759C121.232 325.718 120.596 328.396 120.596 331.794C120.596 335.175 121.224 337.786 122.479 339.627C123.751 341.468 125.676 342.389 128.254 342.389ZM169.666 345.854C166.185 345.854 163.423 344.665 161.381 342.288C159.355 339.912 158.343 336.38 158.343 331.693C158.343 326.956 159.38 323.383 161.456 320.972C163.531 318.545 166.293 317.332 169.741 317.332C171.198 317.332 172.47 317.524 173.558 317.909C174.646 318.294 175.583 318.813 176.37 319.466C177.156 320.102 177.818 320.83 178.353 321.65H178.655C178.588 321.131 178.521 320.42 178.454 319.516C178.387 318.612 178.353 317.876 178.353 317.307V306.284H182.521V345.352H179.157L178.529 341.435H178.353C177.834 342.255 177.173 343 176.37 343.669C175.583 344.339 174.637 344.875 173.533 345.276C172.445 345.661 171.156 345.854 169.666 345.854ZM170.319 342.389C173.265 342.389 175.349 341.552 176.571 339.878C177.793 338.204 178.403 335.719 178.403 332.421V331.668C178.403 328.17 177.818 325.483 176.646 323.609C175.491 321.734 173.382 320.797 170.319 320.797C167.758 320.797 165.841 321.784 164.569 323.759C163.297 325.718 162.661 328.396 162.661 331.794C162.661 335.175 163.289 337.786 164.544 339.627C165.816 341.468 167.741 342.389 170.319 342.389ZM213.697 331.542C213.697 333.802 213.404 335.819 212.818 337.593C212.232 339.368 211.387 340.866 210.282 342.088C209.178 343.309 207.839 344.247 206.265 344.9C204.709 345.536 202.943 345.854 200.968 345.854C199.126 345.854 197.436 345.536 195.896 344.9C194.373 344.247 193.05 343.309 191.929 342.088C190.824 340.866 189.962 339.368 189.343 337.593C188.74 335.819 188.439 333.802 188.439 331.542C188.439 328.53 188.95 325.969 189.971 323.86C190.992 321.734 192.448 320.119 194.339 319.014C196.247 317.892 198.515 317.332 201.143 317.332C203.654 317.332 205.847 317.892 207.721 319.014C209.613 320.135 211.078 321.759 212.115 323.885C213.17 325.994 213.697 328.546 213.697 331.542ZM192.757 331.542C192.757 333.752 193.05 335.668 193.636 337.292C194.222 338.916 195.126 340.171 196.348 341.058C197.57 341.945 199.143 342.389 201.068 342.389C202.976 342.389 204.541 341.945 205.763 341.058C207.002 340.171 207.914 338.916 208.5 337.292C209.086 335.668 209.379 333.752 209.379 331.542C209.379 329.35 209.086 327.458 208.5 325.868C207.914 324.261 207.01 323.023 205.788 322.152C204.566 321.282 202.985 320.847 201.043 320.847C198.181 320.847 196.08 321.792 194.741 323.684C193.419 325.575 192.757 328.195 192.757 331.542ZM241.91 345.301L237.014 329.283C236.797 328.597 236.588 327.927 236.387 327.274C236.203 326.605 236.027 325.969 235.859 325.366C235.709 324.747 235.567 324.178 235.433 323.659C235.315 323.123 235.215 322.663 235.131 322.278H234.956C234.889 322.663 234.797 323.123 234.679 323.659C234.562 324.178 234.42 324.747 234.253 325.366C234.102 325.985 233.935 326.638 233.75 327.324C233.566 327.994 233.357 328.672 233.123 329.358L228.001 345.301H223.306L215.723 317.784H220.042L224.009 332.974C224.277 333.978 224.528 334.974 224.762 335.961C225.013 336.932 225.222 337.853 225.39 338.723C225.574 339.577 225.708 340.322 225.791 340.958H225.992C226.093 340.539 226.201 340.037 226.319 339.451C226.453 338.865 226.595 338.246 226.745 337.593C226.913 336.924 227.089 336.263 227.273 335.61C227.457 334.94 227.641 334.313 227.825 333.727L232.897 317.784H237.391L242.287 333.702C242.538 334.505 242.781 335.342 243.015 336.212C243.266 337.083 243.492 337.928 243.693 338.748C243.894 339.552 244.036 340.271 244.12 340.908H244.321C244.388 340.338 244.513 339.635 244.697 338.799C244.881 337.962 245.091 337.041 245.325 336.037C245.576 335.032 245.836 334.011 246.103 332.974L250.121 317.784H254.364L246.756 345.301H241.91ZM271.028 317.332C274.292 317.332 276.76 318.135 278.434 319.742C280.108 321.332 280.945 323.893 280.945 327.425V345.352H276.827V327.701C276.827 325.408 276.3 323.692 275.246 322.554C274.208 321.416 272.609 320.847 270.45 320.847C267.404 320.847 265.261 321.709 264.023 323.433C262.784 325.157 262.165 327.659 262.165 330.94V345.352H257.997V317.834H261.361L261.989 321.801H262.215C262.801 320.83 263.546 320.018 264.449 319.365C265.353 318.696 266.366 318.194 267.487 317.859C268.609 317.507 269.789 317.332 271.028 317.332ZM309 342.439C309.686 342.439 310.389 342.381 311.109 342.263C311.829 342.146 312.415 342.004 312.867 341.837V345.075C312.381 345.293 311.703 345.477 310.833 345.628C309.979 345.778 309.142 345.854 308.322 345.854C306.866 345.854 305.544 345.603 304.355 345.1C303.167 344.582 302.213 343.711 301.493 342.489C300.79 341.267 300.439 339.577 300.439 337.418V321.098H296.522V319.064L300.464 317.432L302.121 311.457H304.632V317.834H312.691V321.098H304.632V337.292C304.632 339.016 305.025 340.305 305.812 341.159C306.615 342.012 307.678 342.439 309 342.439ZM321.22 306.284V317.959C321.22 318.629 321.203 319.307 321.17 319.993C321.136 320.663 321.078 321.282 320.994 321.851H321.27C321.839 320.88 322.559 320.068 323.43 319.416C324.317 318.746 325.321 318.244 326.442 317.909C327.564 317.558 328.752 317.382 330.008 317.382C332.217 317.382 334.058 317.733 335.531 318.436C337.021 319.139 338.134 320.227 338.871 321.7C339.624 323.173 340 325.082 340 327.425V345.352H335.883V327.701C335.883 325.408 335.356 323.692 334.301 322.554C333.263 321.416 331.665 320.847 329.506 320.847C327.463 320.847 325.832 321.24 324.61 322.027C323.404 322.797 322.534 323.935 321.998 325.441C321.48 326.948 321.22 328.789 321.22 330.965V345.352H317.052V306.284H321.22ZM357.794 317.332C360.138 317.332 362.146 317.851 363.82 318.888C365.494 319.926 366.774 321.382 367.661 323.257C368.549 325.115 368.992 327.291 368.992 329.785V332.371H349.986C350.036 335.602 350.839 338.062 352.396 339.753C353.953 341.443 356.145 342.288 358.974 342.288C360.715 342.288 362.255 342.129 363.594 341.811C364.933 341.493 366.322 341.025 367.762 340.405V344.071C366.373 344.69 364.992 345.142 363.619 345.427C362.263 345.711 360.656 345.854 358.798 345.854C356.154 345.854 353.844 345.318 351.869 344.247C349.91 343.159 348.387 341.569 347.299 339.476C346.211 337.384 345.667 334.823 345.667 331.794C345.667 328.831 346.161 326.27 347.149 324.111C348.153 321.935 349.559 320.261 351.367 319.089C353.191 317.918 355.334 317.332 357.794 317.332ZM357.744 320.746C355.518 320.746 353.744 321.474 352.421 322.931C351.099 324.387 350.312 326.421 350.061 329.032H364.623C364.607 327.391 364.347 325.952 363.845 324.713C363.36 323.458 362.615 322.487 361.611 321.801C360.606 321.098 359.317 320.746 357.744 320.746ZM416.531 317.332C419.56 317.332 421.845 318.127 423.385 319.717C424.925 321.29 425.695 323.826 425.695 327.324V345.352H421.577V327.525C421.577 325.299 421.092 323.634 420.121 322.529C419.167 321.407 417.744 320.847 415.853 320.847C413.191 320.847 411.258 321.617 410.053 323.157C408.848 324.697 408.245 326.965 408.245 329.961V345.352H404.103V327.525C404.103 326.036 403.885 324.797 403.45 323.809C403.031 322.822 402.395 322.085 401.542 321.6C400.705 321.098 399.642 320.847 398.353 320.847C396.528 320.847 395.064 321.223 393.959 321.977C392.854 322.73 392.051 323.851 391.549 325.341C391.063 326.814 390.821 328.63 390.821 330.789V345.352H386.653V317.834H390.017L390.645 321.725H390.871C391.423 320.771 392.118 319.968 392.955 319.315C393.792 318.662 394.729 318.169 395.767 317.834C396.805 317.499 397.909 317.332 399.081 317.332C401.173 317.332 402.922 317.725 404.328 318.512C405.751 319.282 406.781 320.462 407.417 322.052H407.643C408.547 320.462 409.785 319.282 411.359 318.512C412.932 317.725 414.656 317.332 416.531 317.332ZM437.036 317.834V345.352H432.868V317.834H437.036ZM435.002 307.54C435.689 307.54 436.274 307.766 436.76 308.218C437.262 308.653 437.513 309.339 437.513 310.276C437.513 311.197 437.262 311.883 436.76 312.335C436.274 312.787 435.689 313.013 435.002 313.013C434.283 313.013 433.68 312.787 433.195 312.335C432.726 311.883 432.492 311.197 432.492 310.276C432.492 309.339 432.726 308.653 433.195 308.218C433.68 307.766 434.283 307.54 435.002 307.54ZM457.516 317.332C460.78 317.332 463.249 318.135 464.923 319.742C466.597 321.332 467.434 323.893 467.434 327.425V345.352H463.316V327.701C463.316 325.408 462.789 323.692 461.734 322.554C460.696 321.416 459.098 320.847 456.939 320.847C453.892 320.847 451.75 321.709 450.511 323.433C449.273 325.157 448.653 327.659 448.653 330.94V345.352H444.485V317.834H447.85L448.478 321.801H448.704C449.289 320.83 450.034 320.018 450.938 319.365C451.842 318.696 452.855 318.194 453.976 317.859C455.098 317.507 456.278 317.332 457.516 317.332ZM497.354 317.834V345.352H493.94L493.337 341.485H493.111C492.542 342.439 491.806 343.243 490.902 343.895C489.998 344.548 488.977 345.034 487.839 345.352C486.717 345.686 485.52 345.854 484.248 345.854C482.072 345.854 480.248 345.502 478.775 344.799C477.302 344.096 476.189 343.008 475.436 341.535C474.699 340.062 474.331 338.171 474.331 335.861V317.834H478.549V335.56C478.549 337.853 479.068 339.568 480.105 340.707C481.143 341.828 482.725 342.389 484.851 342.389C486.893 342.389 488.516 342.004 489.722 341.234C490.944 340.464 491.822 339.334 492.358 337.844C492.894 336.338 493.161 334.497 493.161 332.321V317.834H497.354ZM522.58 337.819C522.58 339.577 522.136 341.058 521.249 342.263C520.379 343.452 519.123 344.347 517.483 344.95C515.859 345.552 513.918 345.854 511.658 345.854C509.733 345.854 508.068 345.703 506.662 345.402C505.256 345.1 504.025 344.674 502.971 344.121V340.28C504.092 340.832 505.431 341.334 506.988 341.786C508.545 342.238 510.135 342.464 511.759 342.464C514.135 342.464 515.859 342.079 516.931 341.309C518.002 340.539 518.538 339.493 518.538 338.171C518.538 337.418 518.32 336.756 517.885 336.187C517.466 335.602 516.755 335.041 515.751 334.505C514.746 333.953 513.357 333.35 511.583 332.697C509.825 332.028 508.302 331.367 507.013 330.714C505.741 330.044 504.754 329.233 504.051 328.279C503.364 327.324 503.021 326.086 503.021 324.563C503.021 322.236 503.958 320.453 505.833 319.215C507.725 317.959 510.202 317.332 513.265 317.332C514.922 317.332 516.47 317.499 517.91 317.834C519.366 318.152 520.722 318.587 521.977 319.139L520.571 322.479C519.433 321.993 518.219 321.583 516.931 321.248C515.642 320.914 514.328 320.746 512.989 320.746C511.064 320.746 509.583 321.064 508.545 321.7C507.524 322.336 507.013 323.207 507.013 324.312C507.013 325.165 507.248 325.868 507.716 326.421C508.202 326.973 508.972 327.492 510.026 327.977C511.081 328.463 512.47 329.032 514.194 329.685C515.918 330.321 517.408 330.982 518.663 331.668C519.918 332.338 520.881 333.158 521.55 334.129C522.237 335.083 522.58 336.313 522.58 337.819ZM544.032 306.284V316.051C544.032 317.173 543.998 318.261 543.931 319.315C543.881 320.37 543.839 321.19 543.806 321.776H544.032C544.785 320.537 545.873 319.491 547.296 318.637C548.719 317.784 550.535 317.357 552.744 317.357C556.192 317.357 558.937 318.554 560.979 320.947C563.038 323.324 564.068 326.864 564.068 331.568C564.068 334.664 563.599 337.275 562.661 339.401C561.724 341.527 560.402 343.134 558.695 344.222C556.987 345.31 554.97 345.854 552.644 345.854C550.468 345.854 548.677 345.452 547.271 344.649C545.881 343.828 544.81 342.832 544.057 341.661H543.73L542.877 345.352H539.864V306.284H544.032ZM552.066 320.847C550.074 320.847 548.493 321.24 547.321 322.027C546.149 322.797 545.304 323.968 544.785 325.542C544.283 327.098 544.032 329.074 544.032 331.467V331.693C544.032 335.158 544.609 337.811 545.764 339.652C546.919 341.477 549.02 342.389 552.066 342.389C554.627 342.389 556.544 341.452 557.816 339.577C559.105 337.702 559.749 335.024 559.749 331.542C559.749 327.994 559.113 325.324 557.841 323.533C556.585 321.742 554.661 320.847 552.066 320.847ZM592.683 317.834V345.352H589.268L588.665 341.485H588.439C587.87 342.439 587.134 343.243 586.23 343.895C585.326 344.548 584.305 345.034 583.167 345.352C582.045 345.686 580.849 345.854 579.576 345.854C577.4 345.854 575.576 345.502 574.103 344.799C572.63 344.096 571.517 343.008 570.764 341.535C570.027 340.062 569.659 338.171 569.659 335.861V317.834H573.877V335.56C573.877 337.853 574.396 339.568 575.434 340.707C576.472 341.828 578.053 342.389 580.179 342.389C582.221 342.389 583.845 342.004 585.05 341.234C586.272 340.464 587.151 339.334 587.686 337.844C588.222 336.338 588.49 334.497 588.49 332.321V317.834H592.683ZM608.995 342.439C609.681 342.439 610.384 342.381 611.104 342.263C611.824 342.146 612.41 342.004 612.862 341.837V345.075C612.376 345.293 611.698 345.477 610.828 345.628C609.974 345.778 609.137 345.854 608.317 345.854C606.861 345.854 605.539 345.603 604.35 345.1C603.162 344.582 602.208 343.711 601.488 342.489C600.785 341.267 600.433 339.577 600.433 337.418V321.098H596.517V319.064L600.458 317.432L602.116 311.457H604.626V317.834H612.686V321.098H604.626V337.292C604.626 339.016 605.02 340.305 605.806 341.159C606.61 342.012 607.673 342.439 608.995 342.439ZM625.935 342.439C626.621 342.439 627.324 342.381 628.044 342.263C628.764 342.146 629.35 342.004 629.802 341.837V345.075C629.316 345.293 628.638 345.477 627.768 345.628C626.914 345.778 626.077 345.854 625.257 345.854C623.801 345.854 622.479 345.603 621.29 345.1C620.102 344.582 619.148 343.711 618.428 342.489C617.725 341.267 617.373 339.577 617.373 337.418V321.098H613.457V319.064L617.399 317.432L619.056 311.457H621.566V317.834H629.626V321.098H621.566V337.292C621.566 339.016 621.96 340.305 622.746 341.159C623.55 342.012 624.613 342.439 625.935 342.439ZM657.714 331.542C657.714 333.802 657.421 335.819 656.835 337.593C656.249 339.368 655.404 340.866 654.299 342.088C653.194 343.309 651.855 344.247 650.282 344.9C648.725 345.536 646.959 345.854 644.984 345.854C643.143 345.854 641.452 345.536 639.912 344.9C638.389 344.247 637.067 343.309 635.945 342.088C634.841 340.866 633.979 339.368 633.359 337.593C632.757 335.819 632.456 333.802 632.456 331.542C632.456 328.53 632.966 325.969 633.987 323.86C635.008 321.734 636.464 320.119 638.356 319.014C640.264 317.892 642.532 317.332 645.16 317.332C647.671 317.332 649.863 317.892 651.738 319.014C653.629 320.135 655.094 321.759 656.132 323.885C657.186 325.994 657.714 328.546 657.714 331.542ZM636.774 331.542C636.774 333.752 637.067 335.668 637.653 337.292C638.239 338.916 639.142 340.171 640.364 341.058C641.586 341.945 643.16 342.389 645.085 342.389C646.993 342.389 648.558 341.945 649.78 341.058C651.018 340.171 651.93 338.916 652.516 337.292C653.102 335.668 653.395 333.752 653.395 331.542C653.395 329.35 653.102 327.458 652.516 325.868C651.93 324.261 651.027 323.023 649.805 322.152C648.583 321.282 647.001 320.847 645.059 320.847C642.197 320.847 640.097 321.792 638.757 323.684C637.435 325.575 636.774 328.195 636.774 331.542ZM676.562 317.332C679.826 317.332 682.295 318.135 683.969 319.742C685.642 321.332 686.479 323.893 686.479 327.425V345.352H682.362V327.701C682.362 325.408 681.834 323.692 680.78 322.554C679.742 321.416 678.144 320.847 675.984 320.847C672.938 320.847 670.795 321.709 669.557 323.433C668.318 325.157 667.699 327.659 667.699 330.94V345.352H663.531V317.834H666.895L667.523 321.801H667.749C668.335 320.83 669.08 320.018 669.984 319.365C670.888 318.696 671.9 318.194 673.022 317.859C674.143 317.507 675.323 317.332 676.562 317.332ZM728.042 345.301L723.146 329.283C722.929 328.597 722.719 327.927 722.519 327.274C722.334 326.605 722.159 325.969 721.991 325.366C721.841 324.747 721.698 324.178 721.565 323.659C721.447 323.123 721.347 322.663 721.263 322.278H721.087C721.021 322.663 720.928 323.123 720.811 323.659C720.694 324.178 720.552 324.747 720.384 325.366C720.234 325.985 720.066 326.638 719.882 327.324C719.698 327.994 719.489 328.672 719.255 329.358L714.133 345.301H709.438L701.855 317.784H706.174L710.141 332.974C710.408 333.978 710.66 334.974 710.894 335.961C711.145 336.932 711.354 337.853 711.522 338.723C711.706 339.577 711.84 340.322 711.923 340.958H712.124C712.225 340.539 712.333 340.037 712.451 339.451C712.584 338.865 712.727 338.246 712.877 337.593C713.045 336.924 713.22 336.263 713.405 335.61C713.589 334.94 713.773 334.313 713.957 333.727L719.029 317.784H723.523L728.419 333.702C728.67 334.505 728.913 335.342 729.147 336.212C729.398 337.083 729.624 337.928 729.825 338.748C730.026 339.552 730.168 340.271 730.252 340.908H730.453C730.52 340.338 730.645 339.635 730.829 338.799C731.013 337.962 731.223 337.041 731.457 336.037C731.708 335.032 731.967 334.011 732.235 332.974L736.252 317.784H740.496L732.888 345.301H728.042ZM748.297 317.834V345.352H744.129V317.834H748.297ZM746.263 307.54C746.949 307.54 747.535 307.766 748.02 308.218C748.523 308.653 748.774 309.339 748.774 310.276C748.774 311.197 748.523 311.883 748.02 312.335C747.535 312.787 746.949 313.013 746.263 313.013C745.543 313.013 744.941 312.787 744.455 312.335C743.986 311.883 743.752 311.197 743.752 310.276C743.752 309.339 743.986 308.653 744.455 308.218C744.941 307.766 745.543 307.54 746.263 307.54ZM764.634 342.439C765.32 342.439 766.023 342.381 766.743 342.263C767.463 342.146 768.049 342.004 768.501 341.837V345.075C768.015 345.293 767.337 345.477 766.467 345.628C765.613 345.778 764.776 345.854 763.956 345.854C762.5 345.854 761.178 345.603 759.989 345.1C758.801 344.582 757.847 343.711 757.127 342.489C756.424 341.267 756.072 339.577 756.072 337.418V321.098H752.156V319.064L756.097 317.432L757.755 311.457H760.265V317.834H768.325V321.098H760.265V337.292C760.265 339.016 760.659 340.305 761.445 341.159C762.249 342.012 763.312 342.439 764.634 342.439ZM776.854 306.284V317.959C776.854 318.629 776.837 319.307 776.804 319.993C776.77 320.663 776.712 321.282 776.628 321.851H776.904C777.473 320.88 778.193 320.068 779.063 319.416C779.951 318.746 780.955 318.244 782.076 317.909C783.198 317.558 784.386 317.382 785.642 317.382C787.851 317.382 789.692 317.733 791.165 318.436C792.655 319.139 793.768 320.227 794.504 321.7C795.258 323.173 795.634 325.082 795.634 327.425V345.352H791.517V327.701C791.517 325.408 790.989 323.692 789.935 322.554C788.897 321.416 787.299 320.847 785.139 320.847C783.097 320.847 781.465 321.24 780.243 322.027C779.038 322.797 778.168 323.935 777.632 325.441C777.113 326.948 776.854 328.789 776.854 330.965V345.352H772.686V306.284H776.854ZM826.559 331.542C826.559 333.802 826.266 335.819 825.68 337.593C825.095 339.368 824.249 340.866 823.145 342.088C822.04 343.309 820.701 344.247 819.127 344.9C817.571 345.536 815.805 345.854 813.83 345.854C811.988 345.854 810.298 345.536 808.758 344.9C807.235 344.247 805.912 343.309 804.791 342.088C803.686 340.866 802.824 339.368 802.205 337.593C801.602 335.819 801.301 333.802 801.301 331.542C801.301 328.53 801.812 325.969 802.833 323.86C803.854 321.734 805.31 320.119 807.201 319.014C809.109 317.892 811.378 317.332 814.005 317.332C816.516 317.332 818.709 317.892 820.584 319.014C822.475 320.135 823.94 321.759 824.977 323.885C826.032 325.994 826.559 328.546 826.559 331.542ZM805.62 331.542C805.62 333.752 805.912 335.668 806.498 337.292C807.084 338.916 807.988 340.171 809.21 341.058C810.432 341.945 812.005 342.389 813.93 342.389C815.838 342.389 817.403 341.945 818.625 341.058C819.864 340.171 820.776 338.916 821.362 337.292C821.948 335.668 822.241 333.752 822.241 331.542C822.241 329.35 821.948 327.458 821.362 325.868C820.776 324.261 819.872 323.023 818.65 322.152C817.428 321.282 815.847 320.847 813.905 320.847C811.043 320.847 808.942 321.792 807.603 323.684C806.281 325.575 805.62 328.195 805.62 331.542ZM855.099 317.834V345.352H851.684L851.082 341.485H850.856C850.287 342.439 849.55 343.243 848.646 343.895C847.742 344.548 846.721 345.034 845.583 345.352C844.462 345.686 843.265 345.854 841.993 345.854C839.817 345.854 837.992 345.502 836.519 344.799C835.046 344.096 833.933 343.008 833.18 341.535C832.444 340.062 832.075 338.171 832.075 335.861V317.834H836.293V335.56C836.293 337.853 836.812 339.568 837.85 340.707C838.888 341.828 840.47 342.389 842.595 342.389C844.637 342.389 846.261 342.004 847.466 341.234C848.688 340.464 849.567 339.334 850.102 337.844C850.638 336.338 850.906 334.497 850.906 332.321V317.834H855.099ZM871.411 342.439C872.098 342.439 872.801 342.381 873.52 342.263C874.24 342.146 874.826 342.004 875.278 341.837V345.075C874.792 345.293 874.115 345.477 873.244 345.628C872.39 345.778 871.554 345.854 870.733 345.854C869.277 345.854 867.955 345.603 866.766 345.1C865.578 344.582 864.624 343.711 863.904 342.489C863.201 341.267 862.85 339.577 862.85 337.418V321.098H858.933V319.064L862.875 317.432L864.532 311.457H867.043V317.834H875.102V321.098H867.043V337.292C867.043 339.016 867.436 340.305 868.223 341.159C869.026 342.012 870.089 342.439 871.411 342.439ZM900.32 342.439C901.006 342.439 901.709 342.381 902.429 342.263C903.149 342.146 903.735 342.004 904.187 341.837V345.075C903.701 345.293 903.023 345.477 902.153 345.628C901.299 345.778 900.462 345.854 899.642 345.854C898.186 345.854 896.864 345.603 895.675 345.1C894.487 344.582 893.533 343.711 892.813 342.489C892.11 341.267 891.759 339.577 891.759 337.418V321.098H887.842V319.064L891.784 317.432L893.441 311.457H895.951V317.834H904.011V321.098H895.951V337.292C895.951 339.016 896.345 340.305 897.132 341.159C897.935 342.012 898.998 342.439 900.32 342.439ZM912.54 306.284V317.959C912.54 318.629 912.523 319.307 912.49 319.993C912.456 320.663 912.398 321.282 912.314 321.851H912.59C913.159 320.88 913.879 320.068 914.749 319.416C915.637 318.746 916.641 318.244 917.762 317.909C918.884 317.558 920.072 317.382 921.328 317.382C923.537 317.382 925.378 317.733 926.851 318.436C928.341 319.139 929.454 320.227 930.191 321.7C930.944 323.173 931.32 325.082 931.32 327.425V345.352H927.203V327.701C927.203 325.408 926.676 323.692 925.621 322.554C924.583 321.416 922.985 320.847 920.825 320.847C918.783 320.847 917.151 321.24 915.93 322.027C914.724 322.797 913.854 323.935 913.318 325.441C912.799 326.948 912.54 328.789 912.54 330.965V345.352H908.372V306.284H912.54ZM949.114 317.332C951.457 317.332 953.466 317.851 955.14 318.888C956.814 319.926 958.094 321.382 958.981 323.257C959.868 325.115 960.312 327.291 960.312 329.785V332.371H941.306C941.356 335.602 942.159 338.062 943.716 339.753C945.273 341.443 947.465 342.288 950.294 342.288C952.035 342.288 953.575 342.129 954.914 341.811C956.253 341.493 957.642 341.025 959.082 340.405V344.071C957.692 344.69 956.312 345.142 954.939 345.427C953.583 345.711 951.976 345.854 950.118 345.854C947.474 345.854 945.164 345.318 943.189 344.247C941.23 343.159 939.707 341.569 938.619 339.476C937.531 337.384 936.987 334.823 936.987 331.794C936.987 328.831 937.481 326.27 938.469 324.111C939.473 321.935 940.879 320.261 942.687 319.089C944.511 317.918 946.654 317.332 949.114 317.332ZM949.064 320.746C946.838 320.746 945.063 321.474 943.741 322.931C942.419 324.387 941.632 326.421 941.381 329.032H955.943C955.927 327.391 955.667 325.952 955.165 324.713C954.68 323.458 953.935 322.487 952.93 321.801C951.926 321.098 950.637 320.746 949.064 320.746ZM987.765 345.854C984.283 345.854 981.521 344.665 979.479 342.288C977.454 339.912 976.441 336.38 976.441 331.693C976.441 326.956 977.479 323.383 979.555 320.972C981.63 318.545 984.392 317.332 987.84 317.332C989.296 317.332 990.568 317.524 991.656 317.909C992.744 318.294 993.682 318.813 994.468 319.466C995.255 320.102 995.916 320.83 996.452 321.65H996.753C996.686 321.131 996.619 320.42 996.552 319.516C996.485 318.612 996.452 317.876 996.452 317.307V306.284H1000.62V345.352H997.255L996.628 341.435H996.452C995.933 342.255 995.272 343 994.468 343.669C993.682 344.339 992.736 344.875 991.631 345.276C990.543 345.661 989.254 345.854 987.765 345.854ZM988.417 342.389C991.363 342.389 993.447 341.552 994.669 339.878C995.891 338.204 996.502 335.719 996.502 332.421V331.668C996.502 328.17 995.916 325.483 994.745 323.609C993.59 321.734 991.481 320.797 988.417 320.797C985.857 320.797 983.94 321.784 982.668 323.759C981.396 325.718 980.76 328.396 980.76 331.794C980.76 335.175 981.387 337.786 982.643 339.627C983.915 341.468 985.84 342.389 988.417 342.389ZM1018.66 317.332C1021.01 317.332 1023.02 317.851 1024.69 318.888C1026.36 319.926 1027.64 321.382 1028.53 323.257C1029.42 325.115 1029.86 327.291 1029.86 329.785V332.371H1010.86C1010.91 335.602 1011.71 338.062 1013.27 339.753C1014.82 341.443 1017.02 342.288 1019.84 342.288C1021.59 342.288 1023.13 342.129 1024.46 341.811C1025.8 341.493 1027.19 341.025 1028.63 340.405V344.071C1027.24 344.69 1025.86 345.142 1024.49 345.427C1023.13 345.711 1021.53 345.854 1019.67 345.854C1017.02 345.854 1014.71 345.318 1012.74 344.247C1010.78 343.159 1009.26 341.569 1008.17 339.476C1007.08 337.384 1006.54 334.823 1006.54 331.794C1006.54 328.831 1007.03 326.27 1008.02 324.111C1009.02 321.935 1010.43 320.261 1012.24 319.089C1014.06 317.918 1016.2 317.332 1018.66 317.332ZM1018.61 320.746C1016.39 320.746 1014.61 321.474 1013.29 322.931C1011.97 324.387 1011.18 326.421 1010.93 329.032H1025.49C1025.48 327.391 1025.22 325.952 1024.72 324.713C1024.23 323.458 1023.49 322.487 1022.48 321.801C1021.48 321.098 1020.19 320.746 1018.61 320.746ZM1041.61 345.352L1031.16 317.834H1035.63L1041.68 334.48C1042.1 335.618 1042.53 336.874 1042.96 338.246C1043.4 339.619 1043.7 340.723 1043.86 341.56H1044.04C1044.24 340.723 1044.58 339.619 1045.04 338.246C1045.51 336.857 1045.94 335.602 1046.33 334.48L1052.38 317.834H1056.85L1046.38 345.352H1041.61ZM1064.04 317.834V345.352H1059.88V317.834H1064.04ZM1062.01 307.54C1062.7 307.54 1063.28 307.766 1063.77 308.218C1064.27 308.653 1064.52 309.339 1064.52 310.276C1064.52 311.197 1064.27 311.883 1063.77 312.335C1063.28 312.787 1062.7 313.013 1062.01 313.013C1061.29 313.013 1060.69 312.787 1060.2 312.335C1059.73 311.883 1059.5 311.197 1059.5 310.276C1059.5 309.339 1059.73 308.653 1060.2 308.218C1060.69 307.766 1061.29 307.54 1062.01 307.54ZM1082.52 345.854C1080.04 345.854 1077.85 345.343 1075.96 344.322C1074.07 343.301 1072.6 341.744 1071.54 339.652C1070.49 337.56 1069.96 334.924 1069.96 331.743C1069.96 328.412 1070.51 325.692 1071.62 323.583C1072.74 321.458 1074.28 319.884 1076.24 318.863C1078.2 317.842 1080.42 317.332 1082.92 317.332C1084.29 317.332 1085.61 317.474 1086.88 317.759C1088.17 318.026 1089.23 318.369 1090.05 318.788L1088.79 322.278C1087.96 321.943 1086.98 321.642 1085.88 321.374C1084.79 321.106 1083.77 320.972 1082.82 320.972C1080.91 320.972 1079.32 321.382 1078.05 322.203C1076.79 323.023 1075.85 324.228 1075.21 325.818C1074.59 327.408 1074.28 329.367 1074.28 331.693C1074.28 333.919 1074.58 335.819 1075.18 337.393C1075.8 338.966 1076.72 340.171 1077.92 341.008C1079.14 341.828 1080.67 342.238 1082.49 342.238C1083.95 342.238 1085.26 342.088 1086.43 341.786C1087.6 341.468 1088.67 341.1 1089.62 340.682V344.397C1088.7 344.866 1087.67 345.226 1086.53 345.477C1085.41 345.728 1084.07 345.854 1082.52 345.854ZM1105.36 317.332C1107.7 317.332 1109.71 317.851 1111.38 318.888C1113.06 319.926 1114.34 321.382 1115.22 323.257C1116.11 325.115 1116.55 327.291 1116.55 329.785V332.371H1097.55C1097.6 335.602 1098.4 338.062 1099.96 339.753C1101.51 341.443 1103.71 342.288 1106.54 342.288C1108.28 342.288 1109.82 342.129 1111.16 341.811C1112.49 341.493 1113.88 341.025 1115.32 340.405V344.071C1113.93 344.69 1112.55 345.142 1111.18 345.427C1109.82 345.711 1108.22 345.854 1106.36 345.854C1103.72 345.854 1101.41 345.318 1099.43 344.247C1097.47 343.159 1095.95 341.569 1094.86 339.476C1093.77 337.384 1093.23 334.823 1093.23 331.794C1093.23 328.831 1093.72 326.27 1094.71 324.111C1095.71 321.935 1097.12 320.261 1098.93 319.089C1100.75 317.918 1102.9 317.332 1105.36 317.332ZM1105.31 320.746C1103.08 320.746 1101.31 321.474 1099.98 322.931C1098.66 324.387 1097.87 326.421 1097.62 329.032H1112.18C1112.17 327.391 1111.91 325.952 1111.41 324.713C1110.92 323.458 1110.18 322.487 1109.17 321.801C1108.17 321.098 1106.88 320.746 1105.31 320.746ZM1145.24 345.854C1142.76 345.854 1140.57 345.343 1138.68 344.322C1136.79 343.301 1135.32 341.744 1134.26 339.652C1133.21 337.56 1132.68 334.924 1132.68 331.743C1132.68 328.412 1133.24 325.692 1134.34 323.583C1135.46 321.458 1137 319.884 1138.96 318.863C1140.92 317.842 1143.14 317.332 1145.64 317.332C1147.01 317.332 1148.33 317.474 1149.61 317.759C1150.89 318.026 1151.95 318.369 1152.77 318.788L1151.51 322.278C1150.68 321.943 1149.71 321.642 1148.6 321.374C1147.51 321.106 1146.49 320.972 1145.54 320.972C1143.63 320.972 1142.04 321.382 1140.77 322.203C1139.51 323.023 1138.57 324.228 1137.93 325.818C1137.31 327.408 1137 329.367 1137 331.693C1137 333.919 1137.3 335.819 1137.91 337.393C1138.52 338.966 1139.44 340.171 1140.64 341.008C1141.86 341.828 1143.39 342.238 1145.21 342.238C1146.67 342.238 1147.98 342.088 1149.15 341.786C1150.33 341.468 1151.39 341.1 1152.34 340.682V344.397C1151.42 344.866 1150.39 345.226 1149.25 345.477C1148.13 345.728 1146.79 345.854 1145.24 345.854ZM1181.21 331.542C1181.21 333.802 1180.92 335.819 1180.33 337.593C1179.74 339.368 1178.9 340.866 1177.79 342.088C1176.69 343.309 1175.35 344.247 1173.78 344.9C1172.22 345.536 1170.45 345.854 1168.48 345.854C1166.64 345.854 1164.95 345.536 1163.41 344.9C1161.88 344.247 1160.56 343.309 1159.44 342.088C1158.34 340.866 1157.47 339.368 1156.85 337.593C1156.25 335.819 1155.95 333.802 1155.95 331.542C1155.95 328.53 1156.46 325.969 1157.48 323.86C1158.5 321.734 1159.96 320.119 1161.85 319.014C1163.76 317.892 1166.03 317.332 1168.65 317.332C1171.17 317.332 1173.36 317.892 1175.23 319.014C1177.12 320.135 1178.59 321.759 1179.63 323.885C1180.68 325.994 1181.21 328.546 1181.21 331.542ZM1160.27 331.542C1160.27 333.752 1160.56 335.668 1161.15 337.292C1161.73 338.916 1162.64 340.171 1163.86 341.058C1165.08 341.945 1166.65 342.389 1168.58 342.389C1170.49 342.389 1172.05 341.945 1173.27 341.058C1174.51 340.171 1175.43 338.916 1176.01 337.292C1176.6 335.668 1176.89 333.752 1176.89 331.542C1176.89 329.35 1176.6 327.458 1176.01 325.868C1175.43 324.261 1174.52 323.023 1173.3 322.152C1172.08 321.282 1170.5 320.847 1168.55 320.847C1165.69 320.847 1163.59 321.792 1162.25 323.684C1160.93 325.575 1160.27 328.195 1160.27 331.542ZM1200.06 317.332C1203.32 317.332 1205.79 318.135 1207.46 319.742C1209.14 321.332 1209.97 323.893 1209.97 327.425V345.352H1205.86V327.701C1205.86 325.408 1205.33 323.692 1204.27 322.554C1203.24 321.416 1201.64 320.847 1199.48 320.847C1196.43 320.847 1194.29 321.709 1193.05 323.433C1191.81 325.157 1191.19 327.659 1191.19 330.94V345.352H1187.03V317.834H1190.39L1191.02 321.801H1191.24C1191.83 320.83 1192.57 320.018 1193.48 319.365C1194.38 318.696 1195.39 318.194 1196.52 317.859C1197.64 317.507 1198.82 317.332 1200.06 317.332ZM1230.2 317.332C1233.47 317.332 1235.94 318.135 1237.61 319.742C1239.28 321.332 1240.12 323.893 1240.12 327.425V345.352H1236V327.701C1236 325.408 1235.48 323.692 1234.42 322.554C1233.38 321.416 1231.78 320.847 1229.63 320.847C1226.58 320.847 1224.44 321.709 1223.2 323.433C1221.96 325.157 1221.34 327.659 1221.34 330.94V345.352H1217.17V317.834H1220.54L1221.16 321.801H1221.39C1221.98 320.83 1222.72 320.018 1223.62 319.365C1224.53 318.696 1225.54 318.194 1226.66 317.859C1227.78 317.507 1228.96 317.332 1230.2 317.332ZM1257.91 317.332C1260.26 317.332 1262.27 317.851 1263.94 318.888C1265.61 319.926 1266.89 321.382 1267.78 323.257C1268.67 325.115 1269.11 327.291 1269.11 329.785V332.371H1250.11C1250.16 335.602 1250.96 338.062 1252.52 339.753C1254.07 341.443 1256.27 342.288 1259.09 342.288C1260.83 342.288 1262.37 342.129 1263.71 341.811C1265.05 341.493 1266.44 341.025 1267.88 340.405V344.071C1266.49 344.69 1265.11 345.142 1263.74 345.427C1262.38 345.711 1260.78 345.854 1258.92 345.854C1256.27 345.854 1253.96 345.318 1251.99 344.247C1250.03 343.159 1248.51 341.569 1247.42 339.476C1246.33 337.384 1245.79 334.823 1245.79 331.794C1245.79 328.831 1246.28 326.27 1247.27 324.111C1248.27 321.935 1249.68 320.261 1251.49 319.089C1253.31 317.918 1255.45 317.332 1257.91 317.332ZM1257.86 320.746C1255.64 320.746 1253.86 321.474 1252.54 322.931C1251.22 324.387 1250.43 326.421 1250.18 329.032H1264.74C1264.73 327.391 1264.47 325.952 1263.97 324.713C1263.48 323.458 1262.73 322.487 1261.73 321.801C1260.73 321.098 1259.44 320.746 1257.86 320.746ZM1285.83 345.854C1283.35 345.854 1281.16 345.343 1279.27 344.322C1277.38 343.301 1275.91 341.744 1274.85 339.652C1273.8 337.56 1273.27 334.924 1273.27 331.743C1273.27 328.412 1273.82 325.692 1274.93 323.583C1276.05 321.458 1277.59 319.884 1279.55 318.863C1281.51 317.842 1283.73 317.332 1286.23 317.332C1287.6 317.332 1288.92 317.474 1290.19 317.759C1291.48 318.026 1292.54 318.369 1293.36 318.788L1292.1 322.278C1291.27 321.943 1290.3 321.642 1289.19 321.374C1288.1 321.106 1287.08 320.972 1286.13 320.972C1284.22 320.972 1282.63 321.382 1281.36 322.203C1280.1 323.023 1279.16 324.228 1278.52 325.818C1277.9 327.408 1277.59 329.367 1277.59 331.693C1277.59 333.919 1277.89 335.819 1278.49 337.393C1279.11 338.966 1280.03 340.171 1281.23 341.008C1282.45 341.828 1283.98 342.238 1285.8 342.238C1287.26 342.238 1288.57 342.088 1289.74 341.786C1290.91 341.468 1291.98 341.1 1292.93 340.682V344.397C1292.01 344.866 1290.98 345.226 1289.84 345.477C1288.72 345.728 1287.38 345.854 1285.83 345.854ZM1306.96 342.439C1307.65 342.439 1308.35 342.381 1309.07 342.263C1309.79 342.146 1310.37 342.004 1310.83 341.837V345.075C1310.34 345.293 1309.66 345.477 1308.79 345.628C1307.94 345.778 1307.1 345.854 1306.28 345.854C1304.83 345.854 1303.5 345.603 1302.31 345.1C1301.13 344.582 1300.17 343.711 1299.45 342.489C1298.75 341.267 1298.4 339.577 1298.4 337.418V321.098H1294.48V319.064L1298.42 317.432L1300.08 311.457H1302.59V317.834H1310.65V321.098H1302.59V337.292C1302.59 339.016 1302.98 340.305 1303.77 341.159C1304.57 342.012 1305.64 342.439 1306.96 342.439ZM1325.61 317.332C1327.95 317.332 1329.96 317.851 1331.63 318.888C1333.31 319.926 1334.59 321.382 1335.47 323.257C1336.36 325.115 1336.8 327.291 1336.8 329.785V332.371H1317.8C1317.85 335.602 1318.65 338.062 1320.21 339.753C1321.77 341.443 1323.96 342.288 1326.79 342.288C1328.53 342.288 1330.07 342.129 1331.41 341.811C1332.75 341.493 1334.13 341.025 1335.57 340.405V344.071C1334.18 344.69 1332.8 345.142 1331.43 345.427C1330.08 345.711 1328.47 345.854 1326.61 345.854C1323.97 345.854 1321.66 345.318 1319.68 344.247C1317.72 343.159 1316.2 341.569 1315.11 339.476C1314.02 337.384 1313.48 334.823 1313.48 331.794C1313.48 328.831 1313.97 326.27 1314.96 324.111C1315.97 321.935 1317.37 320.261 1319.18 319.089C1321 317.918 1323.15 317.332 1325.61 317.332ZM1325.56 320.746C1323.33 320.746 1321.56 321.474 1320.23 322.931C1318.91 324.387 1318.12 326.421 1317.87 329.032H1332.44C1332.42 327.391 1332.16 325.952 1331.66 324.713C1331.17 323.458 1330.43 322.487 1329.42 321.801C1328.42 321.098 1327.13 320.746 1325.56 320.746ZM1352.29 345.854C1348.81 345.854 1346.04 344.665 1344 342.288C1341.98 339.912 1340.96 336.38 1340.96 331.693C1340.96 326.956 1342 323.383 1344.08 320.972C1346.15 318.545 1348.92 317.332 1352.36 317.332C1353.82 317.332 1355.09 317.524 1356.18 317.909C1357.27 318.294 1358.21 318.813 1358.99 319.466C1359.78 320.102 1360.44 320.83 1360.98 321.65H1361.28C1361.21 321.131 1361.14 320.42 1361.08 319.516C1361.01 318.612 1360.98 317.876 1360.98 317.307V306.284H1365.14V345.352H1361.78L1361.15 341.435H1360.98C1360.46 342.255 1359.8 343 1358.99 343.669C1358.21 344.339 1357.26 344.875 1356.15 345.276C1355.07 345.661 1353.78 345.854 1352.29 345.854ZM1352.94 342.389C1355.89 342.389 1357.97 341.552 1359.19 339.878C1360.41 338.204 1361.03 335.719 1361.03 332.421V331.668C1361.03 328.17 1360.44 325.483 1359.27 323.609C1358.11 321.734 1356 320.797 1352.94 320.797C1350.38 320.797 1348.46 321.784 1347.19 323.759C1345.92 325.718 1345.28 328.396 1345.28 331.794C1345.28 335.175 1345.91 337.786 1347.17 339.627C1348.44 341.468 1350.36 342.389 1352.94 342.389ZM1393.45 342.439C1394.14 342.439 1394.84 342.381 1395.56 342.263C1396.28 342.146 1396.86 342.004 1397.32 341.837V345.075C1396.83 345.293 1396.15 345.477 1395.28 345.628C1394.43 345.778 1393.59 345.854 1392.77 345.854C1391.32 345.854 1389.99 345.603 1388.8 345.1C1387.62 344.582 1386.66 343.711 1385.94 342.489C1385.24 341.267 1384.89 339.577 1384.89 337.418V321.098H1380.97V319.064L1384.91 317.432L1386.57 311.457H1389.08V317.834H1397.14V321.098H1389.08V337.292C1389.08 339.016 1389.47 340.305 1390.26 341.159C1391.06 342.012 1392.13 342.439 1393.45 342.439ZM1425.23 331.542C1425.23 333.802 1424.94 335.819 1424.35 337.593C1423.76 339.368 1422.92 340.866 1421.81 342.088C1420.71 343.309 1419.37 344.247 1417.8 344.9C1416.24 345.536 1414.47 345.854 1412.5 345.854C1410.66 345.854 1408.97 345.536 1407.43 344.9C1405.9 344.247 1404.58 343.309 1403.46 342.088C1402.36 340.866 1401.49 339.368 1400.87 337.593C1400.27 335.819 1399.97 333.802 1399.97 331.542C1399.97 328.53 1400.48 325.969 1401.5 323.86C1402.52 321.734 1403.98 320.119 1405.87 319.014C1407.78 317.892 1410.05 317.332 1412.67 317.332C1415.19 317.332 1417.38 317.892 1419.25 319.014C1421.14 320.135 1422.61 321.759 1423.65 323.885C1424.7 325.994 1425.23 328.546 1425.23 331.542ZM1404.29 331.542C1404.29 333.752 1404.58 335.668 1405.17 337.292C1405.75 338.916 1406.66 340.171 1407.88 341.058C1409.1 341.945 1410.67 342.389 1412.6 342.389C1414.51 342.389 1416.07 341.945 1417.29 341.058C1418.53 340.171 1419.45 338.916 1420.03 337.292C1420.62 335.668 1420.91 333.752 1420.91 331.542C1420.91 329.35 1420.62 327.458 1420.03 325.868C1419.45 324.261 1418.54 323.023 1417.32 322.152C1416.1 321.282 1414.52 320.847 1412.57 320.847C1409.71 320.847 1407.61 321.792 1406.27 323.684C1404.95 325.575 1404.29 328.195 1404.29 331.542ZM1451.9 342.439C1452.59 342.439 1453.29 342.381 1454.01 342.263C1454.73 342.146 1455.32 342.004 1455.77 341.837V345.075C1455.28 345.293 1454.61 345.477 1453.74 345.628C1452.88 345.778 1452.04 345.854 1451.22 345.854C1449.77 345.854 1448.45 345.603 1447.26 345.1C1446.07 344.582 1445.12 343.711 1444.4 342.489C1443.69 341.267 1443.34 339.577 1443.34 337.418V321.098H1439.42V319.064L1443.37 317.432L1445.02 311.457H1447.53V317.834H1455.59V321.098H1447.53V337.292C1447.53 339.016 1447.93 340.305 1448.71 341.159C1449.52 342.012 1450.58 342.439 1451.9 342.439ZM1464.12 306.284V317.959C1464.12 318.629 1464.11 319.307 1464.07 319.993C1464.04 320.663 1463.98 321.282 1463.9 321.851H1464.17C1464.74 320.88 1465.46 320.068 1466.33 319.416C1467.22 318.746 1468.22 318.244 1469.34 317.909C1470.47 317.558 1471.65 317.382 1472.91 317.382C1475.12 317.382 1476.96 317.733 1478.43 318.436C1479.92 319.139 1481.04 320.227 1481.77 321.7C1482.53 323.173 1482.9 325.082 1482.9 327.425V345.352H1478.79V327.701C1478.79 325.408 1478.26 323.692 1477.2 322.554C1476.17 321.416 1474.57 320.847 1472.41 320.847C1470.37 320.847 1468.73 321.24 1467.51 322.027C1466.31 322.797 1465.44 323.935 1464.9 325.441C1464.38 326.948 1464.12 328.789 1464.12 330.965V345.352H1459.95V306.284H1464.12ZM1500.7 317.332C1503.04 317.332 1505.05 317.851 1506.72 318.888C1508.4 319.926 1509.68 321.382 1510.56 323.257C1511.45 325.115 1511.89 327.291 1511.89 329.785V332.371H1492.89C1492.94 335.602 1493.74 338.062 1495.3 339.753C1496.86 341.443 1499.05 342.288 1501.88 342.288C1503.62 342.288 1505.16 342.129 1506.5 341.811C1507.84 341.493 1509.22 341.025 1510.66 340.405V344.071C1509.27 344.69 1507.89 345.142 1506.52 345.427C1505.17 345.711 1503.56 345.854 1501.7 345.854C1499.06 345.854 1496.75 345.318 1494.77 344.247C1492.81 343.159 1491.29 341.569 1490.2 339.476C1489.11 337.384 1488.57 334.823 1488.57 331.794C1488.57 328.831 1489.06 326.27 1490.05 324.111C1491.06 321.935 1492.46 320.261 1494.27 319.089C1496.09 317.918 1498.24 317.332 1500.7 317.332ZM1500.65 320.746C1498.42 320.746 1496.65 321.474 1495.32 322.931C1494 324.387 1493.21 326.421 1492.96 329.032H1507.53C1507.51 327.391 1507.25 325.952 1506.75 324.713C1506.26 323.458 1505.52 322.487 1504.51 321.801C1503.51 321.098 1502.22 320.746 1500.65 320.746ZM723.298 415.854C720.821 415.854 718.637 415.343 716.745 414.322C714.854 413.301 713.381 411.744 712.326 409.652C711.272 407.56 710.745 404.924 710.745 401.743C710.745 398.412 711.297 395.692 712.402 393.583C713.523 391.458 715.063 389.884 717.021 388.863C718.98 387.842 721.206 387.332 723.7 387.332C725.073 387.332 726.395 387.474 727.667 387.759C728.956 388.026 730.01 388.369 730.831 388.788L729.575 392.278C728.738 391.943 727.767 391.642 726.663 391.374C725.575 391.106 724.554 390.972 723.6 390.972C721.691 390.972 720.101 391.382 718.829 392.203C717.574 393.023 716.628 394.228 715.992 395.818C715.373 397.408 715.063 399.367 715.063 401.693C715.063 403.919 715.364 405.819 715.967 407.393C716.586 408.966 717.499 410.171 718.704 411.008C719.926 411.828 721.449 412.238 723.273 412.238C724.729 412.238 726.043 412.088 727.215 411.786C728.387 411.468 729.45 411.1 730.404 410.682V414.397C729.483 414.866 728.454 415.226 727.316 415.477C726.194 415.728 724.855 415.854 723.298 415.854ZM745.837 387.382C749.118 387.382 751.554 388.118 753.144 389.591C754.734 391.064 755.529 393.416 755.529 396.647V415.352H752.491L751.687 411.284H751.487C750.717 412.288 749.913 413.134 749.076 413.82C748.239 414.49 747.269 415 746.164 415.352C745.076 415.686 743.737 415.854 742.147 415.854C740.473 415.854 738.983 415.561 737.677 414.975C736.389 414.389 735.368 413.502 734.614 412.314C733.878 411.125 733.51 409.619 733.51 407.794C733.51 405.049 734.598 402.94 736.774 401.467C738.95 399.994 742.264 399.191 746.716 399.057L751.461 398.856V397.174C751.461 394.797 750.951 393.131 749.93 392.177C748.909 391.223 747.469 390.746 745.611 390.746C744.172 390.746 742.799 390.956 741.494 391.374C740.188 391.792 738.95 392.286 737.778 392.855L736.497 389.692C737.736 389.056 739.159 388.512 740.766 388.06C742.373 387.608 744.063 387.382 745.837 387.382ZM751.411 401.794L747.218 401.969C743.787 402.103 741.368 402.664 739.962 403.652C738.556 404.639 737.853 406.037 737.853 407.844C737.853 409.418 738.33 410.581 739.284 411.334C740.238 412.088 741.502 412.464 743.076 412.464C745.519 412.464 747.52 411.786 749.076 410.431C750.633 409.075 751.411 407.041 751.411 404.329V401.794ZM766.895 376.284V386.051C766.895 387.173 766.862 388.261 766.795 389.315C766.744 390.37 766.703 391.19 766.669 391.776H766.895C767.648 390.537 768.736 389.491 770.159 388.637C771.582 387.784 773.398 387.357 775.607 387.357C779.055 387.357 781.801 388.554 783.843 390.947C785.901 393.324 786.931 396.864 786.931 401.568C786.931 404.664 786.462 407.275 785.525 409.401C784.587 411.527 783.265 413.134 781.558 414.222C779.85 415.31 777.834 415.854 775.507 415.854C773.331 415.854 771.54 415.452 770.134 414.649C768.745 413.828 767.673 412.832 766.92 411.661H766.594L765.74 415.352H762.727V376.284H766.895ZM774.929 390.847C772.938 390.847 771.356 391.24 770.184 392.027C769.012 392.797 768.167 393.968 767.648 395.542C767.146 397.098 766.895 399.074 766.895 401.467V401.693C766.895 405.158 767.473 407.811 768.627 409.652C769.782 411.477 771.883 412.389 774.929 412.389C777.49 412.389 779.407 411.452 780.679 409.577C781.968 407.702 782.612 405.024 782.612 401.542C782.612 397.994 781.976 395.324 780.704 393.533C779.449 391.742 777.524 390.847 774.929 390.847ZM797.017 415.352H792.824V376.284H797.017V415.352ZM815.036 387.332C817.38 387.332 819.388 387.851 821.062 388.888C822.736 389.926 824.016 391.382 824.903 393.257C825.791 395.115 826.234 397.291 826.234 399.785V402.371H807.228C807.278 405.602 808.081 408.062 809.638 409.753C811.195 411.443 813.388 412.288 816.216 412.288C817.957 412.288 819.497 412.129 820.836 411.811C822.175 411.493 823.564 411.025 825.004 410.405V414.071C823.615 414.69 822.234 415.142 820.861 415.427C819.505 415.711 817.898 415.854 816.041 415.854C813.396 415.854 811.086 415.318 809.111 414.247C807.153 413.159 805.629 411.569 804.541 409.476C803.453 407.384 802.909 404.823 802.909 401.794C802.909 398.831 803.403 396.27 804.391 394.111C805.395 391.935 806.801 390.261 808.609 389.089C810.433 387.918 812.576 387.332 815.036 387.332ZM814.986 390.746C812.76 390.746 810.986 391.474 809.663 392.931C808.341 394.387 807.554 396.421 807.303 399.032H821.865C821.849 397.391 821.589 395.952 821.087 394.713C820.602 393.458 819.857 392.487 818.853 391.801C817.848 391.098 816.559 390.746 814.986 390.746ZM831.298 412.74C831.298 411.569 831.583 410.74 832.152 410.255C832.721 409.753 833.416 409.502 834.236 409.502C835.09 409.502 835.809 409.753 836.395 410.255C836.981 410.74 837.274 411.569 837.274 412.74C837.274 413.895 836.981 414.741 836.395 415.276C835.809 415.795 835.09 416.055 834.236 416.055C833.416 416.055 832.721 415.795 832.152 415.276C831.583 414.741 831.298 413.895 831.298 412.74Z" fill="#8C8C8C"/>
</g>
<defs>
<filter id="filter0_d_971_176" x="987.164" y="105.622" width="170.703" height="143.177" filterUnits="userSpaceOnUse" color-interpolation-filters="sRGB">
<feFlood flood-opacity="0" result="BackgroundImageFix"/>
<feColorMatrix in="SourceAlpha" type="matrix" values="0 0 0 0 0 0 0 0 0 0 0 0 0 0 0 0 0 0 127 0" result="hardAlpha"/>
<feOffset dy="1.27032"/>
<feGaussianBlur stdDeviation="13.9735"/>
<feComposite in2="hardAlpha" operator="out"/>
<feColorMatrix type="matrix" values="0 0 0 0 0 0 0 0 0 0 0 0 0 0 0 0 0 0 1 0"/>
<feBlend mode="normal" in2="BackgroundImageFix" result="effect1_dropShadow_971_176"/>
<feBlend mode="normal" in="SourceGraphic" in2="effect1_dropShadow_971_176" result="shape"/>
</filter>
</defs>
</svg>
