<svg width="1548" height="450" viewBox="0 0 1548 450" fill="none" xmlns="http://www.w3.org/2000/svg">
<mask id="mask0_971_178" style="mask-type:alpha" maskUnits="userSpaceOnUse" x="0" y="0" width="1548" height="450">
<rect x="0.972961" y="0.359375" width="1546.98" height="449.018" fill="white"/>
</mask>
<g mask="url(#mask0_971_178)">
<path d="M49.4177 64.8705C49.4177 67.0465 48.882 68.9212 47.8108 70.4946C46.7563 72.068 45.2331 73.2731 43.2412 74.1101C41.2661 74.947 38.906 75.3654 36.1609 75.3654C34.8219 75.3654 33.5414 75.2901 32.3195 75.1395C31.0976 74.9888 29.9427 74.7712 28.8547 74.4867C27.7834 74.1854 26.8043 73.8255 25.9171 73.4071V67.7328C27.4068 68.3856 29.0723 68.9798 30.9135 69.5154C32.7547 70.0343 34.6294 70.2937 36.5376 70.2937C38.0942 70.2937 39.3831 70.0929 40.4041 69.6912C41.4419 69.2727 42.2118 68.6869 42.714 67.9336C43.2161 67.1637 43.4672 66.2682 43.4672 65.2471C43.4672 64.1592 43.1743 63.2385 42.5884 62.4853C42.0026 61.7321 41.1155 61.0458 39.9271 60.4265C38.7554 59.7905 37.2824 59.1126 35.5082 58.3928C34.303 57.9074 33.1481 57.355 32.0433 56.7357C30.9553 56.1164 29.9845 55.3883 29.1309 54.5514C28.2772 53.7145 27.5993 52.7269 27.0972 51.5887C26.6118 50.4338 26.3691 49.078 26.3691 47.5213C26.3691 45.4458 26.8628 43.6715 27.8504 42.1985C28.8547 40.7256 30.2607 39.5957 32.0684 38.809C33.8929 38.0223 36.0187 37.629 38.4457 37.629C40.3706 37.629 42.1784 37.8298 43.8689 38.2316C45.5762 38.6333 47.2501 39.2024 48.8904 39.9389L46.9822 44.7846C45.4758 44.1653 44.0112 43.6715 42.5884 43.3033C41.1824 42.935 39.7429 42.7509 38.27 42.7509C36.9979 42.7509 35.9182 42.9434 35.0311 43.3284C34.144 43.7133 33.4661 44.2573 32.9974 44.9603C32.5455 45.6466 32.3195 46.4668 32.3195 47.4209C32.3195 48.4921 32.579 49.396 33.0978 50.1325C33.6335 50.8522 34.4536 51.5134 35.5584 52.116C36.6798 52.7185 38.1193 53.3881 39.8768 54.1246C41.9022 54.9615 43.6179 55.8402 45.0239 56.7608C46.4466 57.6814 47.5346 58.7862 48.2878 60.075C49.0411 61.3471 49.4177 62.9456 49.4177 64.8705ZM64.8513 70.595C65.6213 70.595 66.3829 70.5281 67.1361 70.3942C67.8893 70.2435 68.5756 70.0678 69.1949 69.8669V74.336C68.5421 74.6206 67.6968 74.8633 66.659 75.0641C65.6213 75.265 64.5416 75.3654 63.4202 75.3654C61.8468 75.3654 60.4324 75.106 59.177 74.5871C57.9217 74.0515 56.9257 73.1392 56.1892 71.8504C55.4528 70.5615 55.0845 68.7789 55.0845 66.5025V51.5636H51.2933V48.9273L55.3607 46.8434L57.294 40.8929H61.0099V47.0694H68.9689V51.5636H61.0099V66.4272C61.0099 67.8332 61.3614 68.8793 62.0644 69.5656C62.7674 70.2519 63.6964 70.595 64.8513 70.595ZM84.5281 46.5421C87.0054 46.5421 89.1311 47.0526 90.9054 48.0737C92.6796 49.0947 94.0438 50.5426 94.9979 52.4172C95.952 54.2919 96.429 56.5349 96.429 59.146V62.3096H77.8746C77.9416 65.0044 78.6613 67.08 80.0339 68.5362C81.4231 69.9924 83.3648 70.7206 85.8588 70.7206C87.633 70.7206 89.2232 70.5532 90.6292 70.2184C92.0519 69.8669 93.5165 69.3564 95.023 68.6869V73.4824C93.6337 74.1352 92.2193 74.6122 90.7798 74.9135C89.3403 75.2148 87.6163 75.3654 85.6077 75.3654C82.8794 75.3654 80.4774 74.8382 78.4019 73.7837C76.3431 72.7124 74.7278 71.1223 73.5561 69.0133C72.4012 66.9042 71.8237 64.2847 71.8237 61.1546C71.8237 58.0413 72.351 55.3967 73.4055 53.2207C74.46 51.0447 75.9413 49.3876 77.8495 48.2494C79.7577 47.1112 81.9839 46.5421 84.5281 46.5421ZM84.5281 50.9861C82.6701 50.9861 81.1637 51.5887 80.0088 52.7939C78.8705 53.999 78.201 55.7649 78.0002 58.0915H90.6543C90.6376 56.7022 90.4032 55.472 89.9513 54.4007C89.5161 53.3295 88.8466 52.4926 87.9427 51.89C87.0556 51.2874 85.9174 50.9861 84.5281 50.9861ZM115.955 46.5421C119.253 46.5421 121.897 47.7473 123.889 50.1576C125.898 52.5679 126.902 56.1499 126.902 60.9036C126.902 64.0504 126.433 66.7034 125.496 68.8626C124.575 71.0051 123.278 72.6287 121.604 73.7334C119.947 74.8214 118.014 75.3654 115.804 75.3654C114.398 75.3654 113.177 75.1813 112.139 74.8131C111.101 74.4448 110.214 73.9678 109.477 73.3819C108.741 72.7794 108.122 72.1266 107.619 71.4236H107.268C107.352 72.0931 107.427 72.8379 107.494 73.6581C107.578 74.4616 107.619 75.198 107.619 75.8676V87.191H101.694V47.0694H106.515L107.343 50.9108H107.619C108.138 50.1241 108.766 49.396 109.503 48.7265C110.256 48.0569 111.16 47.5297 112.214 47.1447C113.285 46.743 114.532 46.5421 115.955 46.5421ZM114.373 51.3627C112.75 51.3627 111.444 51.6891 110.457 52.3419C109.486 52.978 108.774 53.9404 108.322 55.2293C107.887 56.5181 107.653 58.1334 107.619 60.075V60.9036C107.619 62.9624 107.829 64.7115 108.247 66.151C108.682 67.5738 109.394 68.6617 110.381 69.415C111.386 70.1515 112.741 70.5197 114.449 70.5197C115.888 70.5197 117.077 70.1263 118.014 69.3396C118.968 68.5529 119.679 67.4315 120.148 65.9753C120.617 64.519 120.851 62.8034 120.851 60.8282C120.851 57.8321 120.315 55.5055 119.244 53.8484C118.19 52.1913 116.566 51.3627 114.373 51.3627ZM165.854 46.5421C165.854 48.1992 165.519 49.6387 164.85 50.8606C164.18 52.0825 163.259 53.0868 162.088 53.8735C160.933 54.6434 159.594 55.1958 158.071 55.5306V55.7063C161 56.0746 163.209 56.9952 164.699 58.4681C166.205 59.9411 166.959 61.8911 166.959 64.3182C166.959 66.4439 166.448 68.3437 165.427 70.0175C164.406 71.6746 162.841 72.9802 160.732 73.9343C158.623 74.8884 155.911 75.3654 152.597 75.3654C150.605 75.3654 148.756 75.2064 147.048 74.8884C145.358 74.5704 143.751 74.0598 142.228 73.3568V68.1094C143.784 68.8793 145.442 69.4736 147.199 69.892C148.957 70.3105 150.622 70.5197 152.195 70.5197C155.259 70.5197 157.443 69.9506 158.748 68.8124C160.054 67.6575 160.707 66.0673 160.707 64.042C160.707 62.7364 160.364 61.6651 159.677 60.8282C159.008 59.9913 157.962 59.3636 156.539 58.9452C155.133 58.5267 153.317 58.3175 151.091 58.3175H147.852V53.5722H151.116C153.242 53.5722 154.949 53.3211 156.238 52.819C157.527 52.3001 158.456 51.5887 159.025 50.6848C159.61 49.781 159.903 48.7265 159.903 47.5213C159.903 45.9479 159.393 44.726 158.372 43.8556C157.351 42.9685 155.836 42.5249 153.827 42.5249C152.589 42.5249 151.459 42.6672 150.438 42.9517C149.434 43.2363 148.505 43.5962 147.651 44.0314C146.797 44.4666 145.985 44.9352 145.216 45.4374L142.378 41.3449C143.768 40.3071 145.425 39.4283 147.35 38.7086C149.275 37.9888 151.517 37.629 154.078 37.629C157.845 37.629 160.749 38.4408 162.791 40.0644C164.833 41.6713 165.854 43.8305 165.854 46.5421Z" fill="#8C8C8C"/>
<path d="M42.7498 311.403C40.7245 311.403 38.9 311.754 37.2764 312.457C35.6695 313.144 34.297 314.148 33.1588 315.47C32.0373 316.776 31.1753 318.358 30.5727 320.216C29.9701 322.074 29.6688 324.166 29.6688 326.492C29.6688 329.572 30.1459 332.25 31.1 334.527C32.0708 336.787 33.5103 338.536 35.4184 339.774C37.3434 341.013 39.7453 341.632 42.6243 341.632C44.2646 341.632 45.8046 341.498 47.244 341.231C48.7003 340.946 50.1147 340.594 51.4872 340.176V343.892C50.1481 344.394 48.7421 344.762 47.2692 344.997C45.7962 345.248 44.047 345.373 42.0217 345.373C38.2891 345.373 35.1674 344.603 32.6566 343.063C30.1626 341.507 28.2879 339.314 27.0326 336.485C25.7939 333.656 25.1746 330.317 25.1746 326.467C25.1746 323.689 25.5596 321.153 26.3296 318.86C27.1163 316.55 28.2545 314.558 29.7442 312.884C31.2506 311.21 33.0918 309.922 35.2678 309.018C37.4605 308.097 39.9713 307.637 42.8 307.637C44.658 307.637 46.449 307.821 48.173 308.189C49.8971 308.557 51.4537 309.085 52.843 309.771L51.1357 313.386C49.964 312.851 48.6752 312.39 47.2692 312.005C45.8799 311.604 44.3734 311.403 42.7498 311.403ZM81.1567 331.062C81.1567 333.322 80.8638 335.339 80.278 337.113C79.6921 338.887 78.8469 340.385 77.7421 341.607C76.6374 342.829 75.2983 343.766 73.7249 344.419C72.1683 345.055 70.4024 345.373 68.4273 345.373C66.5861 345.373 64.8955 345.055 63.3556 344.419C61.8324 343.766 60.5101 342.829 59.3886 341.607C58.2839 340.385 57.4219 338.887 56.8025 337.113C56.2 335.339 55.8987 333.322 55.8987 331.062C55.8987 328.049 56.4092 325.488 57.4302 323.379C58.4513 321.253 59.9075 319.638 61.7989 318.533C63.7071 317.412 65.9751 316.851 68.603 316.851C71.1138 316.851 73.3065 317.412 75.1812 318.533C77.0726 319.655 78.5372 321.278 79.575 323.404C80.6295 325.513 81.1567 328.066 81.1567 331.062ZM60.2171 331.062C60.2171 333.271 60.5101 335.188 61.0959 336.812C61.6817 338.435 62.5856 339.691 63.8075 340.578C65.0294 341.465 66.6028 341.908 68.5277 341.908C70.4359 341.908 72.0009 341.465 73.2228 340.578C74.4614 339.691 75.3737 338.435 75.9595 336.812C76.5453 335.188 76.8383 333.271 76.8383 331.062C76.8383 328.869 76.5453 326.978 75.9595 325.388C75.3737 323.781 74.4698 322.542 73.2479 321.672C72.026 320.801 70.4442 320.366 68.5026 320.366C65.6404 320.366 63.5397 321.312 62.2006 323.203C60.8783 325.095 60.2171 327.714 60.2171 331.062ZM100.005 316.851C103.269 316.851 105.738 317.655 107.412 319.262C109.085 320.852 109.922 323.413 109.922 326.944V344.871H105.805V327.221C105.805 324.927 105.278 323.212 104.223 322.074C103.185 320.935 101.587 320.366 99.4275 320.366C96.3811 320.366 94.2386 321.228 93 322.952C91.7614 324.676 91.1421 327.179 91.1421 330.459V344.871H86.9742V317.353H90.3386L90.9663 321.32H91.1923C91.7781 320.35 92.523 319.538 93.4268 318.885C94.3307 318.215 95.3434 317.713 96.4648 317.378C97.5863 317.027 98.7663 316.851 100.005 316.851ZM126.009 341.959C126.695 341.959 127.398 341.9 128.118 341.783C128.838 341.666 129.423 341.523 129.875 341.356V344.595C129.39 344.813 128.712 344.997 127.842 345.147C126.988 345.298 126.151 345.373 125.331 345.373C123.875 345.373 122.552 345.122 121.364 344.62C120.176 344.101 119.221 343.231 118.502 342.009C117.799 340.787 117.447 339.096 117.447 336.937V320.617H113.53V318.584L117.472 316.952L119.129 310.976H121.64V317.353H129.7V320.617H121.64V336.812C121.64 338.536 122.033 339.825 122.82 340.678C123.624 341.532 124.687 341.959 126.009 341.959ZM138.229 317.353V344.871H134.061V317.353H138.229ZM136.195 307.059C136.881 307.059 137.467 307.285 137.953 307.737C138.455 308.172 138.706 308.859 138.706 309.796C138.706 310.717 138.455 311.403 137.953 311.855C137.467 312.307 136.881 312.533 136.195 312.533C135.475 312.533 134.873 312.307 134.387 311.855C133.919 311.403 133.684 310.717 133.684 309.796C133.684 308.859 133.919 308.172 134.387 307.737C134.873 307.285 135.475 307.059 136.195 307.059ZM158.709 316.851C161.973 316.851 164.442 317.655 166.116 319.262C167.789 320.852 168.626 323.413 168.626 326.944V344.871H164.509V327.221C164.509 324.927 163.982 323.212 162.927 322.074C161.889 320.935 160.291 320.366 158.131 320.366C155.085 320.366 152.943 321.228 151.704 322.952C150.465 324.676 149.846 327.179 149.846 330.459V344.871H145.678V317.353H149.043L149.67 321.32H149.896C150.482 320.35 151.227 319.538 152.131 318.885C153.035 318.215 154.047 317.713 155.169 317.378C156.29 317.027 157.47 316.851 158.709 316.851ZM198.547 317.353V344.871H195.132L194.53 341.005H194.304C193.735 341.959 192.998 342.762 192.094 343.415C191.191 344.068 190.169 344.553 189.031 344.871C187.91 345.206 186.713 345.373 185.441 345.373C183.265 345.373 181.44 345.022 179.967 344.319C178.495 343.616 177.381 342.528 176.628 341.055C175.892 339.582 175.523 337.69 175.523 335.38V317.353H179.742V335.079C179.742 337.372 180.26 339.088 181.298 340.226C182.336 341.348 183.918 341.908 186.043 341.908C188.086 341.908 189.709 341.523 190.914 340.753C192.136 339.984 193.015 338.854 193.551 337.364C194.086 335.858 194.354 334.016 194.354 331.84V317.353H198.547ZM216.567 316.851C218.91 316.851 220.919 317.37 222.592 318.408C224.266 319.446 225.547 320.902 226.434 322.777C227.321 324.635 227.765 326.81 227.765 329.304V331.891H208.758C208.808 335.121 209.612 337.582 211.169 339.272C212.725 340.963 214.918 341.808 217.747 341.808C219.488 341.808 221.027 341.649 222.367 341.331C223.706 341.013 225.095 340.544 226.534 339.925V343.591C225.145 344.21 223.764 344.662 222.392 344.946C221.036 345.231 219.429 345.373 217.571 345.373C214.926 345.373 212.616 344.838 210.641 343.766C208.683 342.678 207.16 341.088 206.072 338.996C204.984 336.904 204.44 334.343 204.44 331.313C204.44 328.35 204.934 325.789 205.921 323.63C206.925 321.454 208.331 319.78 210.139 318.609C211.964 317.437 214.106 316.851 216.567 316.851ZM216.516 320.266C214.29 320.266 212.516 320.994 211.194 322.45C209.871 323.906 209.085 325.94 208.834 328.551H223.396C223.379 326.911 223.12 325.471 222.618 324.233C222.132 322.977 221.387 322.007 220.383 321.32C219.379 320.617 218.09 320.266 216.516 320.266ZM249.593 305.804V317.479C249.593 318.148 249.576 318.826 249.543 319.513C249.509 320.182 249.451 320.801 249.367 321.371H249.643C250.213 320.4 250.932 319.588 251.803 318.935C252.69 318.266 253.694 317.763 254.816 317.429C255.937 317.077 257.125 316.901 258.381 316.901C260.59 316.901 262.431 317.253 263.904 317.956C265.394 318.659 266.507 319.747 267.244 321.22C267.997 322.693 268.374 324.601 268.374 326.944V344.871H264.256V327.221C264.256 324.927 263.729 323.212 262.674 322.074C261.636 320.935 260.038 320.366 257.879 320.366C255.837 320.366 254.205 320.76 252.983 321.546C251.778 322.316 250.907 323.454 250.372 324.961C249.853 326.467 249.593 328.309 249.593 330.485V344.871H245.425V305.804H249.593ZM299.298 331.062C299.298 333.322 299.006 335.339 298.42 337.113C297.834 338.887 296.989 340.385 295.884 341.607C294.779 342.829 293.44 343.766 291.867 344.419C290.31 345.055 288.544 345.373 286.569 345.373C284.728 345.373 283.037 345.055 281.497 344.419C279.974 343.766 278.652 342.829 277.53 341.607C276.426 340.385 275.564 338.887 274.944 337.113C274.342 335.339 274.04 333.322 274.04 331.062C274.04 328.049 274.551 325.488 275.572 323.379C276.593 321.253 278.049 319.638 279.941 318.533C281.849 317.412 284.117 316.851 286.745 316.851C289.255 316.851 291.448 317.412 293.323 318.533C295.214 319.655 296.679 321.278 297.717 323.404C298.771 325.513 299.298 328.066 299.298 331.062ZM278.359 331.062C278.359 333.271 278.652 335.188 279.238 336.812C279.823 338.435 280.727 339.691 281.949 340.578C283.171 341.465 284.745 341.908 286.669 341.908C288.578 341.908 290.143 341.465 291.364 340.578C292.603 339.691 293.515 338.435 294.101 336.812C294.687 335.188 294.98 333.271 294.98 331.062C294.98 328.869 294.687 326.978 294.101 325.388C293.515 323.781 292.611 322.542 291.39 321.672C290.168 320.801 288.586 320.366 286.644 320.366C283.782 320.366 281.681 321.312 280.342 323.203C279.02 325.095 278.359 327.714 278.359 331.062ZM309.309 344.871H305.116V305.804H309.309V344.871ZM326.525 345.373C323.044 345.373 320.282 344.185 318.24 341.808C316.214 339.431 315.202 335.899 315.202 331.213C315.202 326.476 316.239 322.902 318.315 320.492C320.391 318.065 323.152 316.851 326.6 316.851C328.057 316.851 329.329 317.044 330.417 317.429C331.505 317.814 332.442 318.333 333.229 318.985C334.016 319.621 334.677 320.35 335.212 321.17H335.514C335.447 320.651 335.38 319.939 335.313 319.036C335.246 318.132 335.212 317.395 335.212 316.826V305.804H339.38V344.871H336.016L335.388 340.954H335.212C334.693 341.775 334.032 342.519 333.229 343.189C332.442 343.858 331.496 344.394 330.392 344.796C329.304 345.181 328.015 345.373 326.525 345.373ZM327.178 341.908C330.124 341.908 332.208 341.072 333.43 339.398C334.652 337.724 335.263 335.238 335.263 331.941V331.188C335.263 327.689 334.677 325.003 333.505 323.128C332.35 321.253 330.241 320.316 327.178 320.316C324.617 320.316 322.7 321.304 321.428 323.279C320.156 325.237 319.52 327.915 319.52 331.313C319.52 334.694 320.148 337.305 321.403 339.147C322.675 340.988 324.6 341.908 327.178 341.908ZM350.997 317.353V344.871H346.83V317.353H350.997ZM348.964 307.059C349.65 307.059 350.236 307.285 350.721 307.737C351.223 308.172 351.474 308.859 351.474 309.796C351.474 310.717 351.223 311.403 350.721 311.855C350.236 312.307 349.65 312.533 348.964 312.533C348.244 312.533 347.641 312.307 347.156 311.855C346.687 311.403 346.453 310.717 346.453 309.796C346.453 308.859 346.687 308.172 347.156 307.737C347.641 307.285 348.244 307.059 348.964 307.059ZM371.478 316.851C374.742 316.851 377.211 317.655 378.884 319.262C380.558 320.852 381.395 323.413 381.395 326.944V344.871H377.277V327.221C377.277 324.927 376.75 323.212 375.696 322.074C374.658 320.935 373.059 320.366 370.9 320.366C367.854 320.366 365.711 321.228 364.473 322.952C363.234 324.676 362.615 327.179 362.615 330.459V344.871H358.447V317.353H361.811L362.439 321.32H362.665C363.251 320.35 363.996 319.538 364.9 318.885C365.803 318.215 366.816 317.713 367.938 317.378C369.059 317.027 370.239 316.851 371.478 316.851ZM396.276 357.224C392.661 357.224 389.874 356.546 387.916 355.19C385.957 353.851 384.978 351.968 384.978 349.541C384.978 347.817 385.522 346.344 386.61 345.122C387.715 343.9 389.238 343.088 391.18 342.687C390.46 342.352 389.841 341.85 389.322 341.18C388.819 340.511 388.568 339.741 388.568 338.87C388.568 337.866 388.845 336.987 389.397 336.234C389.966 335.464 390.828 334.728 391.983 334.025C390.544 333.439 389.372 332.451 388.468 331.062C387.581 329.656 387.137 328.024 387.137 326.166C387.137 324.191 387.547 322.509 388.368 321.119C389.188 319.713 390.376 318.642 391.933 317.906C393.489 317.169 395.373 316.801 397.582 316.801C398.067 316.801 398.553 316.826 399.038 316.876C399.54 316.91 400.017 316.968 400.469 317.052C400.921 317.119 401.315 317.203 401.649 317.303H411.09V319.99L406.018 320.617C406.52 321.27 406.939 322.057 407.273 322.977C407.608 323.898 407.776 324.919 407.776 326.041C407.776 328.786 406.847 330.97 404.989 332.594C403.131 334.2 400.578 335.004 397.331 335.004C396.561 335.004 395.774 334.937 394.971 334.803C394.151 335.255 393.523 335.757 393.088 336.309C392.669 336.862 392.46 337.498 392.46 338.218C392.46 338.753 392.619 339.18 392.937 339.498C393.272 339.816 393.749 340.05 394.368 340.201C394.988 340.335 395.732 340.402 396.603 340.402H401.449C404.445 340.402 406.738 341.03 408.328 342.285C409.935 343.54 410.738 345.373 410.738 347.784C410.738 350.83 409.5 353.165 407.022 354.789C404.545 356.412 400.963 357.224 396.276 357.224ZM396.402 353.96C398.678 353.96 400.561 353.726 402.051 353.257C403.558 352.805 404.679 352.144 405.415 351.273C406.169 350.42 406.545 349.399 406.545 348.21C406.545 347.106 406.294 346.269 405.792 345.7C405.29 345.147 404.553 344.779 403.583 344.595C402.612 344.394 401.423 344.294 400.017 344.294H395.247C394.008 344.294 392.929 344.486 392.008 344.871C391.088 345.256 390.376 345.825 389.874 346.578C389.389 347.332 389.146 348.269 389.146 349.39C389.146 350.88 389.774 352.01 391.029 352.78C392.284 353.567 394.075 353.96 396.402 353.96ZM397.482 331.966C399.473 331.966 400.971 331.464 401.976 330.459C402.98 329.455 403.482 327.991 403.482 326.066C403.482 324.007 402.972 322.467 401.951 321.446C400.93 320.408 399.423 319.889 397.431 319.889C395.523 319.889 394.05 320.425 393.012 321.496C391.991 322.551 391.481 324.099 391.481 326.141C391.481 328.016 392 329.455 393.038 330.459C394.075 331.464 395.557 331.966 397.482 331.966ZM436.885 345.373C433.404 345.373 430.642 344.185 428.6 341.808C426.575 339.431 425.562 335.899 425.562 331.213C425.562 326.476 426.6 322.902 428.675 320.492C430.751 318.065 433.513 316.851 436.961 316.851C438.417 316.851 439.689 317.044 440.777 317.429C441.865 317.814 442.802 318.333 443.589 318.985C444.376 319.621 445.037 320.35 445.572 321.17H445.874C445.807 320.651 445.74 319.939 445.673 319.036C445.606 318.132 445.572 317.395 445.572 316.826V305.804H449.74V344.871H446.376L445.748 340.954H445.572C445.054 341.775 444.392 342.519 443.589 343.189C442.802 343.858 441.857 344.394 440.752 344.796C439.664 345.181 438.375 345.373 436.885 345.373ZM437.538 341.908C440.484 341.908 442.568 341.072 443.79 339.398C445.012 337.724 445.623 335.238 445.623 331.941V331.188C445.623 327.689 445.037 325.003 443.865 323.128C442.71 321.253 440.601 320.316 437.538 320.316C434.977 320.316 433.061 321.304 431.789 323.279C430.516 325.237 429.88 327.915 429.88 331.313C429.88 334.694 430.508 337.305 431.763 339.147C433.036 340.988 434.96 341.908 437.538 341.908ZM480.916 331.062C480.916 333.322 480.623 335.339 480.038 337.113C479.452 338.887 478.606 340.385 477.502 341.607C476.397 342.829 475.058 343.766 473.485 344.419C471.928 345.055 470.162 345.373 468.187 345.373C466.346 345.373 464.655 345.055 463.115 344.419C461.592 343.766 460.27 342.829 459.148 341.607C458.043 340.385 457.181 338.887 456.562 337.113C455.96 335.339 455.658 333.322 455.658 331.062C455.658 328.049 456.169 325.488 457.19 323.379C458.211 321.253 459.667 319.638 461.558 318.533C463.467 317.412 465.735 316.851 468.363 316.851C470.873 316.851 473.066 317.412 474.941 318.533C476.832 319.655 478.297 321.278 479.335 323.404C480.389 325.513 480.916 328.066 480.916 331.062ZM459.977 331.062C459.977 333.271 460.27 335.188 460.855 336.812C461.441 338.435 462.345 339.691 463.567 340.578C464.789 341.465 466.362 341.908 468.287 341.908C470.195 341.908 471.76 341.465 472.982 340.578C474.221 339.691 475.133 338.435 475.719 336.812C476.305 335.188 476.598 333.271 476.598 331.062C476.598 328.869 476.305 326.978 475.719 325.388C475.133 323.781 474.229 322.542 473.007 321.672C471.786 320.801 470.204 320.366 468.262 320.366C465.4 320.366 463.299 321.312 461.96 323.203C460.638 325.095 459.977 327.714 459.977 331.062ZM509.13 344.821L504.234 328.802C504.016 328.116 503.807 327.447 503.606 326.794C503.422 326.124 503.246 325.488 503.079 324.886C502.928 324.266 502.786 323.697 502.652 323.178C502.535 322.643 502.434 322.182 502.351 321.797H502.175C502.108 322.182 502.016 322.643 501.899 323.178C501.782 323.697 501.639 324.266 501.472 324.886C501.321 325.505 501.154 326.158 500.97 326.844C500.786 327.513 500.576 328.191 500.342 328.878L495.22 344.821H490.525L482.943 317.303H487.261L491.228 332.493C491.496 333.497 491.747 334.493 491.981 335.481C492.232 336.452 492.442 337.372 492.609 338.243C492.793 339.096 492.927 339.841 493.011 340.477H493.212C493.312 340.059 493.421 339.557 493.538 338.971C493.672 338.385 493.814 337.766 493.965 337.113C494.132 336.443 494.308 335.782 494.492 335.129C494.676 334.46 494.86 333.832 495.044 333.246L500.116 317.303H504.61L509.506 333.221C509.757 334.025 510 334.862 510.234 335.732C510.485 336.602 510.711 337.448 510.912 338.268C511.113 339.071 511.255 339.791 511.339 340.427H511.54C511.607 339.858 511.732 339.155 511.917 338.318C512.101 337.481 512.31 336.561 512.544 335.556C512.795 334.552 513.055 333.531 513.323 332.493L517.34 317.303H521.583L513.975 344.821H509.13ZM538.247 316.851C541.511 316.851 543.98 317.655 545.653 319.262C547.327 320.852 548.164 323.413 548.164 326.944V344.871H544.047V327.221C544.047 324.927 543.519 323.212 542.465 322.074C541.427 320.935 539.829 320.366 537.669 320.366C534.623 320.366 532.48 321.228 531.242 322.952C530.003 324.676 529.384 327.179 529.384 330.459V344.871H525.216V317.353H528.58L529.208 321.32H529.434C530.02 320.35 530.765 319.538 531.669 318.885C532.573 318.215 533.585 317.713 534.707 317.378C535.828 317.027 537.008 316.851 538.247 316.851ZM576.219 341.959C576.906 341.959 577.609 341.9 578.328 341.783C579.048 341.666 579.634 341.523 580.086 341.356V344.595C579.601 344.813 578.923 344.997 578.052 345.147C577.199 345.298 576.362 345.373 575.542 345.373C574.085 345.373 572.763 345.122 571.575 344.62C570.386 344.101 569.432 343.231 568.712 342.009C568.009 340.787 567.658 339.096 567.658 336.937V320.617H563.741V318.584L567.683 316.952L569.34 310.976H571.851V317.353H579.91V320.617H571.851V336.812C571.851 338.536 572.244 339.825 573.031 340.678C573.834 341.532 574.897 341.959 576.219 341.959ZM588.439 305.804V317.479C588.439 318.148 588.423 318.826 588.389 319.513C588.356 320.182 588.297 320.801 588.213 321.371H588.49C589.059 320.4 589.778 319.588 590.649 318.935C591.536 318.266 592.54 317.763 593.662 317.429C594.783 317.077 595.972 316.901 597.227 316.901C599.436 316.901 601.278 317.253 602.751 317.956C604.24 318.659 605.353 319.747 606.09 321.22C606.843 322.693 607.22 324.601 607.22 326.944V344.871H603.102V327.221C603.102 324.927 602.575 323.212 601.52 322.074C600.483 320.935 598.884 320.366 596.725 320.366C594.683 320.366 593.051 320.76 591.829 321.546C590.624 322.316 589.753 323.454 589.218 324.961C588.699 326.467 588.439 328.309 588.439 330.485V344.871H584.271V305.804H588.439ZM625.013 316.851C627.357 316.851 629.365 317.37 631.039 318.408C632.713 319.446 633.994 320.902 634.881 322.777C635.768 324.635 636.211 326.81 636.211 329.304V331.891H617.205C617.255 335.121 618.059 337.582 619.615 339.272C621.172 340.963 623.365 341.808 626.193 341.808C627.934 341.808 629.474 341.649 630.813 341.331C632.152 341.013 633.542 340.544 634.981 339.925V343.591C633.592 344.21 632.211 344.662 630.838 344.946C629.483 345.231 627.876 345.373 626.018 345.373C623.373 345.373 621.063 344.838 619.088 343.766C617.13 342.678 615.607 341.088 614.519 338.996C613.431 336.904 612.887 334.343 612.887 331.313C612.887 328.35 613.38 325.789 614.368 323.63C615.372 321.454 616.778 319.78 618.586 318.609C620.41 317.437 622.553 316.851 625.013 316.851ZM624.963 320.266C622.737 320.266 620.963 320.994 619.64 322.45C618.318 323.906 617.531 325.94 617.28 328.551H631.843C631.826 326.911 631.566 325.471 631.064 324.233C630.579 322.977 629.834 322.007 628.83 321.32C627.825 320.617 626.537 320.266 624.963 320.266ZM683.75 316.851C686.78 316.851 689.064 317.646 690.604 319.236C692.144 320.81 692.914 323.346 692.914 326.844V344.871H688.796V327.045C688.796 324.819 688.311 323.153 687.34 322.048C686.386 320.927 684.963 320.366 683.072 320.366C680.411 320.366 678.477 321.136 677.272 322.676C676.067 324.216 675.464 326.484 675.464 329.48V344.871H671.322V327.045C671.322 325.555 671.104 324.316 670.669 323.329C670.25 322.341 669.614 321.605 668.761 321.119C667.924 320.617 666.861 320.366 665.572 320.366C663.748 320.366 662.283 320.743 661.178 321.496C660.074 322.249 659.27 323.371 658.768 324.86C658.283 326.333 658.04 328.15 658.04 330.309V344.871H653.872V317.353H657.236L657.864 321.245H658.09C658.642 320.291 659.337 319.487 660.174 318.835C661.011 318.182 661.948 317.688 662.986 317.353C664.024 317.019 665.129 316.851 666.3 316.851C668.393 316.851 670.142 317.245 671.548 318.031C672.97 318.801 674 319.981 674.636 321.571H674.862C675.766 319.981 677.004 318.801 678.578 318.031C680.151 317.245 681.875 316.851 683.75 316.851ZM704.255 317.353V344.871H700.087V317.353H704.255ZM702.222 307.059C702.908 307.059 703.494 307.285 703.979 307.737C704.481 308.172 704.732 308.859 704.732 309.796C704.732 310.717 704.481 311.403 703.979 311.855C703.494 312.307 702.908 312.533 702.222 312.533C701.502 312.533 700.899 312.307 700.414 311.855C699.945 311.403 699.711 310.717 699.711 309.796C699.711 308.859 699.945 308.172 700.414 307.737C700.899 307.285 701.502 307.059 702.222 307.059ZM724.735 316.851C727.999 316.851 730.468 317.655 732.142 319.262C733.816 320.852 734.653 323.413 734.653 326.944V344.871H730.535V327.221C730.535 324.927 730.008 323.212 728.954 322.074C727.916 320.935 726.317 320.366 724.158 320.366C721.112 320.366 718.969 321.228 717.73 322.952C716.492 324.676 715.873 327.179 715.873 330.459V344.871H711.705V317.353H715.069L715.697 321.32H715.923C716.509 320.35 717.253 319.538 718.157 318.885C719.061 318.215 720.074 317.713 721.195 317.378C722.317 317.027 723.497 316.851 724.735 316.851ZM764.574 317.353V344.871H761.159L760.556 341.005H760.33C759.761 341.959 759.025 342.762 758.121 343.415C757.217 344.068 756.196 344.553 755.058 344.871C753.936 345.206 752.74 345.373 751.467 345.373C749.291 345.373 747.467 345.022 745.994 344.319C744.521 343.616 743.408 342.528 742.655 341.055C741.918 339.582 741.55 337.69 741.55 335.38V317.353H745.768V335.079C745.768 337.372 746.287 339.088 747.325 340.226C748.363 341.348 749.944 341.908 752.07 341.908C754.112 341.908 755.736 341.523 756.941 340.753C758.163 339.984 759.042 338.854 759.577 337.364C760.113 335.858 760.381 334.016 760.381 331.84V317.353H764.574ZM789.799 337.339C789.799 339.096 789.355 340.578 788.468 341.783C787.598 342.971 786.343 343.867 784.702 344.469C783.079 345.072 781.137 345.373 778.877 345.373C776.952 345.373 775.287 345.223 773.881 344.921C772.475 344.62 771.245 344.193 770.19 343.641V339.799C771.312 340.352 772.651 340.854 774.207 341.306C775.764 341.758 777.354 341.984 778.978 341.984C781.355 341.984 783.079 341.599 784.15 340.829C785.221 340.059 785.757 339.013 785.757 337.69C785.757 336.937 785.539 336.276 785.104 335.707C784.685 335.121 783.974 334.56 782.97 334.025C781.966 333.472 780.576 332.87 778.802 332.217C777.044 331.547 775.521 330.886 774.232 330.233C772.96 329.564 771.973 328.752 771.27 327.798C770.583 326.844 770.24 325.605 770.24 324.082C770.24 321.756 771.178 319.973 773.052 318.734C774.944 317.479 777.421 316.851 780.484 316.851C782.141 316.851 783.69 317.019 785.129 317.353C786.585 317.671 787.941 318.107 789.196 318.659L787.79 321.998C786.652 321.513 785.439 321.103 784.15 320.768C782.861 320.433 781.547 320.266 780.208 320.266C778.283 320.266 776.802 320.584 775.764 321.22C774.743 321.856 774.232 322.726 774.232 323.831C774.232 324.685 774.467 325.388 774.935 325.94C775.421 326.492 776.191 327.011 777.245 327.497C778.3 327.982 779.689 328.551 781.413 329.204C783.137 329.84 784.627 330.501 785.882 331.188C787.138 331.857 788.1 332.677 788.77 333.648C789.456 334.602 789.799 335.832 789.799 337.339ZM811.251 305.804V315.571C811.251 316.692 811.218 317.78 811.151 318.835C811.1 319.889 811.059 320.709 811.025 321.295H811.251C812.004 320.057 813.092 319.01 814.515 318.157C815.938 317.303 817.754 316.876 819.963 316.876C823.411 316.876 826.156 318.073 828.199 320.467C830.257 322.844 831.287 326.384 831.287 331.087C831.287 334.184 830.818 336.795 829.881 338.921C828.943 341.046 827.621 342.653 825.914 343.741C824.206 344.829 822.189 345.373 819.863 345.373C817.687 345.373 815.896 344.972 814.49 344.168C813.101 343.348 812.029 342.352 811.276 341.18H810.95L810.096 344.871H807.083V305.804H811.251ZM819.285 320.366C817.294 320.366 815.712 320.76 814.54 321.546C813.368 322.316 812.523 323.488 812.004 325.061C811.502 326.618 811.251 328.593 811.251 330.987V331.213C811.251 334.677 811.828 337.33 812.983 339.172C814.138 340.996 816.239 341.908 819.285 341.908C821.846 341.908 823.763 340.971 825.035 339.096C826.324 337.222 826.968 334.544 826.968 331.062C826.968 327.513 826.332 324.844 825.06 323.053C823.805 321.262 821.88 320.366 819.285 320.366ZM859.902 317.353V344.871H856.487L855.885 341.005H855.659C855.09 341.959 854.353 342.762 853.449 343.415C852.545 344.068 851.524 344.553 850.386 344.871C849.265 345.206 848.068 345.373 846.796 345.373C844.62 345.373 842.795 345.022 841.322 344.319C839.849 343.616 838.736 342.528 837.983 341.055C837.247 339.582 836.878 337.69 836.878 335.38V317.353H841.096V335.079C841.096 337.372 841.615 339.088 842.653 340.226C843.691 341.348 845.273 341.908 847.398 341.908C849.44 341.908 851.064 341.523 852.269 340.753C853.491 339.984 854.37 338.854 854.905 337.364C855.441 335.858 855.709 334.016 855.709 331.84V317.353H859.902ZM876.214 341.959C876.9 341.959 877.603 341.9 878.323 341.783C879.043 341.666 879.629 341.523 880.081 341.356V344.595C879.595 344.813 878.917 344.997 878.047 345.147C877.193 345.298 876.356 345.373 875.536 345.373C874.08 345.373 872.758 345.122 871.569 344.62C870.381 344.101 869.427 343.231 868.707 342.009C868.004 340.787 867.653 339.096 867.653 336.937V320.617H863.736V318.584L867.678 316.952L869.335 310.976H871.845V317.353H879.905V320.617H871.845V336.812C871.845 338.536 872.239 339.825 873.025 340.678C873.829 341.532 874.892 341.959 876.214 341.959ZM893.154 341.959C893.841 341.959 894.544 341.9 895.263 341.783C895.983 341.666 896.569 341.523 897.021 341.356V344.595C896.535 344.813 895.857 344.997 894.987 345.147C894.133 345.298 893.297 345.373 892.476 345.373C891.02 345.373 889.698 345.122 888.509 344.62C887.321 344.101 886.367 343.231 885.647 342.009C884.944 340.787 884.593 339.096 884.593 336.937V320.617H880.676V318.584L884.618 316.952L886.275 310.976H888.786V317.353H896.845V320.617H888.786V336.812C888.786 338.536 889.179 339.825 889.966 340.678C890.769 341.532 891.832 341.959 893.154 341.959ZM924.933 331.062C924.933 333.322 924.64 335.339 924.054 337.113C923.468 338.887 922.623 340.385 921.518 341.607C920.413 342.829 919.074 343.766 917.501 344.419C915.944 345.055 914.178 345.373 912.203 345.373C910.362 345.373 908.672 345.055 907.132 344.419C905.608 343.766 904.286 342.829 903.165 341.607C902.06 340.385 901.198 338.887 900.579 337.113C899.976 335.339 899.675 333.322 899.675 331.062C899.675 328.049 900.185 325.488 901.206 323.379C902.227 321.253 903.684 319.638 905.575 318.533C907.483 317.412 909.751 316.851 912.379 316.851C914.89 316.851 917.083 317.412 918.957 318.533C920.849 319.655 922.313 321.278 923.351 323.404C924.406 325.513 924.933 328.066 924.933 331.062ZM903.993 331.062C903.993 333.271 904.286 335.188 904.872 336.812C905.458 338.435 906.362 339.691 907.584 340.578C908.805 341.465 910.379 341.908 912.304 341.908C914.212 341.908 915.777 341.465 916.999 340.578C918.237 339.691 919.15 338.435 919.736 336.812C920.321 335.188 920.614 333.271 920.614 331.062C920.614 328.869 920.321 326.978 919.736 325.388C919.15 323.781 918.246 322.542 917.024 321.672C915.802 320.801 914.22 320.366 912.279 320.366C909.416 320.366 907.316 321.312 905.977 323.203C904.654 325.095 903.993 327.714 903.993 331.062ZM943.781 316.851C947.045 316.851 949.514 317.655 951.188 319.262C952.862 320.852 953.698 323.413 953.698 326.944V344.871H949.581V327.221C949.581 324.927 949.054 323.212 947.999 322.074C946.961 320.935 945.363 320.366 943.204 320.366C940.157 320.366 938.015 321.228 936.776 322.952C935.537 324.676 934.918 327.179 934.918 330.459V344.871H930.75V317.353H934.115L934.742 321.32H934.968C935.554 320.35 936.299 319.538 937.203 318.885C938.107 318.215 939.119 317.713 940.241 317.378C941.362 317.027 942.542 316.851 943.781 316.851ZM995.588 317.353V344.871H992.173L991.571 341.005H991.345C990.776 341.959 990.039 342.762 989.135 343.415C988.231 344.068 987.21 344.553 986.072 344.871C984.951 345.206 983.754 345.373 982.482 345.373C980.306 345.373 978.481 345.022 977.008 344.319C975.535 343.616 974.422 342.528 973.669 341.055C972.933 339.582 972.564 337.69 972.564 335.38V317.353H976.782V335.079C976.782 337.372 977.301 339.088 978.339 340.226C979.377 341.348 980.959 341.908 983.084 341.908C985.126 341.908 986.75 341.523 987.955 340.753C989.177 339.984 990.056 338.854 990.592 337.364C991.127 335.858 991.395 334.016 991.395 331.84V317.353H995.588ZM1016.04 316.851C1019.31 316.851 1021.78 317.655 1023.45 319.262C1025.12 320.852 1025.96 323.413 1025.96 326.944V344.871H1021.84V327.221C1021.84 324.927 1021.32 323.212 1020.26 322.074C1019.22 320.935 1017.62 320.366 1015.47 320.366C1012.42 320.366 1010.28 321.228 1009.04 322.952C1007.8 324.676 1007.18 327.179 1007.18 330.459V344.871H1003.01V317.353H1006.38L1007 321.32H1007.23C1007.82 320.35 1008.56 319.538 1009.46 318.885C1010.37 318.215 1011.38 317.713 1012.5 317.378C1013.62 317.027 1014.8 316.851 1016.04 316.851ZM1042.05 341.959C1042.73 341.959 1043.44 341.9 1044.16 341.783C1044.88 341.666 1045.46 341.523 1045.91 341.356V344.595C1045.43 344.813 1044.75 344.997 1043.88 345.147C1043.03 345.298 1042.19 345.373 1041.37 345.373C1039.91 345.373 1038.59 345.122 1037.4 344.62C1036.21 344.101 1035.26 343.231 1034.54 342.009C1033.84 340.787 1033.49 339.096 1033.49 336.937V320.617H1029.57V318.584L1033.51 316.952L1035.17 310.976H1037.68V317.353H1045.74V320.617H1037.68V336.812C1037.68 338.536 1038.07 339.825 1038.86 340.678C1039.66 341.532 1040.72 341.959 1042.05 341.959ZM1054.27 317.353V344.871H1050.1V317.353H1054.27ZM1052.23 307.059C1052.92 307.059 1053.51 307.285 1053.99 307.737C1054.49 308.172 1054.74 308.859 1054.74 309.796C1054.74 310.717 1054.49 311.403 1053.99 311.855C1053.51 312.307 1052.92 312.533 1052.23 312.533C1051.51 312.533 1050.91 312.307 1050.43 311.855C1049.96 311.403 1049.72 310.717 1049.72 309.796C1049.72 308.859 1049.96 308.172 1050.43 307.737C1050.91 307.285 1051.51 307.059 1052.23 307.059ZM1065.91 344.871H1061.72V305.804H1065.91V344.871ZM1094.19 341.959C1094.88 341.959 1095.58 341.9 1096.3 341.783C1097.02 341.666 1097.6 341.523 1098.06 341.356V344.595C1097.57 344.813 1096.89 344.997 1096.02 345.147C1095.17 345.298 1094.33 345.373 1093.51 345.373C1092.06 345.373 1090.73 345.122 1089.55 344.62C1088.36 344.101 1087.4 343.231 1086.68 342.009C1085.98 340.787 1085.63 339.096 1085.63 336.937V320.617H1081.71V318.584L1085.65 316.952L1087.31 310.976H1089.82V317.353H1097.88V320.617H1089.82V336.812C1089.82 338.536 1090.21 339.825 1091 340.678C1091.81 341.532 1092.87 341.959 1094.19 341.959ZM1106.41 305.804V317.479C1106.41 318.148 1106.39 318.826 1106.36 319.513C1106.33 320.182 1106.27 320.801 1106.18 321.371H1106.46C1107.03 320.4 1107.75 319.588 1108.62 318.935C1109.51 318.266 1110.51 317.763 1111.63 317.429C1112.75 317.077 1113.94 316.901 1115.2 316.901C1117.41 316.901 1119.25 317.253 1120.72 317.956C1122.21 318.659 1123.32 319.747 1124.06 321.22C1124.81 322.693 1125.19 324.601 1125.19 326.944V344.871H1121.07V327.221C1121.07 324.927 1120.55 323.212 1119.49 322.074C1118.45 320.935 1116.85 320.366 1114.7 320.366C1112.65 320.366 1111.02 320.76 1109.8 321.546C1108.59 322.316 1107.72 323.454 1107.19 324.961C1106.67 326.467 1106.41 328.309 1106.41 330.485V344.871H1102.24V305.804H1106.41ZM1142.98 316.851C1145.33 316.851 1147.34 317.37 1149.01 318.408C1150.68 319.446 1151.96 320.902 1152.85 322.777C1153.74 324.635 1154.18 326.81 1154.18 329.304V331.891H1135.18C1135.23 335.121 1136.03 337.582 1137.59 339.272C1139.14 340.963 1141.34 341.808 1144.16 341.808C1145.91 341.808 1147.45 341.649 1148.78 341.331C1150.12 341.013 1151.51 340.544 1152.95 339.925V343.591C1151.56 344.21 1150.18 344.662 1148.81 344.946C1147.45 345.231 1145.85 345.373 1143.99 345.373C1141.34 345.373 1139.03 344.838 1137.06 343.766C1135.1 342.678 1133.58 341.088 1132.49 338.996C1131.4 336.904 1130.86 334.343 1130.86 331.313C1130.86 328.35 1131.35 325.789 1132.34 323.63C1133.34 321.454 1134.75 319.78 1136.56 318.609C1138.38 317.437 1140.52 316.851 1142.98 316.851ZM1142.93 320.266C1140.71 320.266 1138.93 320.994 1137.61 322.45C1136.29 323.906 1135.5 325.94 1135.25 328.551H1149.81C1149.8 326.911 1149.54 325.471 1149.04 324.233C1148.55 322.977 1147.8 322.007 1146.8 321.32C1145.8 320.617 1144.51 320.266 1142.93 320.266ZM1189.64 337.339C1189.64 339.096 1189.2 340.578 1188.31 341.783C1187.44 342.971 1186.19 343.867 1184.55 344.469C1182.92 345.072 1180.98 345.373 1178.72 345.373C1176.8 345.373 1175.13 345.223 1173.73 344.921C1172.32 344.62 1171.09 344.193 1170.04 343.641V339.799C1171.16 340.352 1172.5 340.854 1174.05 341.306C1175.61 341.758 1177.2 341.984 1178.82 341.984C1181.2 341.984 1182.92 341.599 1183.99 340.829C1185.07 340.059 1185.6 339.013 1185.6 337.69C1185.6 336.937 1185.38 336.276 1184.95 335.707C1184.53 335.121 1183.82 334.56 1182.81 334.025C1181.81 333.472 1180.42 332.87 1178.65 332.217C1176.89 331.547 1175.37 330.886 1174.08 330.233C1172.81 329.564 1171.82 328.752 1171.11 327.798C1170.43 326.844 1170.09 325.605 1170.09 324.082C1170.09 321.756 1171.02 319.973 1172.9 318.734C1174.79 317.479 1177.27 316.851 1180.33 316.851C1181.99 316.851 1183.53 317.019 1184.97 317.353C1186.43 317.671 1187.79 318.107 1189.04 318.659L1187.64 321.998C1186.5 321.513 1185.28 321.103 1183.99 320.768C1182.71 320.433 1181.39 320.266 1180.05 320.266C1178.13 320.266 1176.65 320.584 1175.61 321.22C1174.59 321.856 1174.08 322.726 1174.08 323.831C1174.08 324.685 1174.31 325.388 1174.78 325.94C1175.27 326.492 1176.04 327.011 1177.09 327.497C1178.14 327.982 1179.53 328.551 1181.26 329.204C1182.98 329.84 1184.47 330.501 1185.73 331.188C1186.98 331.857 1187.95 332.677 1188.61 333.648C1189.3 334.602 1189.64 335.832 1189.64 337.339ZM1218.69 331.062C1218.69 333.322 1218.39 335.339 1217.81 337.113C1217.22 338.887 1216.38 340.385 1215.27 341.607C1214.17 342.829 1212.83 343.766 1211.25 344.419C1209.7 345.055 1207.93 345.373 1205.96 345.373C1204.12 345.373 1202.42 345.055 1200.88 344.419C1199.36 343.766 1198.04 342.829 1196.92 341.607C1195.81 340.385 1194.95 338.887 1194.33 337.113C1193.73 335.339 1193.43 333.322 1193.43 331.062C1193.43 328.049 1193.94 325.488 1194.96 323.379C1195.98 321.253 1197.44 319.638 1199.33 318.533C1201.24 317.412 1203.5 316.851 1206.13 316.851C1208.64 316.851 1210.84 317.412 1212.71 318.533C1214.6 319.655 1216.07 321.278 1217.1 323.404C1218.16 325.513 1218.69 328.066 1218.69 331.062ZM1197.75 331.062C1197.75 333.271 1198.04 335.188 1198.63 336.812C1199.21 338.435 1200.11 339.691 1201.34 340.578C1202.56 341.465 1204.13 341.908 1206.06 341.908C1207.97 341.908 1209.53 341.465 1210.75 340.578C1211.99 339.691 1212.9 338.435 1213.49 336.812C1214.07 335.188 1214.37 333.271 1214.37 331.062C1214.37 328.869 1214.07 326.978 1213.49 325.388C1212.9 323.781 1212 322.542 1210.78 321.672C1209.56 320.801 1207.97 320.366 1206.03 320.366C1203.17 320.366 1201.07 321.312 1199.73 323.203C1198.41 325.095 1197.75 327.714 1197.75 331.062ZM1228.7 344.871H1224.5V305.804H1228.7V344.871ZM1245.91 345.373C1242.43 345.373 1239.67 344.185 1237.63 341.808C1235.6 339.431 1234.59 335.899 1234.59 331.213C1234.59 326.476 1235.63 322.902 1237.7 320.492C1239.78 318.065 1242.54 316.851 1245.99 316.851C1247.44 316.851 1248.72 317.044 1249.8 317.429C1250.89 317.814 1251.83 318.333 1252.62 318.985C1253.4 319.621 1254.06 320.35 1254.6 321.17H1254.9C1254.83 320.651 1254.77 319.939 1254.7 319.036C1254.63 318.132 1254.6 317.395 1254.6 316.826V305.804H1258.77V344.871H1255.4L1254.78 340.954H1254.6C1254.08 341.775 1253.42 342.519 1252.62 343.189C1251.83 343.858 1250.88 344.394 1249.78 344.796C1248.69 345.181 1247.4 345.373 1245.91 345.373ZM1246.57 341.908C1249.51 341.908 1251.6 341.072 1252.82 339.398C1254.04 337.724 1254.65 335.238 1254.65 331.941V331.188C1254.65 327.689 1254.06 325.003 1252.89 323.128C1251.74 321.253 1249.63 320.316 1246.57 320.316C1244 320.316 1242.09 321.304 1240.82 323.279C1239.54 325.237 1238.91 327.915 1238.91 331.313C1238.91 334.694 1239.54 337.305 1240.79 339.147C1242.06 340.988 1243.99 341.908 1246.57 341.908ZM1276.81 316.851C1279.16 316.851 1281.16 317.37 1282.84 318.408C1284.51 319.446 1285.79 320.902 1286.68 322.777C1287.57 324.635 1288.01 326.81 1288.01 329.304V331.891H1269C1269.05 335.121 1269.86 337.582 1271.41 339.272C1272.97 340.963 1275.16 341.808 1277.99 341.808C1279.73 341.808 1281.27 341.649 1282.61 341.331C1283.95 341.013 1285.34 340.544 1286.78 339.925V343.591C1285.39 344.21 1284.01 344.662 1282.64 344.946C1281.28 345.231 1279.67 345.373 1277.82 345.373C1275.17 345.373 1272.86 344.838 1270.89 343.766C1268.93 342.678 1267.41 341.088 1266.32 338.996C1265.23 336.904 1264.69 334.343 1264.69 331.313C1264.69 328.35 1265.18 325.789 1266.17 323.63C1267.17 321.454 1268.58 319.78 1270.39 318.609C1272.21 317.437 1274.35 316.851 1276.81 316.851ZM1276.76 320.266C1274.54 320.266 1272.76 320.994 1271.44 322.45C1270.12 323.906 1269.33 325.94 1269.08 328.551H1283.64C1283.63 326.911 1283.37 325.471 1282.86 324.233C1282.38 322.977 1281.63 322.007 1280.63 321.32C1279.62 320.617 1278.34 320.266 1276.76 320.266ZM1306.21 316.851C1306.76 316.851 1307.34 316.885 1307.94 316.952C1308.54 317.002 1309.08 317.077 1309.55 317.178L1309.02 321.044C1308.57 320.927 1308.06 320.835 1307.51 320.768C1306.96 320.701 1306.44 320.668 1305.95 320.668C1304.85 320.668 1303.8 320.894 1302.82 321.345C1301.85 321.781 1300.99 322.417 1300.26 323.254C1299.52 324.074 1298.94 325.07 1298.52 326.241C1298.1 327.396 1297.9 328.685 1297.9 330.108V344.871H1293.7V317.353H1297.17L1297.62 322.425H1297.79C1298.36 321.404 1299.05 320.475 1299.85 319.638C1300.66 318.784 1301.59 318.107 1302.64 317.604C1303.71 317.102 1304.9 316.851 1306.21 316.851ZM1317.52 317.353V344.871H1313.35V317.353H1317.52ZM1315.49 307.059C1316.17 307.059 1316.76 307.285 1317.25 307.737C1317.75 308.172 1318 308.859 1318 309.796C1318 310.717 1317.75 311.403 1317.25 311.855C1316.76 312.307 1316.17 312.533 1315.49 312.533C1314.77 312.533 1314.17 312.307 1313.68 311.855C1313.21 311.403 1312.98 310.717 1312.98 309.796C1312.98 308.859 1313.21 308.172 1313.68 307.737C1314.17 307.285 1314.77 307.059 1315.49 307.059ZM1338 316.851C1341.27 316.851 1343.73 317.655 1345.41 319.262C1347.08 320.852 1347.92 323.413 1347.92 326.944V344.871H1343.8V327.221C1343.8 324.927 1343.27 323.212 1342.22 322.074C1341.18 320.935 1339.58 320.366 1337.42 320.366C1334.38 320.366 1332.24 321.228 1331 322.952C1329.76 324.676 1329.14 327.179 1329.14 330.459V344.871H1324.97V317.353H1328.34L1328.96 321.32H1329.19C1329.78 320.35 1330.52 319.538 1331.42 318.885C1332.33 318.215 1333.34 317.713 1334.46 317.378C1335.58 317.027 1336.76 316.851 1338 316.851ZM1362.8 357.224C1359.19 357.224 1356.4 356.546 1354.44 355.19C1352.48 353.851 1351.5 351.968 1351.5 349.541C1351.5 347.817 1352.05 346.344 1353.13 345.122C1354.24 343.9 1355.76 343.088 1357.7 342.687C1356.98 342.352 1356.36 341.85 1355.85 341.18C1355.34 340.511 1355.09 339.741 1355.09 338.87C1355.09 337.866 1355.37 336.987 1355.92 336.234C1356.49 335.464 1357.35 334.728 1358.51 334.025C1357.07 333.439 1355.9 332.451 1354.99 331.062C1354.11 329.656 1353.66 328.024 1353.66 326.166C1353.66 324.191 1354.07 322.509 1354.89 321.119C1355.71 319.713 1356.9 318.642 1358.46 317.906C1360.01 317.169 1361.9 316.801 1364.11 316.801C1364.59 316.801 1365.08 316.826 1365.56 316.876C1366.06 316.91 1366.54 316.968 1366.99 317.052C1367.45 317.119 1367.84 317.203 1368.17 317.303H1377.61V319.99L1372.54 320.617C1373.04 321.27 1373.46 322.057 1373.8 322.977C1374.13 323.898 1374.3 324.919 1374.3 326.041C1374.3 328.786 1373.37 330.97 1371.51 332.594C1369.66 334.2 1367.1 335.004 1363.86 335.004C1363.09 335.004 1362.3 334.937 1361.5 334.803C1360.68 335.255 1360.05 335.757 1359.61 336.309C1359.19 336.862 1358.98 337.498 1358.98 338.218C1358.98 338.753 1359.14 339.18 1359.46 339.498C1359.8 339.816 1360.27 340.05 1360.89 340.201C1361.51 340.335 1362.26 340.402 1363.13 340.402H1367.97C1370.97 340.402 1373.26 341.03 1374.85 342.285C1376.46 343.54 1377.26 345.373 1377.26 347.784C1377.26 350.83 1376.02 353.165 1373.55 354.789C1371.07 356.412 1367.49 357.224 1362.8 357.224ZM1362.93 353.96C1365.2 353.96 1367.09 353.726 1368.58 353.257C1370.08 352.805 1371.2 352.144 1371.94 351.273C1372.69 350.42 1373.07 349.399 1373.07 348.21C1373.07 347.106 1372.82 346.269 1372.32 345.7C1371.81 345.147 1371.08 344.779 1370.11 344.595C1369.14 344.394 1367.95 344.294 1366.54 344.294H1361.77C1360.53 344.294 1359.45 344.486 1358.53 344.871C1357.61 345.256 1356.9 345.825 1356.4 346.578C1355.91 347.332 1355.67 348.269 1355.67 349.39C1355.67 350.88 1356.3 352.01 1357.55 352.78C1358.81 353.567 1360.6 353.96 1362.93 353.96ZM1364.01 331.966C1366 331.966 1367.5 331.464 1368.5 330.459C1369.5 329.455 1370.01 327.991 1370.01 326.066C1370.01 324.007 1369.5 322.467 1368.48 321.446C1367.45 320.408 1365.95 319.889 1363.96 319.889C1362.05 319.889 1360.57 320.425 1359.54 321.496C1358.52 322.551 1358.01 324.099 1358.01 326.141C1358.01 328.016 1358.52 329.455 1359.56 330.459C1360.6 331.464 1362.08 331.966 1364.01 331.966ZM1397.79 317.353V344.871H1393.62V317.353H1397.79ZM1395.75 307.059C1396.44 307.059 1397.02 307.285 1397.51 307.737C1398.01 308.172 1398.26 308.859 1398.26 309.796C1398.26 310.717 1398.01 311.403 1397.51 311.855C1397.02 312.307 1396.44 312.533 1395.75 312.533C1395.03 312.533 1394.43 312.307 1393.94 311.855C1393.48 311.403 1393.24 310.717 1393.24 309.796C1393.24 308.859 1393.48 308.172 1393.94 307.737C1394.43 307.285 1395.03 307.059 1395.75 307.059ZM1417.74 316.851C1418.29 316.851 1418.87 316.885 1419.47 316.952C1420.07 317.002 1420.61 317.077 1421.08 317.178L1420.55 321.044C1420.1 320.927 1419.6 320.835 1419.04 320.768C1418.49 320.701 1417.97 320.668 1417.49 320.668C1416.38 320.668 1415.34 320.894 1414.35 321.345C1413.38 321.781 1412.52 322.417 1411.79 323.254C1411.05 324.074 1410.47 325.07 1410.06 326.241C1409.64 327.396 1409.43 328.685 1409.43 330.108V344.871H1405.24V317.353H1408.7L1409.15 322.425H1409.33C1409.9 321.404 1410.58 320.475 1411.39 319.638C1412.19 318.784 1413.12 318.107 1414.17 317.604C1415.24 317.102 1416.43 316.851 1417.74 316.851ZM1448.61 331.062C1448.61 333.322 1448.32 335.339 1447.73 337.113C1447.15 338.887 1446.3 340.385 1445.2 341.607C1444.09 342.829 1442.75 343.766 1441.18 344.419C1439.62 345.055 1437.86 345.373 1435.88 345.373C1434.04 345.373 1432.35 345.055 1430.81 344.419C1429.29 343.766 1427.97 342.829 1426.85 341.607C1425.74 340.385 1424.88 338.887 1424.26 337.113C1423.66 335.339 1423.36 333.322 1423.36 331.062C1423.36 328.049 1423.87 325.488 1424.89 323.379C1425.91 321.253 1427.36 319.638 1429.26 318.533C1431.16 317.412 1433.43 316.851 1436.06 316.851C1438.57 316.851 1440.76 317.412 1442.64 318.533C1444.53 319.655 1445.99 321.278 1447.03 323.404C1448.09 325.513 1448.61 328.066 1448.61 331.062ZM1427.67 331.062C1427.67 333.271 1427.97 335.188 1428.55 336.812C1429.14 338.435 1430.04 339.691 1431.26 340.578C1432.49 341.465 1434.06 341.908 1435.98 341.908C1437.89 341.908 1439.46 341.465 1440.68 340.578C1441.92 339.691 1442.83 338.435 1443.42 336.812C1444 335.188 1444.29 333.271 1444.29 331.062C1444.29 328.869 1444 326.978 1443.42 325.388C1442.83 323.781 1441.93 322.542 1440.7 321.672C1439.48 320.801 1437.9 320.366 1435.96 320.366C1433.1 320.366 1431 321.312 1429.66 323.203C1428.33 325.095 1427.67 327.714 1427.67 331.062ZM1467.46 316.851C1470.73 316.851 1473.19 317.655 1474.87 319.262C1476.54 320.852 1477.38 323.413 1477.38 326.944V344.871H1473.26V327.221C1473.26 324.927 1472.73 323.212 1471.68 322.074C1470.64 320.935 1469.04 320.366 1466.88 320.366C1463.84 320.366 1461.7 321.228 1460.46 322.952C1459.22 324.676 1458.6 327.179 1458.6 330.459V344.871H1454.43V317.353H1457.8L1458.42 321.32H1458.65C1459.23 320.35 1459.98 319.538 1460.88 318.885C1461.79 318.215 1462.8 317.713 1463.92 317.378C1465.04 317.027 1466.22 316.851 1467.46 316.851ZM1500.71 317.353V344.871H1496.55V317.353H1500.71ZM1498.68 307.059C1499.37 307.059 1499.95 307.285 1500.44 307.737C1500.94 308.172 1501.19 308.859 1501.19 309.796C1501.19 310.717 1500.94 311.403 1500.44 311.855C1499.95 312.307 1499.37 312.533 1498.68 312.533C1497.96 312.533 1497.36 312.307 1496.87 311.855C1496.4 311.403 1496.17 310.717 1496.17 309.796C1496.17 308.859 1496.4 308.172 1496.87 307.737C1497.36 307.285 1497.96 307.059 1498.68 307.059ZM1525.96 337.339C1525.96 339.096 1525.52 340.578 1524.63 341.783C1523.76 342.971 1522.51 343.867 1520.87 344.469C1519.24 345.072 1517.3 345.373 1515.04 345.373C1513.12 345.373 1511.45 345.223 1510.05 344.921C1508.64 344.62 1507.41 344.193 1506.36 343.641V339.799C1507.48 340.352 1508.82 340.854 1510.37 341.306C1511.93 341.758 1513.52 341.984 1515.14 341.984C1517.52 341.984 1519.24 341.599 1520.32 340.829C1521.39 340.059 1521.92 339.013 1521.92 337.69C1521.92 336.937 1521.7 336.276 1521.27 335.707C1520.85 335.121 1520.14 334.56 1519.14 334.025C1518.13 333.472 1516.74 332.87 1514.97 332.217C1513.21 331.547 1511.69 330.886 1510.4 330.233C1509.13 329.564 1508.14 328.752 1507.44 327.798C1506.75 326.844 1506.41 325.605 1506.41 324.082C1506.41 321.756 1507.34 319.973 1509.22 318.734C1511.11 317.479 1513.59 316.851 1516.65 316.851C1518.31 316.851 1519.86 317.019 1521.29 317.353C1522.75 317.671 1524.11 318.107 1525.36 318.659L1523.96 321.998C1522.82 321.513 1521.6 321.103 1520.32 320.768C1519.03 320.433 1517.71 320.266 1516.37 320.266C1514.45 320.266 1512.97 320.584 1511.93 321.22C1510.91 321.856 1510.4 322.726 1510.4 323.831C1510.4 324.685 1510.63 325.388 1511.1 325.94C1511.59 326.492 1512.36 327.011 1513.41 327.497C1514.47 327.982 1515.85 328.551 1517.58 329.204C1519.3 329.84 1520.79 330.501 1522.05 331.188C1523.3 331.857 1524.27 332.677 1524.94 333.648C1525.62 334.602 1525.96 335.832 1525.96 337.339ZM422.181 390.617H415.327V414.871H411.159V390.617H406.288V388.609L411.159 387.228V385.395C411.159 383.085 411.502 381.21 412.188 379.771C412.875 378.315 413.871 377.243 415.176 376.557C416.482 375.871 418.072 375.528 419.947 375.528C421.001 375.528 421.964 375.62 422.834 375.804C423.721 375.988 424.499 376.197 425.169 376.432L424.089 379.721C423.52 379.537 422.876 379.369 422.156 379.219C421.453 379.051 420.733 378.967 419.997 378.967C418.407 378.967 417.227 379.486 416.457 380.524C415.704 381.545 415.327 383.152 415.327 385.345V387.353H422.181V390.617ZM448.587 387.353V414.871H445.172L444.57 411.005H444.344C443.775 411.959 443.038 412.762 442.134 413.415C441.23 414.068 440.209 414.553 439.071 414.871C437.95 415.206 436.753 415.373 435.481 415.373C433.305 415.373 431.48 415.022 430.007 414.319C428.534 413.616 427.421 412.528 426.668 411.055C425.932 409.582 425.563 407.69 425.563 405.38V387.353H429.781V405.079C429.781 407.372 430.3 409.088 431.338 410.226C432.376 411.348 433.958 411.908 436.083 411.908C438.125 411.908 439.749 411.523 440.954 410.753C442.176 409.984 443.055 408.854 443.59 407.364C444.126 405.858 444.394 404.016 444.394 401.84V387.353H448.587ZM460.204 414.871H456.011V375.804H460.204V414.871ZM471.821 414.871H467.628V375.804H471.821V414.871ZM474.902 387.353H479.371L485.447 403.322C485.799 404.259 486.125 405.163 486.427 406.033C486.728 406.887 486.996 407.707 487.23 408.494C487.464 409.281 487.648 410.042 487.782 410.779H487.958C488.192 409.942 488.527 408.845 488.962 407.49C489.398 406.117 489.866 404.719 490.368 403.297L496.118 387.353H500.612L488.636 418.913C488 420.604 487.255 422.077 486.401 423.332C485.564 424.588 484.543 425.55 483.338 426.22C482.133 426.906 480.677 427.249 478.97 427.249C478.183 427.249 477.488 427.199 476.886 427.098C476.283 427.015 475.764 426.914 475.329 426.797V423.458C475.697 423.542 476.141 423.617 476.66 423.684C477.195 423.751 477.748 423.784 478.317 423.784C479.355 423.784 480.25 423.583 481.003 423.182C481.773 422.797 482.434 422.228 482.987 421.474C483.539 420.721 484.016 419.826 484.418 418.788L485.924 414.921L474.902 387.353ZM526.609 415.373C524.131 415.373 521.947 414.863 520.056 413.842C518.164 412.821 516.691 411.264 515.637 409.172C514.582 407.079 514.055 404.443 514.055 401.263C514.055 397.932 514.607 395.212 515.712 393.103C516.833 390.977 518.373 389.404 520.332 388.383C522.29 387.362 524.516 386.851 527.01 386.851C528.383 386.851 529.705 386.993 530.977 387.278C532.266 387.546 533.321 387.889 534.141 388.307L532.885 391.797C532.049 391.463 531.078 391.161 529.973 390.894C528.885 390.626 527.864 390.492 526.91 390.492C525.002 390.492 523.412 390.902 522.139 391.722C520.884 392.542 519.938 393.747 519.302 395.338C518.683 396.928 518.373 398.886 518.373 401.213C518.373 403.439 518.675 405.339 519.277 406.912C519.897 408.485 520.809 409.691 522.014 410.528C523.236 411.348 524.759 411.758 526.584 411.758C528.04 411.758 529.354 411.607 530.525 411.306C531.697 410.988 532.76 410.62 533.714 410.201V413.917C532.793 414.386 531.764 414.746 530.626 414.997C529.504 415.248 528.165 415.373 526.609 415.373ZM562.58 401.062C562.58 403.322 562.287 405.339 561.701 407.113C561.115 408.887 560.27 410.385 559.165 411.607C558.061 412.829 556.722 413.766 555.148 414.419C553.592 415.055 551.826 415.373 549.851 415.373C548.009 415.373 546.319 415.055 544.779 414.419C543.256 413.766 541.933 412.829 540.812 411.607C539.707 410.385 538.845 408.887 538.226 407.113C537.623 405.339 537.322 403.322 537.322 401.062C537.322 398.049 537.833 395.488 538.854 393.379C539.875 391.253 541.331 389.638 543.222 388.533C545.13 387.412 547.398 386.851 550.026 386.851C552.537 386.851 554.73 387.412 556.605 388.533C558.496 389.655 559.961 391.278 560.998 393.404C562.053 395.513 562.58 398.066 562.58 401.062ZM541.641 401.062C541.641 403.271 541.933 405.188 542.519 406.812C543.105 408.435 544.009 409.691 545.231 410.578C546.453 411.465 548.026 411.908 549.951 411.908C551.859 411.908 553.424 411.465 554.646 410.578C555.885 409.691 556.797 408.435 557.383 406.812C557.969 405.188 558.262 403.271 558.262 401.062C558.262 398.869 557.969 396.978 557.383 395.388C556.797 393.781 555.893 392.542 554.671 391.672C553.449 390.801 551.868 390.366 549.926 390.366C547.064 390.366 544.963 391.312 543.624 393.203C542.302 395.095 541.641 397.714 541.641 401.062ZM581.428 386.851C584.692 386.851 587.161 387.655 588.835 389.262C590.509 390.852 591.346 393.413 591.346 396.944V414.871H587.228V397.221C587.228 394.927 586.701 393.212 585.646 392.074C584.609 390.935 583.01 390.366 580.851 390.366C577.804 390.366 575.662 391.228 574.423 392.952C573.185 394.676 572.565 397.179 572.565 400.459V414.871H568.398V387.353H571.762L572.39 391.32H572.616C573.201 390.35 573.946 389.538 574.85 388.885C575.754 388.215 576.767 387.713 577.888 387.378C579.01 387.027 580.19 386.851 581.428 386.851ZM611.575 386.851C614.839 386.851 617.308 387.655 618.982 389.262C620.655 390.852 621.492 393.413 621.492 396.944V414.871H617.375V397.221C617.375 394.927 616.847 393.212 615.793 392.074C614.755 390.935 613.157 390.366 610.997 390.366C607.951 390.366 605.809 391.228 604.57 392.952C603.331 394.676 602.712 397.179 602.712 400.459V414.871H598.544V387.353H601.909L602.536 391.32H602.762C603.348 390.35 604.093 389.538 604.997 388.885C605.901 388.215 606.913 387.713 608.035 387.378C609.156 387.027 610.336 386.851 611.575 386.851ZM639.286 386.851C641.629 386.851 643.638 387.37 645.312 388.408C646.986 389.446 648.266 390.902 649.153 392.777C650.04 394.635 650.484 396.81 650.484 399.304V401.891H631.478C631.528 405.121 632.331 407.582 633.888 409.272C635.445 410.963 637.637 411.808 640.466 411.808C642.207 411.808 643.747 411.649 645.086 411.331C646.425 411.013 647.814 410.544 649.254 409.925V413.591C647.864 414.21 646.484 414.662 645.111 414.946C643.755 415.231 642.148 415.373 640.29 415.373C637.646 415.373 635.336 414.838 633.361 413.766C631.402 412.678 629.879 411.088 628.791 408.996C627.703 406.904 627.159 404.343 627.159 401.313C627.159 398.35 627.653 395.789 628.641 393.63C629.645 391.454 631.051 389.78 632.859 388.609C634.683 387.437 636.826 386.851 639.286 386.851ZM639.236 390.266C637.01 390.266 635.235 390.994 633.913 392.45C632.591 393.906 631.804 395.94 631.553 398.551H646.115C646.099 396.911 645.839 395.471 645.337 394.233C644.852 392.977 644.107 392.007 643.102 391.32C642.098 390.617 640.809 390.266 639.236 390.266ZM667.198 415.373C664.721 415.373 662.537 414.863 660.645 413.842C658.754 412.821 657.281 411.264 656.226 409.172C655.172 407.079 654.644 404.443 654.644 401.263C654.644 397.932 655.197 395.212 656.302 393.103C657.423 390.977 658.963 389.404 660.921 388.383C662.88 387.362 665.106 386.851 667.6 386.851C668.972 386.851 670.295 386.993 671.567 387.278C672.856 387.546 673.91 387.889 674.73 388.307L673.475 391.797C672.638 391.463 671.667 391.161 670.563 390.894C669.475 390.626 668.453 390.492 667.499 390.492C665.591 390.492 664.001 390.902 662.729 391.722C661.474 392.542 660.528 393.747 659.892 395.338C659.273 396.928 658.963 398.886 658.963 401.213C658.963 403.439 659.264 405.339 659.867 406.912C660.486 408.485 661.398 409.691 662.603 410.528C663.825 411.348 665.349 411.758 667.173 411.758C668.629 411.758 669.943 411.607 671.115 411.306C672.287 410.988 673.349 410.62 674.304 410.201V413.917C673.383 414.386 672.354 414.746 671.215 414.997C670.094 415.248 668.755 415.373 667.198 415.373ZM688.331 411.959C689.017 411.959 689.72 411.9 690.44 411.783C691.16 411.666 691.746 411.523 692.198 411.356V414.595C691.712 414.813 691.034 414.997 690.164 415.147C689.31 415.298 688.473 415.373 687.653 415.373C686.197 415.373 684.875 415.122 683.686 414.62C682.498 414.101 681.544 413.231 680.824 412.009C680.121 410.787 679.77 409.096 679.77 406.937V390.617H675.853V388.584L679.795 386.952L681.452 380.976H683.962V387.353H692.022V390.617H683.962V406.812C683.962 408.536 684.356 409.825 685.142 410.678C685.946 411.532 687.009 411.959 688.331 411.959ZM706.979 386.851C709.322 386.851 711.33 387.37 713.004 388.408C714.678 389.446 715.959 390.902 716.846 392.777C717.733 394.635 718.176 396.81 718.176 399.304V401.891H699.17C699.22 405.121 700.024 407.582 701.58 409.272C703.137 410.963 705.33 411.808 708.159 411.808C709.899 411.808 711.439 411.649 712.778 411.331C714.117 411.013 715.507 410.544 716.946 409.925V413.591C715.557 414.21 714.176 414.662 712.803 414.946C711.448 415.231 709.841 415.373 707.983 415.373C705.338 415.373 703.028 414.838 701.053 413.766C699.095 412.678 697.572 411.088 696.484 408.996C695.396 406.904 694.852 404.343 694.852 401.313C694.852 398.35 695.345 395.789 696.333 393.63C697.337 391.454 698.743 389.78 700.551 388.609C702.375 387.437 704.518 386.851 706.979 386.851ZM706.928 390.266C704.702 390.266 702.928 390.994 701.606 392.45C700.283 393.906 699.496 395.94 699.245 398.551H713.808C713.791 396.911 713.532 395.471 713.029 394.233C712.544 392.977 711.799 392.007 710.795 391.32C709.791 390.617 708.502 390.266 706.928 390.266ZM733.66 415.373C730.179 415.373 727.417 414.185 725.375 411.808C723.349 409.431 722.337 405.899 722.337 401.213C722.337 396.476 723.375 392.902 725.45 390.492C727.526 388.065 730.287 386.851 733.736 386.851C735.192 386.851 736.464 387.044 737.552 387.429C738.64 387.814 739.577 388.333 740.364 388.985C741.151 389.621 741.812 390.35 742.347 391.17H742.649C742.582 390.651 742.515 389.939 742.448 389.036C742.381 388.132 742.347 387.395 742.347 386.826V375.804H746.515V414.871H743.151L742.523 410.954H742.347C741.829 411.775 741.167 412.519 740.364 413.189C739.577 413.858 738.632 414.394 737.527 414.796C736.439 415.181 735.15 415.373 733.66 415.373ZM734.313 411.908C737.259 411.908 739.343 411.072 740.565 409.398C741.787 407.724 742.398 405.238 742.398 401.941V401.188C742.398 397.689 741.812 395.003 740.64 393.128C739.485 391.253 737.376 390.316 734.313 390.316C731.752 390.316 729.836 391.304 728.563 393.279C727.291 395.237 726.655 397.915 726.655 401.313C726.655 404.694 727.283 407.305 728.538 409.147C729.81 410.988 731.735 411.908 734.313 411.908ZM774.822 411.959C775.508 411.959 776.211 411.9 776.931 411.783C777.65 411.666 778.236 411.523 778.688 411.356V414.595C778.203 414.813 777.525 414.997 776.654 415.147C775.801 415.298 774.964 415.373 774.144 415.373C772.687 415.373 771.365 415.122 770.177 414.62C768.988 414.101 768.034 413.231 767.314 412.009C766.611 410.787 766.26 409.096 766.26 406.937V390.617H762.343V388.584L766.285 386.952L767.942 380.976H770.453V387.353H778.512V390.617H770.453V406.812C770.453 408.536 770.846 409.825 771.633 410.678C772.436 411.532 773.499 411.959 774.822 411.959ZM806.6 401.062C806.6 403.322 806.307 405.339 805.721 407.113C805.136 408.887 804.29 410.385 803.185 411.607C802.081 412.829 800.742 413.766 799.168 414.419C797.612 415.055 795.846 415.373 793.871 415.373C792.029 415.373 790.339 415.055 788.799 414.419C787.276 413.766 785.953 412.829 784.832 411.607C783.727 410.385 782.865 408.887 782.246 407.113C781.643 405.339 781.342 403.322 781.342 401.062C781.342 398.049 781.853 395.488 782.874 393.379C783.895 391.253 785.351 389.638 787.242 388.533C789.15 387.412 791.418 386.851 794.046 386.851C796.557 386.851 798.75 387.412 800.625 388.533C802.516 389.655 803.981 391.278 805.018 393.404C806.073 395.513 806.6 398.066 806.6 401.062ZM785.661 401.062C785.661 403.271 785.953 405.188 786.539 406.812C787.125 408.435 788.029 409.691 789.251 410.578C790.473 411.465 792.046 411.908 793.971 411.908C795.879 411.908 797.444 411.465 798.666 410.578C799.905 409.691 800.817 408.435 801.403 406.812C801.989 405.188 802.282 403.271 802.282 401.062C802.282 398.869 801.989 396.978 801.403 395.388C800.817 393.781 799.913 392.542 798.691 391.672C797.469 390.801 795.888 390.366 793.946 390.366C791.084 390.366 788.983 391.312 787.644 393.203C786.322 395.095 785.661 397.714 785.661 401.062ZM833.274 411.959C833.961 411.959 834.664 411.9 835.383 411.783C836.103 411.666 836.689 411.523 837.141 411.356V414.595C836.656 414.813 835.978 414.997 835.107 415.147C834.254 415.298 833.417 415.373 832.597 415.373C831.14 415.373 829.818 415.122 828.63 414.62C827.441 414.101 826.487 413.231 825.767 412.009C825.064 410.787 824.713 409.096 824.713 406.937V390.617H820.796V388.584L824.738 386.952L826.395 380.976H828.906V387.353H836.965V390.617H828.906V406.812C828.906 408.536 829.299 409.825 830.086 410.678C830.889 411.532 831.952 411.959 833.274 411.959ZM845.494 375.804V387.479C845.494 388.148 845.478 388.826 845.444 389.513C845.411 390.182 845.352 390.801 845.268 391.371H845.545C846.114 390.4 846.833 389.588 847.704 388.935C848.591 388.266 849.595 387.763 850.717 387.429C851.838 387.077 853.027 386.901 854.282 386.901C856.491 386.901 858.333 387.253 859.806 387.956C861.295 388.659 862.408 389.747 863.145 391.22C863.898 392.693 864.275 394.601 864.275 396.944V414.871H860.157V397.221C860.157 394.927 859.63 393.212 858.575 392.074C857.538 390.935 855.939 390.366 853.78 390.366C851.738 390.366 850.106 390.76 848.884 391.546C847.679 392.316 846.808 393.454 846.273 394.961C845.754 396.467 845.494 398.309 845.494 400.485V414.871H841.326V375.804H845.494ZM882.068 386.851C884.412 386.851 886.42 387.37 888.094 388.408C889.768 389.446 891.049 390.902 891.936 392.777C892.823 394.635 893.266 396.81 893.266 399.304V401.891H874.26C874.31 405.121 875.114 407.582 876.67 409.272C878.227 410.963 880.42 411.808 883.248 411.808C884.989 411.808 886.529 411.649 887.868 411.331C889.207 411.013 890.597 410.544 892.036 409.925V413.591C890.647 414.21 889.266 414.662 887.893 414.946C886.538 415.231 884.931 415.373 883.073 415.373C880.428 415.373 878.118 414.838 876.143 413.766C874.185 412.678 872.662 411.088 871.574 408.996C870.486 406.904 869.942 404.343 869.942 401.313C869.942 398.35 870.435 395.789 871.423 393.63C872.427 391.454 873.833 389.78 875.641 388.609C877.465 387.437 879.608 386.851 882.068 386.851ZM882.018 390.266C879.792 390.266 878.018 390.994 876.695 392.45C875.373 393.906 874.586 395.94 874.335 398.551H888.898C888.881 396.911 888.621 395.471 888.119 394.233C887.634 392.977 886.889 392.007 885.885 391.32C884.88 390.617 883.592 390.266 882.018 390.266ZM921.949 415.373C919.472 415.373 917.288 414.863 915.396 413.842C913.505 412.821 912.032 411.264 910.977 409.172C909.923 407.079 909.396 404.443 909.396 401.263C909.396 397.932 909.948 395.212 911.053 393.103C912.174 390.977 913.714 389.404 915.672 388.383C917.631 387.362 919.857 386.851 922.351 386.851C923.723 386.851 925.046 386.993 926.318 387.278C927.607 387.546 928.661 387.889 929.481 388.307L928.226 391.797C927.389 391.463 926.418 391.161 925.314 390.894C924.226 390.626 923.205 390.492 922.251 390.492C920.342 390.492 918.752 390.902 917.48 391.722C916.225 392.542 915.279 393.747 914.643 395.338C914.024 396.928 913.714 398.886 913.714 401.213C913.714 403.439 914.015 405.339 914.618 406.912C915.237 408.485 916.149 409.691 917.355 410.528C918.576 411.348 920.1 411.758 921.924 411.758C923.38 411.758 924.694 411.607 925.866 411.306C927.038 410.988 928.101 410.62 929.055 410.201V413.917C928.134 414.386 927.105 414.746 925.966 414.997C924.845 415.248 923.506 415.373 921.949 415.373ZM957.921 401.062C957.921 403.322 957.628 405.339 957.042 407.113C956.456 408.887 955.611 410.385 954.506 411.607C953.401 412.829 952.062 413.766 950.489 414.419C948.932 415.055 947.166 415.373 945.191 415.373C943.35 415.373 941.66 415.055 940.12 414.419C938.596 413.766 937.274 412.829 936.153 411.607C935.048 410.385 934.186 408.887 933.567 407.113C932.964 405.339 932.663 403.322 932.663 401.062C932.663 398.049 933.173 395.488 934.194 393.379C935.215 391.253 936.672 389.638 938.563 388.533C940.471 387.412 942.739 386.851 945.367 386.851C947.878 386.851 950.071 387.412 951.945 388.533C953.837 389.655 955.301 391.278 956.339 393.404C957.394 395.513 957.921 398.066 957.921 401.062ZM936.981 401.062C936.981 403.271 937.274 405.188 937.86 406.812C938.446 408.435 939.35 409.691 940.572 410.578C941.793 411.465 943.367 411.908 945.292 411.908C947.2 411.908 948.765 411.465 949.987 410.578C951.225 409.691 952.138 408.435 952.724 406.812C953.309 405.188 953.602 403.271 953.602 401.062C953.602 398.869 953.309 396.978 952.724 395.388C952.138 393.781 951.234 392.542 950.012 391.672C948.79 390.801 947.208 390.366 945.267 390.366C942.404 390.366 940.304 391.312 938.965 393.203C937.642 395.095 936.981 397.714 936.981 401.062ZM993.616 386.851C996.646 386.851 998.93 387.646 1000.47 389.236C1002.01 390.81 1002.78 393.346 1002.78 396.844V414.871H998.663V397.045C998.663 394.819 998.177 393.153 997.206 392.048C996.252 390.927 994.83 390.366 992.938 390.366C990.277 390.366 988.343 391.136 987.138 392.676C985.933 394.216 985.331 396.484 985.331 399.48V414.871H981.188V397.045C981.188 395.555 980.97 394.316 980.535 393.329C980.117 392.341 979.481 391.605 978.627 391.119C977.79 390.617 976.727 390.366 975.438 390.366C973.614 390.366 972.149 390.743 971.044 391.496C969.94 392.249 969.136 393.371 968.634 394.86C968.149 396.333 967.906 398.15 967.906 400.309V414.871H963.738V387.353H967.103L967.73 391.245H967.956C968.509 390.291 969.203 389.487 970.04 388.835C970.877 388.182 971.814 387.688 972.852 387.353C973.89 387.019 974.995 386.851 976.166 386.851C978.259 386.851 980.008 387.245 981.414 388.031C982.837 388.801 983.866 389.981 984.502 391.571H984.728C985.632 389.981 986.871 388.801 988.444 388.031C990.017 387.245 991.741 386.851 993.616 386.851ZM1022.88 386.851C1026.32 386.851 1029.05 388.031 1031.09 390.391C1033.14 392.751 1034.16 396.3 1034.16 401.037C1034.16 404.167 1033.69 406.795 1032.75 408.921C1031.81 411.046 1030.49 412.653 1028.78 413.741C1027.09 414.829 1025.09 415.373 1022.78 415.373C1021.33 415.373 1020.05 415.181 1018.94 414.796C1017.84 414.411 1016.89 413.892 1016.1 413.239C1015.32 412.586 1014.67 411.875 1014.15 411.105H1013.85C1013.9 411.758 1013.95 412.544 1014.02 413.465C1014.1 414.386 1014.15 415.189 1014.15 415.875V427.174H1009.95V387.353H1013.39L1013.95 391.421H1014.15C1014.68 390.584 1015.33 389.822 1016.1 389.136C1016.87 388.433 1017.81 387.881 1018.92 387.479C1020.04 387.06 1021.36 386.851 1022.88 386.851ZM1022.16 390.366C1020.25 390.366 1018.71 390.734 1017.54 391.471C1016.38 392.207 1015.54 393.312 1015 394.785C1014.46 396.241 1014.18 398.074 1014.15 400.284V401.087C1014.15 403.414 1014.4 405.38 1014.9 406.987C1015.42 408.594 1016.26 409.816 1017.44 410.653C1018.62 411.49 1020.21 411.908 1022.21 411.908C1023.91 411.908 1025.34 411.448 1026.47 410.528C1027.61 409.607 1028.46 408.326 1029.01 406.686C1029.58 405.029 1029.86 403.129 1029.86 400.987C1029.86 397.739 1029.23 395.162 1027.96 393.254C1026.7 391.329 1024.77 390.366 1022.16 390.366ZM1062.77 387.353V414.871H1059.36L1058.76 411.005H1058.53C1057.96 411.959 1057.22 412.762 1056.32 413.415C1055.42 414.068 1054.39 414.553 1053.26 414.871C1052.14 415.206 1050.94 415.373 1049.67 415.373C1047.49 415.373 1045.67 415.022 1044.19 414.319C1042.72 413.616 1041.61 412.528 1040.85 411.055C1040.12 409.582 1039.75 407.69 1039.75 405.38V387.353H1043.97V405.079C1043.97 407.372 1044.49 409.088 1045.52 410.226C1046.56 411.348 1048.14 411.908 1050.27 411.908C1052.31 411.908 1053.93 411.523 1055.14 410.753C1056.36 409.984 1057.24 408.854 1057.78 407.364C1058.31 405.858 1058.58 404.016 1058.58 401.84V387.353H1062.77ZM1079.08 411.959C1079.77 411.959 1080.47 411.9 1081.19 411.783C1081.91 411.666 1082.5 411.523 1082.95 411.356V414.595C1082.47 414.813 1081.79 414.997 1080.92 415.147C1080.06 415.298 1079.23 415.373 1078.41 415.373C1076.95 415.373 1075.63 415.122 1074.44 414.62C1073.25 414.101 1072.3 413.231 1071.58 412.009C1070.87 410.787 1070.52 409.096 1070.52 406.937V390.617H1066.61V388.584L1070.55 386.952L1072.21 380.976H1074.72V387.353H1082.78V390.617H1074.72V406.812C1074.72 408.536 1075.11 409.825 1075.9 410.678C1076.7 411.532 1077.76 411.959 1079.08 411.959ZM1097.73 386.851C1100.08 386.851 1102.08 387.37 1103.76 388.408C1105.43 389.446 1106.71 390.902 1107.6 392.777C1108.49 394.635 1108.93 396.81 1108.93 399.304V401.891H1089.92C1089.97 405.121 1090.78 407.582 1092.33 409.272C1093.89 410.963 1096.08 411.808 1098.91 411.808C1100.65 411.808 1102.19 411.649 1103.53 411.331C1104.87 411.013 1106.26 410.544 1107.7 409.925V413.591C1106.31 414.21 1104.93 414.662 1103.56 414.946C1102.2 415.231 1100.59 415.373 1098.74 415.373C1096.09 415.373 1093.78 414.838 1091.81 413.766C1089.85 412.678 1088.33 411.088 1087.24 408.996C1086.15 406.904 1085.61 404.343 1085.61 401.313C1085.61 398.35 1086.1 395.789 1087.09 393.63C1088.09 391.454 1089.5 389.78 1091.3 388.609C1093.13 387.437 1095.27 386.851 1097.73 386.851ZM1097.68 390.266C1095.46 390.266 1093.68 390.994 1092.36 392.45C1091.04 393.906 1090.25 395.94 1090 398.551H1104.56C1104.54 396.911 1104.29 395.471 1103.78 394.233C1103.3 392.977 1102.55 392.007 1101.55 391.32C1100.54 390.617 1099.26 390.266 1097.68 390.266ZM1127.13 386.851C1127.68 386.851 1128.26 386.885 1128.86 386.952C1129.46 387.002 1130 387.077 1130.46 387.178L1129.94 391.044C1129.49 390.927 1128.98 390.835 1128.43 390.768C1127.88 390.701 1127.36 390.668 1126.87 390.668C1125.77 390.668 1124.72 390.894 1123.74 391.345C1122.76 391.781 1121.91 392.417 1121.17 393.254C1120.44 394.074 1119.86 395.07 1119.44 396.241C1119.02 397.396 1118.81 398.685 1118.81 400.108V414.871H1114.62V387.353H1118.09L1118.54 392.425H1118.71C1119.28 391.404 1119.97 390.475 1120.77 389.638C1121.58 388.784 1122.51 388.107 1123.56 387.604C1124.63 387.102 1125.82 386.851 1127.13 386.851ZM1133.65 412.26C1133.65 411.088 1133.93 410.26 1134.5 409.774C1135.07 409.272 1135.76 409.021 1136.58 409.021C1137.44 409.021 1138.16 409.272 1138.74 409.774C1139.33 410.26 1139.62 411.088 1139.62 412.26C1139.62 413.415 1139.33 414.26 1138.74 414.796C1138.16 415.315 1137.44 415.574 1136.58 415.574C1135.76 415.574 1135.07 415.315 1134.5 414.796C1133.93 414.26 1133.65 413.415 1133.65 412.26Z" fill="#8C8C8C"/>
<path d="M422.026 188.094L420.515 178.861C420.515 178.861 420.355 177.3 421.42 176.558C422.484 175.816 424.586 175.832 424.586 175.832H466.177C466.177 175.832 463.66 180.576 462.79 183.956C461.913 187.36 461.77 193.022 461.77 193.022V247.993C461.77 247.993 461.913 253.655 462.79 257.059C463.66 260.438 466.177 265.183 466.177 265.183H424.586C424.586 265.183 422.484 265.199 421.42 264.457C420.355 263.715 420.515 262.154 420.515 262.154L422.026 252.921C422.026 252.921 422.562 249.304 424.134 247.933C425.656 246.606 427.348 245.837 428.769 245.389C429.699 245.095 431.064 244.92 432.699 244.711C437.588 244.084 444.894 243.147 450.246 237.808C454.605 233.459 456.592 230.027 456.608 220.507C456.592 210.988 454.605 207.556 450.246 203.207C444.894 197.868 437.588 196.931 432.699 196.304C431.064 196.095 429.699 195.92 428.769 195.626C427.348 195.178 425.656 194.408 424.134 193.082C422.562 191.711 422.026 188.094 422.026 188.094Z" stroke="#8C8C8C" stroke-width="5.72101"/>
<path d="M461.691 194.486V246.524C461.691 246.524 461.691 254.618 464.037 260.259C465.397 263.531 468.138 265.965 470.163 266.956C471.357 267.541 472.341 267.241 473.259 266.962C473.75 266.812 474.222 266.668 474.697 266.668H656.787C656.787 266.668 658.37 266.793 659.451 265.976C660.883 264.895 660.69 263.098 660.69 263.098V177.912C660.69 177.912 660.883 176.116 659.451 175.034C658.37 174.217 656.787 174.342 656.787 174.342H474.697C474.222 174.342 473.75 174.199 473.259 174.049C472.341 173.769 471.357 173.47 470.163 174.054C468.138 175.046 465.397 177.48 464.037 180.751C461.691 186.392 461.691 194.486 461.691 194.486Z" stroke="#8C8C8C" stroke-width="5.72101"/>
<path d="M1077.95 239.354C1077.95 241.109 1079.37 242.532 1081.13 242.532H1081.7C1081.7 247.445 1086.31 251.362 1091.22 251.362C1091.22 251.362 1165.89 252.322 1170.94 251.362C1175.99 250.402 1181.11 249.302 1185.95 247.551C1188.82 246.514 1190.95 245.252 1193.05 244.011C1195.42 242.601 1197.76 241.219 1201.06 240.23C1205.99 238.758 1214 238.094 1214 238.094L1295.29 238.094C1296.34 238.094 1297.2 237.24 1297.2 236.187V203.411C1297.2 202.358 1296.34 201.504 1295.29 201.504H1214.29C1214.29 201.504 1206 201.022 1201.07 199.644C1197.76 198.718 1195.43 197.424 1193.06 196.104C1190.96 194.943 1188.83 193.76 1185.96 192.79C1181.53 191.288 1175.68 189.219 1170.94 189.222H1091.22C1086.31 189.222 1082.28 193.139 1082.28 198.053H1081.13C1079.37 198.053 1077.95 199.475 1077.95 201.23V239.354Z" stroke="#8C8C8C" stroke-width="5.72101"/>
<rect x="1213.89" y="227.172" width="13.3323" height="2.99919" rx="1.49959" transform="rotate(-90 1213.89 227.172)" stroke="#8C8C8C" stroke-width="2.99919"/>
<rect x="1225.22" y="227.172" width="13.3323" height="2.99919" rx="1.49959" transform="rotate(-90 1225.22 227.172)" stroke="#8C8C8C" stroke-width="2.99919"/>
<rect x="1236.55" y="227.172" width="13.3323" height="2.99919" rx="1.49959" transform="rotate(-90 1236.55 227.172)" stroke="#8C8C8C" stroke-width="2.99919"/>
<rect x="1247.88" y="227.172" width="13.3323" height="2.99919" rx="1.49959" transform="rotate(-90 1247.88 227.172)" stroke="#8C8C8C" stroke-width="2.99919"/>
<rect x="1259.21" y="227.172" width="13.3323" height="2.99919" rx="1.49959" transform="rotate(-90 1259.21 227.172)" stroke="#8C8C8C" stroke-width="2.99919"/>
<rect x="1270.54" y="227.172" width="13.3323" height="2.99919" rx="1.49959" transform="rotate(-90 1270.54 227.172)" stroke="#8C8C8C" stroke-width="2.99919"/>
<rect x="1281.87" y="227.172" width="13.3323" height="2.99919" rx="1.49959" transform="rotate(-90 1281.87 227.172)" stroke="#8C8C8C" stroke-width="2.99919"/>
<path d="M379.291 205.173L391.2 191.398C391.2 191.398 387.432 204.85 387.338 220.35C387.243 235.851 391.22 249.246 391.22 249.246L379.291 236.582C379.291 236.582 375.566 229.644 375.661 220.673C375.755 211.701 379.291 205.173 379.291 205.173Z" stroke="#8C8C8C" stroke-width="5.72101"/>
<path d="M391.204 191.403C391.204 191.403 394.219 187.479 396.905 186.425C399.769 185.3 399.814 187.05 401.097 187.262C404.265 187.788 406.9 188.091 406.9 188.091C406.9 188.091 402.303 202.51 402.303 220.92C402.303 239.33 406.405 253.525 406.405 253.525C406.405 253.525 404.567 253.126 402.303 253.525C400.352 253.87 401.621 255.969 396.429 254.357C393.704 253.511 391.204 249.249 391.204 249.249C391.204 249.249 387.286 235.411 387.286 220.92C387.286 204.988 391.204 191.403 391.204 191.403Z" stroke="#8C8C8C" stroke-width="5.72101"/>
<path d="M376.166 236.602C376.166 236.602 374.032 234.158 373.198 233.563C371.822 232.583 370.786 232.086 369.419 232.086H331.725C329.761 232.086 328.226 232.982 327.335 233.827C326.734 234.396 326.78 234.893 325.863 235.847C324.953 236.703 324.313 236.626 323.987 236.626C323.987 236.626 316.955 236.956 316.955 220.619C316.955 203.481 324.192 205.108 324.192 205.108C324.192 205.108 324.705 205.159 325.567 205.949C326.183 206.514 326.805 207.817 327.392 208.298C328.852 209.495 331.725 209.558 331.725 209.558H369.419C370.821 209.558 372.059 208.804 373.473 207.821C374.679 206.981 376.147 205.172 376.147 205.172C376.147 205.172 372.458 209.558 372.458 221.049C372.458 231.478 376.166 236.602 376.166 236.602Z" stroke="#8C8C8C" stroke-width="5.72101"/>
<path d="M379.289 205.172H376.136C376.136 205.172 372.361 209.178 372.361 220.881C372.361 232.585 376.136 236.591 376.136 236.591H379.289C379.289 236.591 375.674 229.731 375.674 220.881C375.674 212.032 379.289 205.172 379.289 205.172Z" stroke="#8C8C8C" stroke-width="5.72101"/>
<path d="M144.878 208.62C144.878 208.62 142.412 214.099 142.412 220.359C142.412 226.619 144.382 233.513 144.382 233.513C145.484 236.116 148.133 237.583 150.548 237.583C150.548 237.583 319.879 238.335 322.01 238.335C324.476 238.472 326.943 236.218 327.094 234.048C325.392 236.769 324.675 236.769 323.29 236.527C320.523 236.044 317.01 231.113 317.01 221.118C317.01 209.176 321.137 205.486 323.09 205.145C324.475 204.903 325.392 205.364 327.094 208.085C326.943 205.915 324.476 203.662 322.01 203.799C319.879 203.799 150.548 204.551 150.548 204.551C148.133 204.551 145.98 206.016 144.878 208.62Z" stroke="#8C8C8C" stroke-width="5.72101"/>
<path d="M114.827 213.648L144.89 208.621C144.89 208.621 142.519 213.665 142.452 220.143C142.384 226.621 144.386 233.515 144.386 233.515L113.185 227.432C112.287 226.459 110.711 224.133 110.766 221.136C110.711 217.382 113.145 214.862 114.827 213.648Z" stroke="#8C8C8C" stroke-width="5.72101"/>
<path d="M114.843 213.648L92.0088 217.36C91.0771 217.586 88.9173 218.596 89.0262 220.663C89.1351 222.729 90.3832 223.574 92.0482 224.001L113.244 227.445C113.244 227.445 110.779 225.231 110.779 220.915C110.779 216.253 114.843 213.648 114.843 213.648Z" stroke="#8C8C8C" stroke-width="5.72101"/>
<path d="M447.421 220.506C447.421 225.249 443.577 229.094 438.836 229.094C434.094 229.094 430.25 225.249 430.25 220.506C430.25 215.763 434.094 211.919 438.836 211.919C443.577 211.919 447.421 215.763 447.421 220.506Z" stroke="#8C8C8C" stroke-width="5.72101"/>
<path d="M438.05 215.615C438.319 214.884 439.352 214.884 439.621 215.615L440.591 218.255C440.676 218.486 440.857 218.667 441.088 218.752L443.729 219.722C444.459 219.991 444.459 221.024 443.729 221.293L441.088 222.263C440.857 222.348 440.676 222.529 440.591 222.76L439.621 225.4C439.352 226.131 438.319 226.131 438.05 225.4L437.08 222.76C436.995 222.529 436.814 222.348 436.583 222.263L433.943 221.293C433.212 221.024 433.212 219.991 433.943 219.722L436.583 218.752C436.814 218.667 436.995 218.486 437.08 218.255L438.05 215.615Z" fill="#8C8C8C"/>
<path d="M420.886 180.039H413.571C408.998 180.039 406.468 190.687 404.707 197.467C402.339 206.586 402.329 218.67 402.339 220.337C402.329 222.021 402.423 235.299 404.025 242.935C405.515 250.04 408.998 260.971 413.571 260.971H420.814C420.981 260.248 421.149 259.351 421.269 258.198C422.064 254.467 422.132 249.49 424.948 247.48C426.685 246.239 430.163 245.371 433.337 244.905C438.375 244.165 444.344 243.273 449.627 238.556C454.462 234.126 456.906 230.61 456.845 220.306C456.845 210.588 454.361 206.619 449.556 202.26C444.273 197.59 438.212 196.951 433.174 196.218C430.001 195.756 426.65 194.72 424.913 193.492C422.686 191.917 421.97 186.005 421.38 182.998C421.175 181.955 420.971 180.738 420.886 180.039Z" stroke="#8C8C8C" stroke-width="5.72101"/>
<path d="M1077.48 240.312C1077.19 246.531 1076.41 251.08 1075 256.096C1073.59 261.111 1071.6 263.446 1067.77 263.446H662.612C662.612 263.446 661.767 263.446 661.213 262.777C660.698 262.155 660.698 261.585 660.698 261.585V179.423C660.698 179.423 660.698 178.853 661.213 178.231C661.767 177.562 662.612 177.562 662.612 177.562H1067.77C1071.6 177.562 1073.59 179.897 1075 184.913C1076.41 189.929 1077.19 194.477 1077.48 200.696C1077.62 207.289 1078 213.913 1077.94 220.504C1078 227.096 1077.62 233.72 1077.48 240.312Z" stroke="#8C8C8C" stroke-width="5.72101"/>
<path d="M691.931 220.506C691.931 226.991 686.674 232.248 680.191 232.248C673.707 232.248 668.451 226.991 668.451 220.506C668.451 214.02 673.707 208.763 680.191 208.763C686.674 208.763 691.931 214.02 691.931 220.506Z" stroke="#8C8C8C" stroke-width="5.72101"/>
<rect x="959.705" y="214.551" width="2.71082" height="11.9071" fill="#8C8C8C"/>
<path d="M706.25 214.551H703.539V219.149H698.942V221.86H703.539V226.458H706.25V221.86H710.848V219.149H706.25V214.551Z" fill="#8C8C8C"/>
<rect x="718.333" y="193.45" width="233.887" height="54.1095" rx="27.0547" stroke="#8C8C8C" stroke-width="5.72101"/>
<rect x="764.378" y="204.259" width="121.706" height="32.487" stroke="#8C8C8C" stroke-width="5.72101"/>
<path d="M934.359 220.506C934.359 226.991 929.102 232.248 922.619 232.248C916.136 232.248 910.879 226.991 910.879 220.506C910.879 214.02 916.136 208.763 922.619 208.763C929.102 208.763 934.359 214.02 934.359 220.506Z" stroke="#8C8C8C" stroke-width="5.72101"/>
<path d="M991.622 220.506C991.622 225.249 987.778 229.094 983.037 229.094C978.296 229.094 974.452 225.249 974.452 220.506C974.452 215.763 978.296 211.919 983.037 211.919C987.778 211.919 991.622 215.763 991.622 220.506Z" stroke="#8C8C8C" stroke-width="5.72101"/>
<path d="M982.252 215.615C982.52 214.884 983.554 214.884 983.822 215.615L984.793 218.255C984.877 218.486 985.059 218.667 985.289 218.752L987.93 219.722C988.661 219.991 988.661 221.024 987.93 221.293L985.289 222.263C985.059 222.348 984.877 222.529 984.793 222.76L983.822 225.4C983.554 226.131 982.52 226.131 982.252 225.4L981.282 222.76C981.197 222.529 981.015 222.348 980.785 222.263L978.144 221.293C977.413 221.024 977.413 219.991 978.144 219.722L980.785 218.752C981.015 218.667 981.197 218.486 981.282 218.255L982.252 215.615Z" fill="#8C8C8C"/>
<path fill-rule="evenodd" clip-rule="evenodd" d="M1281.42 36.1094L1258.66 36.1096L1258.9 49.2758C1259.07 51.7463 1259.42 55.1837 1260.16 59.177C1261.62 67.0359 1264.69 77.6804 1271.37 87.3354C1286.3 108.919 1312.45 117.315 1339.07 120.622C1362.45 123.525 1388.66 122.771 1412.48 122.086C1415.9 121.987 1419.27 121.89 1422.58 121.806C1435.99 121.463 1448.37 121.312 1459.28 121.953C1470.3 122.6 1478.99 124.018 1485.31 126.403C1491.41 128.706 1494.44 131.551 1495.91 134.846C1497.5 138.429 1498.15 144.551 1494.97 154.98C1490.41 169.91 1477.98 181.354 1459.66 190.06C1441.32 198.779 1418.3 204.118 1395.21 207.248C1372.24 210.361 1349.86 211.203 1333.16 211.256C1324.82 211.283 1317.95 211.113 1313.18 210.938C1306.98 210.71 1303.59 210.938 1297.5 210.677V231.733C1303.89 232.129 1305.85 231.892 1312.3 232.129C1317.34 232.314 1324.54 232.49 1333.23 232.463C1350.58 232.407 1374.08 231.537 1398.43 228.237C1422.66 224.954 1448.4 219.179 1469.85 208.984C1491.32 198.777 1509.73 183.508 1516.66 160.829C1520.59 147.956 1521.07 136.419 1516.72 126.663C1512.25 116.618 1503.58 110.443 1493.73 106.725C1484.1 103.09 1472.59 101.486 1460.69 100.787C1448.68 100.082 1435.41 100.263 1421.97 100.607C1418.54 100.694 1415.1 100.792 1411.66 100.889C1387.62 101.571 1363.44 102.257 1342.03 99.5982C1317.46 96.5465 1299.74 89.431 1290.29 75.7774C1285.9 69.4262 1283.57 61.8716 1282.39 55.5328C1281.82 52.4273 1281.54 49.7662 1281.42 47.9131C1281.12 43.5191 1281.36 40.508 1281.42 36.1094Z" stroke="#8C8C8C" stroke-width="5.72101" stroke-linecap="square"/>
<g filter="url(#filter0_d_971_178)">
<path d="M922.619 221.07L906.104 192.465H939.134L922.619 221.07ZM922.619 148.692V145.832H925.48V148.692H922.619ZM827.095 148.692V151.553H824.234V148.692H827.095ZM919.759 195.326V148.692H925.48V195.326H919.759ZM922.619 151.553H827.095V145.832H922.619V151.553ZM824.234 148.692V133.718H829.955V148.692H824.234Z" fill="#8C8C8C"/>
</g>
<path d="M657.597 111.426L647.027 80.7696H646.801C646.851 81.4559 646.91 82.3932 646.977 83.5817C647.044 84.7701 647.102 86.0422 647.152 87.398C647.203 88.7538 647.228 90.051 647.228 91.2896V111.426H641.754V74.7187H650.216L660.384 104.019H660.535L671.055 74.7187H679.491V111.426H673.741V90.9883C673.741 89.8669 673.758 88.6534 673.791 87.3478C673.842 86.0422 673.892 84.8035 673.942 83.6319C674.009 82.4602 674.059 81.5228 674.093 80.8198H673.892L662.92 111.426H657.597ZM693.067 83.6319V111.426H687.166V83.6319H693.067ZM690.154 72.9863C691.058 72.9863 691.836 73.229 692.489 73.7144C693.159 74.1998 693.493 75.0368 693.493 76.2252C693.493 77.3969 693.159 78.2338 692.489 78.7359C691.836 79.2213 691.058 79.464 690.154 79.464C689.217 79.464 688.422 79.2213 687.769 78.7359C687.133 78.2338 686.815 77.3969 686.815 76.2252C686.815 75.0368 687.133 74.1998 687.769 73.7144C688.422 73.229 689.217 72.9863 690.154 72.9863ZM714.626 83.1046C717.756 83.1046 720.192 83.9164 721.933 85.54C723.69 87.1469 724.569 89.733 724.569 93.2982V111.426H718.669V94.4029C718.669 92.2437 718.225 90.6285 717.338 89.5572C716.451 88.4692 715.078 87.9252 713.22 87.9252C710.525 87.9252 708.651 88.7538 707.596 90.4109C706.559 92.068 706.04 94.4699 706.04 97.6167V111.426H700.139V83.6319H704.734L705.563 87.398H705.889C706.492 86.4272 707.236 85.6321 708.124 85.0128C709.027 84.3767 710.032 83.8997 711.136 83.5817C712.258 83.2636 713.421 83.1046 714.626 83.1046ZM755.67 83.6319V111.426H751.025L750.221 107.685H749.895C749.309 108.639 748.564 109.434 747.66 110.07C746.756 110.689 745.752 111.15 744.647 111.451C743.543 111.769 742.379 111.928 741.157 111.928C739.065 111.928 737.274 111.576 735.785 110.873C734.312 110.154 733.182 109.049 732.395 107.559C731.608 106.07 731.215 104.145 731.215 101.785V83.6319H737.14V100.68C737.14 102.839 737.575 104.454 738.446 105.526C739.333 106.597 740.706 107.132 742.564 107.132C744.355 107.132 745.777 106.764 746.832 106.028C747.886 105.291 748.631 104.203 749.066 102.764C749.518 101.324 749.744 99.5583 749.744 97.4661V83.6319H755.67ZM781.422 103.492C781.422 105.316 780.979 106.856 780.092 108.112C779.205 109.367 777.907 110.321 776.2 110.974C774.509 111.61 772.434 111.928 769.973 111.928C768.032 111.928 766.358 111.786 764.952 111.501C763.563 111.233 762.249 110.815 761.01 110.246V105.149C762.332 105.768 763.814 106.304 765.454 106.756C767.111 107.208 768.676 107.434 770.149 107.434C772.091 107.434 773.488 107.132 774.342 106.53C775.196 105.911 775.623 105.09 775.623 104.069C775.623 103.467 775.447 102.931 775.095 102.462C774.761 101.977 774.124 101.483 773.187 100.981C772.267 100.462 770.911 99.8429 769.12 99.1231C767.362 98.4201 765.881 97.7171 764.676 97.0141C763.471 96.3111 762.558 95.4658 761.939 94.4783C761.32 93.474 761.01 92.1935 761.01 90.6368C761.01 88.1763 761.981 86.31 763.922 85.0379C765.881 83.749 768.467 83.1046 771.681 83.1046C773.388 83.1046 774.995 83.2804 776.501 83.6319C778.024 83.9666 779.514 84.4604 780.97 85.1132L779.112 89.5572C777.857 89.0049 776.593 88.5529 775.321 88.2014C774.066 87.8332 772.785 87.6491 771.48 87.6491C769.957 87.6491 768.793 87.8834 767.99 88.3521C767.203 88.8207 766.81 89.4903 766.81 90.3607C766.81 91.0134 767.002 91.5658 767.387 92.0177C767.772 92.4697 768.433 92.9216 769.371 93.3735C770.325 93.8255 771.647 94.3862 773.338 95.0557C774.995 95.6918 776.426 96.3613 777.631 97.0643C778.853 97.7506 779.79 98.5959 780.443 99.6002C781.096 100.604 781.422 101.902 781.422 103.492ZM804.28 72.3586V81.7739C804.28 82.8619 804.247 83.9332 804.18 84.9877C804.13 86.0254 804.079 86.8372 804.029 87.4231H804.28C805.034 86.2179 806.08 85.2053 807.419 84.3851C808.775 83.5482 810.507 83.1297 812.616 83.1297C815.913 83.1297 818.566 84.3432 820.575 86.7703C822.584 89.1806 823.588 92.7542 823.588 97.4912C823.588 100.638 823.128 103.283 822.207 105.425C821.286 107.568 819.989 109.191 818.315 110.296C816.658 111.384 814.708 111.928 812.465 111.928C810.356 111.928 808.649 111.543 807.343 110.773C806.055 109.986 805.042 109.074 804.305 108.036H803.879L802.799 111.426H798.38V72.3586H804.28ZM811.059 87.9252C809.386 87.9252 808.055 88.26 807.067 88.9295C806.096 89.5991 805.393 90.6034 804.958 91.9424C804.523 93.2647 804.297 94.9469 804.28 96.989V97.5163C804.28 100.613 804.766 102.981 805.737 104.622C806.724 106.262 808.515 107.082 811.11 107.082C813.168 107.082 814.75 106.254 815.855 104.597C816.96 102.923 817.512 100.529 817.512 97.4158C817.512 94.269 816.96 91.9006 815.855 90.3104C814.767 88.7203 813.168 87.9252 811.059 87.9252ZM853.257 83.6319V111.426H848.613L847.809 107.685H847.483C846.897 108.639 846.152 109.434 845.248 110.07C844.344 110.689 843.34 111.15 842.235 111.451C841.131 111.769 839.967 111.928 838.745 111.928C836.653 111.928 834.862 111.576 833.372 110.873C831.899 110.154 830.77 109.049 829.983 107.559C829.196 106.07 828.803 104.145 828.803 101.785V83.6319H834.728V100.68C834.728 102.839 835.163 104.454 836.034 105.526C836.921 106.597 838.293 107.132 840.151 107.132C841.942 107.132 843.365 106.764 844.42 106.028C845.474 105.291 846.219 104.203 846.654 102.764C847.106 101.324 847.332 99.5583 847.332 97.4661V83.6319H853.257ZM870.675 107.158C871.445 107.158 872.206 107.091 872.959 106.957C873.713 106.806 874.399 106.63 875.018 106.429V110.899C874.365 111.183 873.52 111.426 872.482 111.627C871.445 111.827 870.365 111.928 869.244 111.928C867.67 111.928 866.256 111.668 865 111.15C863.745 110.614 862.749 109.702 862.013 108.413C861.276 107.124 860.908 105.341 860.908 103.065V88.1261H857.117V85.4898L861.184 83.4059L863.117 77.4554H866.833V83.6319H874.792V88.1261H866.833V102.99C866.833 104.396 867.185 105.442 867.888 106.128C868.591 106.814 869.52 107.158 870.675 107.158ZM889.623 107.158C890.393 107.158 891.155 107.091 891.908 106.957C892.661 106.806 893.348 106.63 893.967 106.429V110.899C893.314 111.183 892.469 111.426 891.431 111.627C890.393 111.827 889.314 111.928 888.192 111.928C886.619 111.928 885.204 111.668 883.949 111.15C882.694 110.614 881.698 109.702 880.961 108.413C880.225 107.124 879.857 105.341 879.857 103.065V88.1261H876.065V85.4898L880.133 83.4059L882.066 77.4554H885.782V83.6319H893.741V88.1261H885.782V102.99C885.782 104.396 886.133 105.442 886.836 106.128C887.539 106.814 888.468 107.158 889.623 107.158ZM922.833 97.4661C922.833 99.7759 922.532 101.826 921.929 103.617C921.327 105.408 920.448 106.923 919.293 108.162C918.138 109.384 916.749 110.321 915.125 110.974C913.501 111.61 911.669 111.928 909.626 111.928C907.718 111.928 905.969 111.61 904.379 110.974C902.789 110.321 901.408 109.384 900.236 108.162C899.081 106.923 898.186 105.408 897.55 103.617C896.914 101.826 896.596 99.7759 896.596 97.4661C896.596 94.4029 897.123 91.8085 898.177 89.6828C899.249 87.5403 900.772 85.9083 902.747 84.7868C904.722 83.6653 907.074 83.1046 909.802 83.1046C912.363 83.1046 914.623 83.6653 916.581 84.7868C918.54 85.9083 920.071 87.5403 921.176 89.6828C922.281 91.8253 922.833 94.4197 922.833 97.4661ZM902.672 97.4661C902.672 99.4914 902.914 101.224 903.4 102.663C903.902 104.103 904.672 105.208 905.71 105.977C906.747 106.731 908.087 107.107 909.727 107.107C911.367 107.107 912.706 106.731 913.744 105.977C914.782 105.208 915.543 104.103 916.029 102.663C916.514 101.224 916.757 99.4914 916.757 97.4661C916.757 95.4407 916.514 93.725 916.029 92.319C915.543 90.8963 914.782 89.8167 913.744 89.0802C912.706 88.327 911.359 87.9503 909.702 87.9503C907.258 87.9503 905.475 88.7705 904.354 90.4109C903.232 92.0512 902.672 94.4029 902.672 97.4661ZM942.711 83.1046C945.841 83.1046 948.276 83.9164 950.017 85.54C951.774 87.1469 952.653 89.733 952.653 93.2982V111.426H946.753V94.4029C946.753 92.2437 946.309 90.6285 945.422 89.5572C944.535 88.4692 943.163 87.9252 941.305 87.9252C938.61 87.9252 936.735 88.7538 935.681 90.4109C934.643 92.068 934.124 94.4699 934.124 97.6167V111.426H928.224V83.6319H932.818L933.647 87.398H933.973C934.576 86.4272 935.321 85.6321 936.208 85.0128C937.112 84.3767 938.116 83.8997 939.221 83.5817C940.342 83.2636 941.505 83.1046 942.711 83.1046ZM969.335 97.3405C969.335 94.5285 969.603 91.7834 970.138 89.1053C970.691 86.4272 971.527 83.8746 972.649 81.4475C973.77 79.0205 975.185 76.7775 976.892 74.7187H982.039C979.645 77.9157 977.838 81.4559 976.616 85.3392C975.411 89.2225 974.808 93.2062 974.808 97.2903C974.808 99.9517 975.076 102.588 975.612 105.199C976.147 107.81 976.951 110.321 978.022 112.731C979.093 115.158 980.415 117.435 981.989 119.561H976.892C975.185 117.552 973.77 115.359 972.649 112.982C971.527 110.606 970.691 108.095 970.138 105.45C969.603 102.806 969.335 100.102 969.335 97.3405ZM984.015 100.127V95.1311H996.971V100.127H984.015ZM1011.63 97.3154C1011.63 100.094 1011.36 102.806 1010.82 105.45C1010.29 108.095 1009.46 110.606 1008.34 112.982C1007.23 115.359 1005.81 117.552 1004.07 119.561H998.997C1000.57 117.435 1001.89 115.158 1002.96 112.731C1004.04 110.304 1004.84 107.785 1005.37 105.174C1005.91 102.563 1006.18 99.9266 1006.18 97.2652C1006.18 94.5536 1005.9 91.8755 1005.35 89.2308C1004.81 86.5862 1004.01 84.042 1002.94 81.5982C1001.87 79.1376 1000.54 76.8445 998.947 74.7187H1004.07C1005.81 76.7775 1007.23 79.0205 1008.34 81.4475C1009.46 83.8746 1010.29 86.4272 1010.82 89.1053C1011.36 91.7667 1011.63 94.5034 1011.63 97.3154Z" fill="#8C8C8C"/>
</g>
<defs>
<filter id="filter0_d_971_178" x="796.265" y="107.021" width="170.839" height="143.29" filterUnits="userSpaceOnUse" color-interpolation-filters="sRGB">
<feFlood flood-opacity="0" result="BackgroundImageFix"/>
<feColorMatrix in="SourceAlpha" type="matrix" values="0 0 0 0 0 0 0 0 0 0 0 0 0 0 0 0 0 0 127 0" result="hardAlpha"/>
<feOffset dy="1.27134"/>
<feGaussianBlur stdDeviation="13.9847"/>
<feComposite in2="hardAlpha" operator="out"/>
<feColorMatrix type="matrix" values="0 0 0 0 0 0 0 0 0 0 0 0 0 0 0 0 0 0 1 0"/>
<feBlend mode="normal" in2="BackgroundImageFix" result="effect1_dropShadow_971_178"/>
<feBlend mode="normal" in="SourceGraphic" in2="effect1_dropShadow_971_178" result="shape"/>
</filter>
</defs>
</svg>
